<?xml version="1.0" standalone="no"?>
<!DOCTYPE svg PUBLIC "-//W3C//DTD SVG 1.1//EN" "http://www.w3.org/Graphics/SVG/1.1/DTD/svg11.dtd" >
<svg xmlns="http://www.w3.org/2000/svg" xmlns:xlink="http://www.w3.org/1999/xlink" version="1.1">
<metadata>
Created by FontForge 20170731 at Thu Mar 18 17:48:56 2021
 By Aleksey,,,
Copyright (c) 2021 by Fontastica. All rights reserved.
</metadata>
<defs>
<font id="Spacia-BoldItalic" horiz-adv-x="541" >
  <font-face 
    font-family="Spacia"
    font-weight="700"
    font-style="italic"
    font-stretch="normal"
    units-per-em="2048"
    panose-1="0 0 8 0 0 0 0 0 0 0"
    ascent="1638"
    descent="-410"
    x-height="736"
    cap-height="1165"
    bbox="-118.692 -450 1923 1612"
    underline-thickness="50"
    underline-position="-150"
    slope="-9"
    unicode-range="U+0020-F8FF"
  />
<missing-glyph horiz-adv-x="899" 
d="M982 1153l-182 -1144h-699l182 1144h699zM931 1121h-607l222 -506zM936 1075l-373 -494l216 -496zM520 581l-216 491l-156 -984zM760 43l-223 504l-382 -504h605z" />
    <glyph glyph-name=".notdef" horiz-adv-x="899" 
d="M982 1153l-182 -1144h-699l182 1144h699zM931 1121h-607l222 -506zM936 1075l-373 -494l216 -496zM520 581l-216 491l-156 -984zM760 43l-223 504l-382 -504h605z" />
    <glyph glyph-name=".null" horiz-adv-x="0" 
 />
    <glyph glyph-name="nonmarkingreturn" horiz-adv-x="682" 
 />
    <glyph glyph-name="space" unicode=" " horiz-adv-x="517" 
 />
    <glyph glyph-name="exclam" unicode="!" horiz-adv-x="371" 
d="M241 255h-28q-35 0 -29 37l131 827q6 36 41 36h28q34 0 28 -36l-131 -827q-6 -37 -40 -37zM198 0h-23q-28 0 -44.5 21t-11.5 48l4 24q5 28 27.5 48.5t50.5 20.5h23q27 0 42.5 -20.5t11.5 -48.5l-4 -24q-5 -29 -26 -49t-50 -20z" />
    <glyph glyph-name="quotedbl" unicode="&#x22;" horiz-adv-x="492" 
d="M318 927h-28q-35 0 -29 36l24 156q6 36 41 36h28q37 0 31 -36l-24 -156q-6 -36 -43 -36zM496 927h-28q-37 0 -31 36l24 156q6 36 43 36h28q34 0 28 -36l-24 -156q-6 -36 -40 -36z" />
    <glyph glyph-name="numbersign" unicode="#" horiz-adv-x="1095" 
d="M199 0h-30q-18 0 -26 14q-4 10 -2 25l1 6l134 323l-2 2h-164q-15 0 -23 10.5t-6 24.5q3 10 3 11l12 30q10 28 39 28h181q3 0 3 2l82 197v2h-187q-14 0 -22.5 11t-6.5 25q0 4 2 10l12 28q12 28 39 28h204q1 0 1 1l143 349q13 28 39 28h28q18 0 28 -15q3 -12 2 -21
q0 -1 -3 -10l-135 -330l-1 -2h344l2 2q12 30 63.5 156t78.5 192q13 28 38 28h29q15 0 24 -11t7 -25q0 -1 -3 -10l-135 -330l-1 -2h174q15 0 23 -10t6 -25l-3 -11l-13 -29q-10 -27 -38 -27h-190l-85 -201h193q15 0 24 -10.5t6 -25.5q0 -4 -2 -10l-13 -30q-12 -28 -38 -28
h-211l-141 -344q-9 -26 -38 -26h-29q-15 0 -23.5 10t-5.5 25l2 10l133 325h-344q1 0 0 -1l-141 -343q-10 -26 -38 -26zM502 673l-81 -198l-1 -2q1 1 3 1h340q1 0 3 2l81 200l-1 -1h-343z" />
    <glyph glyph-name="dollar" unicode="$" horiz-adv-x="822" 
d="M414 -157h-26q-36 0 -30 35l16 100q-125 11 -203 99t-71 214l2 9q4 35 38 35h28q32 0 28 -35l-1 -4q-2 -88 52.5 -148t141.5 -71l79 496q-6 2 -19.5 5.5t-18.5 4.5q-21 7 -34 10q-77 22 -117 89.5t-26 151.5q18 110 104.5 193.5t197.5 99.5l16 99q6 36 42 36h26
q11 0 21 -10q10 -11 7 -26l-16 -99q94 -15 155 -86q31 -37 47 -86t8 -96q-1 -10 -10 -22q-13 -13 -28 -13h-28q-27 0 -29 30q4 64 -32.5 111.5t-97.5 62.5l-60 -379l48 -13q103 -28 158 -112.5t37 -194.5q-20 -129 -118.5 -226.5t-230.5 -119.5l-16 -105q-3 -16 -15 -25
q-13 -10 -25 -10zM436 688l48 -13l56 354q-72 -16 -126.5 -70.5t-65.5 -124.5q-8 -51 16.5 -91.5t71.5 -54.5zM560 547l-74 -465q89 20 158 90t82 157q12 74 -28.5 133t-111.5 77q-5 3 -26 8z" />
    <glyph glyph-name="percent" unicode="%" horiz-adv-x="1093" 
d="M384 631q-67 0 -114.5 38.5t-66 98t-8.5 125.5q17 103 94 182.5t178 79.5t152.5 -79.5t34.5 -182.5q-16 -104 -92.5 -183t-177.5 -79zM313 0h-31q-15 0 -23 11t-6 26q2 9 6 16l661 1080q12 22 36 22h29q15 0 24 -10.5t7 -25.5q-2 -10 -6 -15l-661 -1084q-15 -20 -36 -20z
M400 734q58 0 102 49.5t53 109.5q10 60 -18 109t-87 49t-103 -48.5t-54 -109.5q-9 -60 20.5 -109.5t86.5 -49.5zM809 4q-100 0 -153 79.5t-36 181.5q17 104 93.5 182.5t177.5 78.5t153.5 -79t36.5 -182q-17 -103 -94 -182t-178 -79zM825 107q59 0 103.5 48.5t54.5 109.5
t-19 110t-89 49q-59 0 -102.5 -49t-53.5 -110q-10 -60 19 -109t87 -49z" />
    <glyph glyph-name="ampersand" unicode="&#x26;" horiz-adv-x="863" 
d="M387 -10q-140 0 -222 97t-60 239q16 104 83.5 194t167.5 146l29 17v1l-40 85q-36 68 -24 144q15 97 92.5 169.5t173.5 72.5q97 0 151.5 -72t39.5 -170q-6 -38 -24 -73t-40 -59.5t-56 -50.5t-61.5 -42.5t-68.5 -38.5l-2 -1v-4l179 -352q18 37 26 70q2 14 14 25t26 11h28
q35 0 29 -35q-13 -85 -74 -170l62 -120q5 -11 3 -22q-3 -18 -21 -29l-25 -16q-12 -9 -23 -9q-17 0 -26 18l-45 92q-45 -39 -92 -64h-3q-94 -53 -197 -53zM434 826l49 -94v-1q94 50 141 91q46 37 55 91q8 56 -23 97t-86 41q-56 0 -99 -40.5t-51 -97.5q-8 -41 14 -87zM407 92
q72 0 146 41l3 2q43 21 79 59l-206 405l-23 -13l-11 -6l-1 -1q-75 -41 -127 -108.5t-64 -144.5q-13 -81 26 -143t115 -83q34 -8 63 -8z" />
    <glyph glyph-name="quotesingle" unicode="'" horiz-adv-x="316" 
d="M318 927h-28q-35 0 -29 36l24 156q6 36 41 36h28q37 0 31 -36l-24 -156q-6 -36 -43 -36z" />
    <glyph glyph-name="parenleft" unicode="(" horiz-adv-x="467" 
d="M311 -82h-7q-88 0 -138 65t-36 153l139 882q15 90 85 155t159 65h7q35 0 29 -38l-4 -28q-6 -37 -41 -37h-7q-48 0 -84 -34t-44 -83l-139 -882q-8 -47 18 -81.5t72 -34.5h7q35 0 29 -36l-4 -30q-6 -36 -41 -36z" />
    <glyph glyph-name="parenright" unicode=")" horiz-adv-x="467" 
d="M137 -82h-7q-35 0 -29 36l4 30q6 36 41 36h7q46 0 83.5 35t45.5 81l139 882q8 47 -18.5 82t-72.5 35h-7q-35 0 -29 37l4 28q6 38 41 38h7q88 0 138 -65.5t36 -154.5l-139 -882q-14 -88 -85 -153t-159 -65z" />
    <glyph glyph-name="asterisk" unicode="*" horiz-adv-x="659" 
d="M335 707q-9 0 -16 7l-20 14q-9 12 -8 26q2 9 7 18l107 135l-124 31q-24 6 -20 27q0 2 4 12l8 24q12 25 34 25l5 -1l132 -31l21 130q4 31 35 31h23q32 0 28 -31l-21 -130l139 31l8 1q21 0 27 -24l2 -26l-2 -7q-3 -25 -30 -31l-132 -31l-1 -1l63 -134q4 -10 3 -19
q-1 -13 -18 -25l-21 -14q-12 -6 -20 -6q-14 0 -23 14l-60 131l-103 -131q-14 -15 -27 -15z" />
    <glyph glyph-name="plus" unicode="+" horiz-adv-x="770" 
d="M426 179h-28q-34 0 -27 39l39 249h-239q-9 0 -21 10q-10 13 -7 27l4 28q4 16 16 27q13 10 24 10h239l40 250q6 36 39 36h28q36 0 30 -36l-40 -250h238q35 0 29 -37l-4 -28q-6 -37 -41 -37h-238l-39 -249q-8 -39 -42 -39z" />
    <glyph glyph-name="comma" unicode="," horiz-adv-x="352" 
d="M156 -101q-8 0 -15 3l-23 10q-22 9 -19 31q1 5 5 15l25 49q-13 18 -10 40l4 24q5 23 21 39q20 17 44 17h21q23 0 37 -17q14 -16 9 -39l-4 -24q-2 -12 -6 -18l-54 -105q-13 -25 -35 -25z" />
    <glyph glyph-name="hyphen" unicode="-" horiz-adv-x="637" 
d="M569 465h-351q-12 0 -24 10q-9 12 -6 27l4 30q4 16 16 27q13 10 26 10h351q34 0 28 -37l-4 -30q-6 -37 -40 -37z" />
    <glyph glyph-name="period" unicode="." horiz-adv-x="350" 
d="M183 0h-17q-24 0 -38.5 18t-9.5 42l2 18q5 27 25 41q18 18 43 18h17q25 0 37 -18q16 -16 11 -41l-2 -18q-5 -24 -24.5 -42t-43.5 -18z" />
    <glyph glyph-name="slash" unicode="/" horiz-adv-x="512" 
d="M85 0h-33q-17 0 -25 16q-4 7 -2 21q0 5 3 11l546 1084q14 23 38 23h28q17 0 25 -16q7 -10 5 -22l-3 -10l-547 -1084q-14 -23 -35 -23z" />
    <glyph glyph-name="zero" unicode="0" horiz-adv-x="785" 
d="M394 -2q-146 0 -235 99t-70 244l75 471q27 145 147 245t266 100q145 0 233 -100.5t69 -244.5l-75 -471q-25 -143 -145.5 -243t-264.5 -100zM411 107q102 0 188 70.5t102 171.5l72 455q16 103 -47 173t-166 70q-105 0 -190.5 -69.5t-102.5 -173.5l-72 -455
q-16 -103 48 -172.5t168 -69.5z" />
    <glyph glyph-name="one" unicode="1" horiz-adv-x="368" 
d="M296 0h-31q-34 0 -28 36l146 904l-126 -162q-9 -11 -22 -11h-51q-13 0 -19 8t-4 19q0 6 5 13l246 326q10 22 33 22h34q37 0 31 -36l-171 -1083q-6 -36 -43 -36z" />
    <glyph glyph-name="two" unicode="2" horiz-adv-x="697" 
d="M624 0h-551q-14 0 -23 11t-7 25l14 93q3 12 12 21l569 592q52 49 62 109q13 87 -41.5 147.5t-142.5 60.5q-81 0 -152.5 -53.5t-92.5 -132.5q-10 -32 -40 -32h-28q-14 0 -22.5 11t-6.5 25l1 4q33 121 134 200t223 79q130 0 207.5 -89.5t57.5 -219.5q-15 -96 -89 -170
l-551 -574h484q15 0 23.5 -11t6.5 -27l-5 -33q-3 -15 -15 -24q-12 -12 -27 -12zM157 106l-5 -4q3 0 5 4z" />
    <glyph glyph-name="three" unicode="3" horiz-adv-x="782" 
d="M389 -8q-136 0 -228.5 89t-77.5 223q2 11 10.5 18.5t19.5 7.5h54q10 0 16.5 -7t4.5 -17q-9 -92 57 -152t160 -60q100 0 186 64t102 162q14 91 -45 153t-151 71h-25q-11 0 -17 7.5t-5 17.5l7 37q2 9 10.5 16.5t18.5 7.5h24q92 10 165 68t87 145q14 93 -48 153t-157 60
q-89 0 -168.5 -55.5t-99.5 -142.5q-1 -11 -9.5 -18t-18.5 -7h-50q-11 0 -16.5 7.5t-4.5 18.5q27 129 139.5 211.5t243.5 82.5q137 0 223.5 -87t65.5 -223q-25 -157 -180 -253q66 -42 97.5 -114.5t18.5 -155.5q-23 -141 -144.5 -234.5t-264.5 -93.5z" />
    <glyph glyph-name="four" unicode="4" horiz-adv-x="699" 
d="M504 0h-31q-35 0 -29 36l40 256h-367q-14 0 -23 11.5t-7 25.5l14 86q2 8 6 14l456 704q12 22 34 22h30q15 0 24 -11t7 -26q0 -2 -6 -16l-451 -703h300l32 199q6 37 41 37h31q36 0 30 -37l-31 -197q-2 -2 0 -2h89q34 0 28 -37l-5 -33q-2 -14 -14.5 -25.5t-25.5 -11.5h-90
l-40 -256q-6 -36 -42 -36z" />
    <glyph glyph-name="five" unicode="5" horiz-adv-x="783" 
d="M389 -8q-138 0 -225 92t-79 229v4q2 14 14.5 25t26.5 11h28q33 0 30 -34q-6 -97 58 -161t163 -64q106 0 194 72t104 177q17 105 -48.5 176t-171.5 71h-258q-14 0 -23 11.5t-7 25.5l112 488q9 38 42 38h453q34 0 28 -38l-5 -29q-6 -37 -40 -37h-390q-1 0 -1 -1l-79 -355
q1 1 3 1h182q148 0 237 -102t65 -249q-23 -147 -144 -249t-269 -102z" />
    <glyph glyph-name="six" unicode="6" horiz-adv-x="792" 
d="M393 -4q-148 0 -237 103t-66 250l72 453q23 147 145 250t270 103h2q101 0 176 -53.5t107.5 -140.5t16.5 -188l-4 -28q-6 -36 -40 -36h-32q-13 0 -21 10q-10 12 -7 26l4 28q18 112 -44 192.5t-174 81.5q-106 -2 -191.5 -71.5t-102.5 -173.5l-32 -204l3 -1q117 102 267 102
q147 0 235 -101.5t65 -248.5t-144 -250t-268 -103zM411 105q103 0 188.5 71t101.5 173t-48 171.5t-166 69.5q-104 0 -190 -69t-102 -172q-16 -104 48 -174t168 -70z" />
    <glyph glyph-name="seven" unicode="7" horiz-adv-x="787" 
d="M126 0h-60q-22 0 -19 19q2 10 5 14l752 1017l-1 1h-568q-33 0 -28 38l5 30q6 36 40 36h648q35 0 29 -36l-10 -62q0 -7 -8 -18l-750 -1022q-14 -17 -35 -17z" />
    <glyph glyph-name="eight" unicode="8" horiz-adv-x="782" 
d="M389 -8q-68 0 -128.5 24.5t-103 67.5t-62.5 104.5t-9 131.5q13 82 67 154.5t132 115.5q-122 96 -97 253q21 134 135 222t250 88q137 0 223.5 -87t65.5 -223q-25 -157 -180 -253q66 -42 97.5 -114.5t18.5 -155.5q-23 -141 -144.5 -234.5t-264.5 -93.5zM472 630h38
q92 10 165 68t87 145q14 93 -48 153t-157 60q-94 0 -174.5 -60.5t-95.5 -152.5q-14 -87 41 -145t144 -68zM405 94q100 0 186 64t102 162q14 91 -45 153t-151 71h-40q-95 -9 -173.5 -70.5t-92.5 -153.5q-16 -97 49.5 -161.5t164.5 -64.5z" />
    <glyph glyph-name="nine" unicode="9" horiz-adv-x="792" 
d="M398 -4h-2q-153 0 -239 113.5t-62 268.5l4 28q6 36 40 36h33q11 0 21 -10t7 -26l-4 -28q-18 -112 44.5 -192.5t173.5 -81.5q106 2 192 71.5t102 173.5l32 204l-2 1q-119 -102 -267 -102q-147 0 -235.5 101.5t-65.5 248.5t144 250t268 103t236 -103t66 -250l-72 -453
q-23 -147 -145 -250t-269 -103zM488 561q103 0 189.5 69.5t102.5 171.5q16 104 -47.5 174t-167.5 70q-103 0 -189 -71t-102 -173t47.5 -171.5t166.5 -69.5z" />
    <glyph glyph-name="colon" unicode=":" horiz-adv-x="351" 
d="M252 435h-17q-24 0 -38.5 18t-10.5 42l3 19q4 23 23.5 40t43.5 17h17q24 0 38.5 -17t10.5 -40l-3 -19q-4 -24 -23.5 -42t-43.5 -18zM185 0h-17q-25 0 -38 17.5t-8 42.5l3 20q3 23 22.5 41t42.5 18h17q25 0 37 -18q15 -14 12 -41l-3 -20q-5 -24 -24.5 -42t-43.5 -18z" />
    <glyph glyph-name="semicolon" unicode=";" horiz-adv-x="352" 
d="M256 436h-17q-24 0 -38 18t-10 43l3 19q3 22 22 41q22 16 45 16h17q21 0 37 -16q14 -17 11 -41l-3 -19q-4 -24 -23.5 -42.5t-43.5 -18.5zM159 -89q-9 0 -16 3l-23 11q-24 8 -20 29q2 11 6 17l25 49q-13 18 -9 40l3 22q4 24 22.5 41t42.5 17h21q24 0 37 -17t9 -41l-3 -22
q-2 -10 -7 -20l-54 -104q-12 -25 -34 -25z" />
    <glyph glyph-name="less" unicode="&#x3c;" horiz-adv-x="771" 
d="M720 194q-5 0 -11 3l-555 248q-19 12 -15 34l12 78q4 23 27 34l633 248q8 4 13 4q16 0 13 -22l-9 -54q-3 -24 -26 -34l-538 -214l-3 -1l3 -3l479 -215q11 -7 8 -20l-9 -62q-4 -24 -22 -24z" />
    <glyph glyph-name="equal" unicode="=" horiz-adv-x="771" 
d="M762 561h-574q-36 0 -31 35l5 31q3 14 15 26q16 11 27 11h574q34 0 28 -37l-5 -31q-5 -35 -39 -35zM731 368h-574q-15 0 -23.5 11.5t-6.5 26.5l5 30q6 36 42 36h574q34 0 28 -36l-5 -30q-6 -38 -40 -38z" />
    <glyph glyph-name="greater" unicode="&#x3e;" horiz-adv-x="771" 
d="M112 194q-18 0 -14 24l9 62q3 12 16 20l547 215q3 1 3 3l-2 1l-471 215q-19 10 -16 33l9 54q3 22 22 22q3 0 11 -4l554 -248q19 -10 15 -34l-12 -78q-5 -25 -27 -34l-632 -248q-6 -3 -12 -3z" />
    <glyph glyph-name="question" unicode="?" horiz-adv-x="754" 
d="M431 255h-28q-14 0 -22.5 10.5t-6.5 24.5l2 6q41 167 194 257h1q130 79 155 236q10 66 -6.5 126.5t-63 101t-113.5 40.5q-94 0 -166 -73t-96 -171q-8 -34 -41 -34h-29q-12 0 -23 11q-8 11 -5 24v3q31 137 137 240t240 103q95 0 162 -54.5t92.5 -138.5t10.5 -178
q-15 -98 -73 -186t-147 -139q-105 -62 -131 -175q-10 -34 -43 -34zM387 0h-20q-29 0 -45.5 20t-11.5 49l4 24q5 29 27.5 49t51.5 20h20q29 0 45 -20t11 -49l-4 -24q-5 -30 -26.5 -49.5t-51.5 -19.5z" />
    <glyph glyph-name="at" unicode="@" horiz-adv-x="1111" 
d="M526 -248h-7q-205 0 -324 164q-128 169 -88 420q36 231 203 396q170 171 379 176l7 1q204 0 325 -165q123 -166 90 -405l-2 -8q-18 -119 -78 -232v-1q-53 -89 -141 -90h-3q-91 0 -113 88v2l-2 -1q-96 -95 -217 -97h-4q-87 0 -147.5 49.5t-83 125.5t-9.5 162
q20 127 116.5 226.5t220.5 102.5h4q107 0 179 -80h1l7 44q4 34 38 34h31q31 0 28 -34l-67 -475q-3 -21 7 -33.5t31 -12.5q24 0 41 27q50 103 64 194l1 7q16 118 -15.5 223t-114.5 175.5t-202 71.5h-7q-90 -3 -172.5 -45t-142 -109t-100 -149.5t-54.5 -169.5l-2 -10
q-12 -86 4 -169.5t56 -150.5t110.5 -108.5t160.5 -42.5h7q105 3 208 67q11 6 20 6h48q16 0 24.5 -11t5.5 -27q-1 -15 -17 -25q-147 -108 -304 -111zM566 102h3q85 1 149 71t79 159v4q11 87 -32 157.5t-127 71.5h-4q-85 -2 -148 -72.5t-77 -158.5l-1 -5q-12 -89 30 -157.5
t128 -69.5z" />
    <glyph glyph-name="A" unicode="A" horiz-adv-x="878" 
d="M99 0h-28q-17 0 -27 15q-5 8 -3 22q0 6 3 12l517 1093q12 23 39 23h48q22 0 28 -23l173 -1094q0 -9 -1 -14q-2 -9 -6 -18q-14 -16 -33 -16h-31q-27 0 -30 26l-39 220q-1 10 -12 10h-433q-14 0 -18 -10l-109 -221q-12 -25 -38 -25zM325 360h342q7 0 14 7q4 4 6 10v5
l-92 606v2l-2 -2l-281 -606q-2 -2 -2 -4q-1 -4 3 -11q3 -7 12 -7z" />
    <glyph glyph-name="B" unicode="B" horiz-adv-x="819" 
d="M534 0h-463q-36 0 -30 37l173 1091q6 37 42 37h410q117 0 183.5 -83t48.5 -200q-20 -130 -139 -220q54 -49 74.5 -136t6.5 -172q-7 -44 -24 -91t-45 -94.5t-62.5 -84.5t-80 -60.5t-94.5 -23.5zM265 705h328q73 0 132 52t71 125q11 73 -31.5 125t-115.5 52h-328l-4 -2
l-1 -2h-5q-5 -4 -7 -14l-50 -317q-3 -19 11 -19zM170 107h381q46 0 89.5 46.5t67.5 101.5t31 99q15 91 -23 175q-32 71 -87 71h-381l-12 -1q-3 -4 -4 -12l-73 -463q-3 -17 11 -17z" />
    <glyph glyph-name="C" unicode="C" horiz-adv-x="804" 
d="M404 0h-2q-103 0 -179.5 53.5t-109.5 141.5t-17 190l63 395q16 102 77 190t154.5 141.5t196.5 53.5h2q154 0 241.5 -114.5t62.5 -270.5l-5 -29q-6 -35 -41 -35h-32q-11 0 -22 9q-9 10 -7 26l5 29q18 113 -45.5 196t-175.5 83t-201.5 -83t-107.5 -196l-63 -395
q-18 -113 45.5 -196t175.5 -83q111 0 201 83.5t108 195.5l4 28q2 14 14 25t27 11h32q35 0 29 -36l-4 -28q-26 -157 -148.5 -271t-277.5 -114z" />
    <glyph glyph-name="D" unicode="D" horiz-adv-x="795" 
d="M353 0h-282q-36 0 -30 37l173 1091q6 37 42 37h282q168 0 261 -171q92 -172 53 -411q-38 -240 -183 -411q-147 -172 -316 -172zM170 107h200q125 0 236 138q112 137 144 338q32 199 -38 338q-69 138 -191 138h-200q-7 0 -12 -5t-7 -13l-145 -917q-3 -17 13 -17z" />
    <glyph glyph-name="E" unicode="E" horiz-adv-x="718" 
d="M648 0h-577q-14 0 -23 11.5t-7 25.5l173 1091q1 15 15 27q15 10 27 10h577q35 0 29 -37l-6 -33q-4 -36 -40 -36h-495q-6 0 -11 -5q-4 -6 -6 -11l-59 -371q-1 -15 12 -15h433q36 0 30 -37l-5 -35q-6 -36 -40 -36h-435q-14 0 -17 -16l-64 -409q-3 -17 11 -17h495
q35 0 29 -37l-5 -33q-2 -15 -14 -26t-27 -11z" />
    <glyph glyph-name="F" unicode="F" horiz-adv-x="719" 
d="M102 0h-31q-36 0 -30 37l174 1091q1 15 15 27q15 10 27 10h577q35 0 29 -37l-6 -33q-5 -36 -40 -36h-495q-6 0 -11 -5q-4 -6 -6 -11l-59 -371q-2 -15 12 -15h433q36 0 30 -37l-5 -35q-6 -36 -40 -36h-435q-14 0 -17 -16l-79 -496q-6 -37 -43 -37z" />
    <glyph glyph-name="G" unicode="G" horiz-adv-x="804" 
d="M404 0h-2q-103 0 -179.5 53.5t-109.5 141.5t-17 190l63 395q16 102 77 190t154.5 141.5t196.5 53.5h2q154 0 241.5 -114.5t62.5 -270.5l-5 -29q-6 -35 -41 -35h-32q-11 0 -22 9q-9 10 -7 26l5 29q18 113 -45.5 196t-175.5 83t-201.5 -83t-107.5 -196l-63 -395
q-18 -113 45.5 -196t175.5 -83q98 0 182.5 67t115.5 165l33 211h-272q-36 0 -30 38l5 31q6 39 42 39h342q14 0 22.5 -12.5t6.5 -26.5l-92 -581q-2 -14 -15 -25.5t-26 -11.5h-33q-14 0 -23 11.5t-7 25.5l12 79l-2 -3q-127 -113 -276 -113z" />
    <glyph glyph-name="H" unicode="H" horiz-adv-x="722" 
d="M102 0h-30q-37 0 -31 37l173 1091q6 37 43 37h30q37 0 31 -37l-72 -454q-3 -15 11 -15h418q14 0 17 15l72 454q6 37 42 37h31q35 0 29 -37l-173 -1091q-6 -37 -41 -37h-31q-36 0 -30 37l79 498q2 15 -12 15h-418q-6 0 -11 -4q-5 -10 -5 -11l-79 -498q-6 -37 -43 -37z" />
    <glyph glyph-name="I" unicode="I" horiz-adv-x="174" 
d="M102 0h-31q-36 0 -30 37l173 1091q6 37 42 37h31q37 0 31 -37l-173 -1091q-6 -37 -43 -37z" />
    <glyph glyph-name="J" unicode="J" horiz-adv-x="805" 
d="M402 0h-2q-154 0 -241.5 114.5t-62.5 270.5l4 28q6 36 41 36h32q14 0 22.5 -11t6.5 -25l-4 -28q-18 -113 45.5 -196t175.5 -83t201.5 83t107.5 196l117 743q6 37 42 37h31q37 0 31 -37l-119 -743q-24 -156 -148.5 -270.5t-279.5 -114.5z" />
    <glyph glyph-name="K" unicode="K" horiz-adv-x="735" 
d="M102 0h-31q-36 0 -30 37l173 1093q6 37 42 37h31q37 0 31 -37l-73 -462q-1 -4 3 -12q3 -5 10 -5h138q122 0 235 138q115 140 145 338q6 37 42 37h31q35 0 30 -31l-1 -7q-25 -156 -107 -303.5t-210 -224.5q104 -78 139.5 -225.5t10.5 -303.5l-5 -32q-6 -37 -43 -37h-31
q-21 0 -26.5 9t-1.5 34q35 227 -34 364q-67 137 -191 137h-138q-5 0 -11 -4q-6 -6 -8 -13l-77 -490q-6 -37 -43 -37z" />
    <glyph glyph-name="L" unicode="L" horiz-adv-x="719" 
d="M649 0h-577q-14 0 -23 11.5t-7 25.5l172 1091q6 37 42 37h31q31 0 31 -27h2l-160 -1014q-3 -17 11 -17h495q35 0 29 -37l-5 -33q-2 -15 -14 -26t-27 -11z" />
    <glyph glyph-name="M" unicode="M" horiz-adv-x="886" 
d="M94 0h-26q-33 0 -27 37l173 1091q6 37 39 37h96q21 0 23 -26l95 -989l407 989q11 26 35 26h95q32 0 26 -37l-173 -1091q-6 -37 -38 -37h-27q-31 0 -25 37l155 990l-413 -1001q-10 -26 -35 -26h-61q-26 0 -27 26l-96 1005l-157 -994q-6 -37 -39 -37z" />
    <glyph glyph-name="N" unicode="N" horiz-adv-x="804" 
d="M102 0h-31q-36 0 -30 37l173 1091q6 37 42 37h89q18 0 26 -21l314 -1009l2 -1l1 1l158 993q2 15 14.5 27t27.5 12h31q35 0 29 -39l-173 -1091q-6 -37 -41 -37h-89q-23 0 -28 23l-315 1008v2q-2 0 -2 -2l-157 -994q-6 -37 -41 -37z" />
    <glyph glyph-name="O" unicode="O" horiz-adv-x="804" 
d="M404 0h-2q-103 0 -179.5 53.5t-109.5 141.5t-17 190l63 395q16 102 77 190t154.5 141.5t196.5 53.5h2q154 0 241.5 -114.5t62.5 -270.5l-63 -395q-26 -157 -148.5 -271t-277.5 -114zM419 106q111 0 201 83.5t108 195.5l63 395q18 113 -45.5 196t-175.5 83t-201.5 -83
t-107.5 -196l-63 -395q-18 -113 45.5 -196t175.5 -83z" />
    <glyph glyph-name="P" unicode="P" horiz-adv-x="793" 
d="M102 0h-31q-36 0 -30 37l173 1091q6 37 42 37h410q117 0 183.5 -82.5t48.5 -199.5q-19 -118 -111.5 -200.5t-210.5 -82.5h-328l-12 -1q-3 -4 -4 -12l-87 -550q-6 -37 -43 -37zM265 705h328q73 0 132 52.5t71 125.5q11 72 -32 124t-115 52h-328l-4 -2l-1 -2h-5
q-5 -4 -7 -14l-50 -317q-3 -19 11 -19z" />
    <glyph glyph-name="Q" unicode="Q" horiz-adv-x="813" 
d="M706 -1q-15 0 -19.5 12.5t-6.5 48.5q-1 9 -3.5 24t-3.5 22q-121 -106 -269 -106h-2q-103 0 -179.5 53.5t-109.5 141.5t-17 190l63 395q16 102 77 190t154.5 141.5t196.5 53.5h2q154 0 241.5 -114.5t62.5 -270.5l-63 -395q-17 -102 -71 -181q15 -51 22 -119l4 -31
q0 -9 -1 -13q-3 -25 -33 -32l-31 -8q-10 -2 -14 -2zM419 106q111 0 201 83.5t108 195.5l63 395q18 113 -45.5 196t-175.5 83t-201.5 -83t-107.5 -196l-63 -395q-18 -113 45.5 -196t175.5 -83z" />
    <glyph glyph-name="R" unicode="R" horiz-adv-x="793" 
d="M102 0h-31q-36 0 -30 37l173 1091q6 37 42 37h410q117 0 183.5 -82.5t48.5 -199.5q-14 -91 -80.5 -168t-156.5 -104q78 -89 102 -217t2 -268l-14 -89q-6 -37 -43 -37h-31q-21 0 -26.5 9t-1.5 34l2 7l12 76q15 80 7.5 160.5t-29 146.5t-66 111.5t-103.5 55.5h-224l-12 -1
q-3 -4 -4 -12l-87 -550q-6 -37 -43 -37zM265 705h328q73 0 132 52.5t71 125.5q11 72 -32 124t-115 52h-328l-4 -2l-1 -2h-5q-5 -4 -7 -14l-50 -317q-3 -19 11 -19z" />
    <glyph glyph-name="S" unicode="S" horiz-adv-x="794" 
d="M408 -10q-151 0 -234 83.5t-67 217.5l5 28q2 14 15 25t27 11h36q38 0 33 -36l-4 -25q-14 -88 43 -142t164 -54q106 0 180 54t88 142q12 78 -18.5 125.5t-120.5 78.5l-194 64v1q-224 83 -190 297q22 139 133.5 226.5t265.5 87.5q151 0 237 -84t64 -217l-4 -28
q-2 -14 -15.5 -25t-27.5 -11h-37q-37 0 -31 36l4 25q14 88 -43.5 142t-163.5 54q-107 0 -181.5 -54t-87.5 -142q-13 -80 18.5 -127.5t126.5 -78.5v-1l167 -55q125 -40 177 -115t34 -189q-22 -139 -133.5 -226.5t-265.5 -87.5z" />
    <glyph glyph-name="T" unicode="T" horiz-adv-x="819" 
d="M425 0h-31q-37 0 -31 37l159 1004q3 18 -11 18h-273q-34 0 -30 36l6 33q6 37 41 37h680q34 0 28 -37l-6 -33q-5 -36 -39 -36h-274q-14 0 -17 -18l-159 -1004q-6 -37 -43 -37z" />
    <glyph glyph-name="U" unicode="U" horiz-adv-x="804" 
d="M404 0h-2q-103 0 -179.5 53.5t-109.5 141.5t-17 190l118 743q6 37 42 37h31q35 0 29 -37l-118 -743q-18 -113 45.5 -196t175.5 -83t201.5 83.5t107.5 195.5l118 743q2 15 14 26t27 11h32q35 0 29 -37l-118 -743q-25 -155 -148 -270t-278 -115z" />
    <glyph glyph-name="V" unicode="V" horiz-adv-x="878" 
d="M463 0h-48q-26 0 -31 23l-171 1094q-1 3 1 11q2 12 10 22q15 15 32 15h28q26 0 29 -26l152 -962l1 -2l1 2l457 962q12 26 39 26h31q19 0 27 -16q3 -8 1 -18q-3 -12 -4 -15l-519 -1093q-14 -23 -36 -23z" />
    <glyph glyph-name="W" unicode="W" horiz-adv-x="1163" 
d="M340 0h-86q-25 0 -27 31l-11 1109q3 25 25 25h44q25 0 27 -29l11 -991l367 991q11 29 38 29h77q26 0 28 -29l54 -989l324 989q11 29 37 29h44q20 0 17 -25l-363 -1109q-11 -31 -37 -31h-86q-25 0 -28 28l-53 985l-366 -985q-12 -28 -36 -28z" />
    <glyph glyph-name="X" unicode="X" horiz-adv-x="834" 
d="M112 0h-44q-26 0 -27 30l5 24l405 531v4l-237 544q14 32 39 32h44q15 0 22 -18l201 -452q4 -4 6 -4q4 0 8 4l345 452q13 18 28 18h44q27 0 27 -32l-409 -544v-4l238 -531l-3 -24q-12 -30 -38 -30h-44q-14 0 -22 18l-200 460q-3 5 -7 5t-7 -5l-346 -460q-14 -18 -28 -18z
" />
    <glyph glyph-name="Y" unicode="Y" horiz-adv-x="778" 
d="M404 0h-31q-36 0 -30 37l48 301l-174 794q-2 6 -1 9q3 24 27 24h55q19 0 28 -23l141 -648l347 648q15 23 39 23h53q21 0 18 -24l-1 -4l-429 -793l-48 -308q-12 -36 -42 -36z" />
    <glyph glyph-name="Z" unicode="Z" horiz-adv-x="800" 
d="M728 0h-654q-37 0 -31 37l15 93q1 11 10 20l759 908v1h-589q-34 0 -30 36l6 33q6 37 41 37h656q35 0 29 -37l-15 -93q0 -1 -1 -3.5t-3 -7t-3 -8.5l-760 -909h587q15 0 24 -11q10 -12 7 -26l-5 -33q-6 -37 -43 -37z" />
    <glyph glyph-name="bracketleft" unicode="[" horiz-adv-x="563" 
d="M408 -85h-278q-36 0 -29 38l197 1247q6 38 41 38h265q20 0 31 -14.5t8 -34.5l-2 -17q-6 -37 -40 -37h-213l-177 -1117h213q34 0 28 -37l-4 -28q-7 -38 -40 -38z" />
    <glyph glyph-name="backslash" unicode="\" horiz-adv-x="512" 
d="M457 0h-28q-27 0 -31 26l-202 1081q-2 5 0 11q2 15 13.5 26t25.5 11h33q22 0 27 -23l205 -1084q-1 -4 -1 -11q-2 -14 -15 -25.5t-27 -11.5z" />
    <glyph glyph-name="bracketright" unicode="]" horiz-adv-x="563" 
d="M408 -85h-278q-36 0 -29 38l4 28q6 37 41 37h215l177 1117h-215q-35 0 -29 37l2 17q3 20 19 34.5t36 14.5h266q34 0 28 -38l-197 -1247q-7 -38 -40 -38z" />
    <glyph glyph-name="asciicircum" unicode="^" horiz-adv-x="701" 
d="M230 633h-31q-14 0 -23 11.5t-7 25.5q1 7 8 17l285 447q15 21 35 21h74q23 0 26 -22l146 -446q3 -9 2 -17q-2 -15 -14.5 -26t-28.5 -11h-31q-23 0 -27 21l-127 394l-252 -394q-11 -21 -35 -21zM516 1051l-2 6q0 -6 2 -6zM523 1057l-4 -6q4 0 4 6z" />
    <glyph glyph-name="underscore" unicode="_" horiz-adv-x="637" 
d="M482 -83h-351q-36 0 -30 36l4 29q2 15 14.5 26.5t27.5 11.5h351q34 0 28 -38l-4 -29q-6 -36 -40 -36z" />
    <glyph glyph-name="grave" unicode="`" horiz-adv-x="253" 
d="M306 927h-10q-25 0 -28 22l-43 207q-2 8 -1 11q2 15 20 25.5t36 10.5q23 0 29 -17l54 -208q1 -4 1 -14q-7 -37 -58 -37z" />
    <glyph glyph-name="a" unicode="a" horiz-adv-x="562" 
d="M281 -3q-104 0 -161 76q-62 73 -45 182l39 242q17 109 101 181q82 77 187 77q80 0 137 -51v6q6 37 41 37h27q38 0 32 -37l-106 -674q-6 -36 -44 -36h-27q-35 0 -29 36l2 12q-73 -51 -154 -51zM297 104q56 0 108 44q49 45 58 107l39 242q10 61 -24 107q-39 44 -94 44
q-60 0 -108.5 -45t-57.5 -106l-39 -242q-9 -61 24.5 -106t93.5 -45z" />
    <glyph glyph-name="b" unicode="b" horiz-adv-x="562" 
d="M280 -3q-83 0 -137 51l-2 -12q-6 -36 -41 -36h-28q-37 0 -31 36l171 1083q6 36 43 36h28q35 0 29 -36l-65 -415q70 51 154 51q103 0 160 -77q62 -73 45 -181l-39 -242q-17 -107 -101 -182q-82 -76 -186 -76zM297 104q60 0 108.5 45t57.5 106l39 242q9 61 -24.5 106
t-93.5 45q-56 0 -108 -44q-48 -45 -58 -107l-39 -242q-9 -64 24 -107q39 -44 94 -44z" />
    <glyph glyph-name="c" unicode="c" horiz-adv-x="562" 
d="M281 -3q-104 0 -161 76q-62 73 -45 182l39 242q17 109 101 181q82 77 187 77q102 0 161 -77t43 -181l-3 -17q-6 -44 -50 -44h-19q-8 0 -20 7l-4 2q-14 11 -11 35l3 17q10 61 -24 107q-39 44 -94 44q-60 0 -108.5 -45t-57.5 -106l-39 -242q-9 -61 24.5 -106t93.5 -45
q56 0 108 44q49 45 58 107l3 16q3 25 23 36l4 2q10 6 22 6h19q42 0 36 -44l-3 -16q-16 -104 -99.5 -181t-186.5 -77z" />
    <glyph glyph-name="d" unicode="d" horiz-adv-x="562" 
d="M281 -3q-104 0 -161 76q-62 73 -45 182l39 242q17 109 101 181q82 77 187 77q80 0 137 -51l65 415q6 36 41 36h27q38 0 32 -36l-171 -1083q-6 -36 -44 -36h-27q-35 0 -29 36l2 12q-73 -51 -154 -51zM297 104q56 0 108 44q49 45 58 107l39 242q10 61 -24 107
q-39 44 -94 44q-60 0 -108.5 -45t-57.5 -106l-39 -242q-9 -61 24.5 -106t93.5 -45z" />
    <glyph glyph-name="e" unicode="e" horiz-adv-x="562" 
d="M281 -3q-104 0 -161 76q-62 73 -45 182l39 242q17 109 101 181q82 77 187 77q102 0 161 -77t43 -181l-19 -118q-1 -10 -10 -17t-19 -7l-359 -1q-3 0 -5 -5l-15 -94q-9 -61 24.5 -106t93.5 -45q56 0 108 44q49 45 58 107l3 16q3 25 23 36l4 2q10 6 22 6h19q42 0 36 -44
l-3 -16q-16 -104 -99.5 -181t-186.5 -77zM215 456l275 1q6 0 6 5l6 35q10 61 -24 107q-39 44 -94 44q-60 0 -108.5 -45t-57.5 -106l-6 -36q0 -3 3 -5z" />
    <glyph glyph-name="f" unicode="f" horiz-adv-x="396" 
d="M197 -5h-28q-35 0 -29 37l94 596q2 4 -3 4h-62q-34 0 -28 38l5 28q6 37 39 37h62q5 0 5 5l27 170q14 84 77 149t147 75l4 1q11 0 20 -9q11 -12 8 -29l-5 -28q-5 -32 -35 -37q-44 -7 -77.5 -42.5t-40.5 -79.5l-27 -169q0 -5 5 -5h62q35 0 29 -37l-5 -28q-6 -38 -41 -38
l-66 -1h-1l-95 -600q-6 -37 -41 -37z" />
    <glyph glyph-name="g" unicode="g" horiz-adv-x="596" 
d="M214 -450q-106 0 -161 76q-62 73 -45 181l1 4q15 97 83 165q-16 48 -9 98l1 5q11 70 56 118l-1 1q-61 72 -44 181l19 118q17 109 101 181q82 77 187 77q11 0 29 -2h214q35 0 29 -38l-4 -28q-6 -35 -41 -35h-46v-2q36 -70 23 -153l-19 -118q-17 -104 -100.5 -180.5
t-186.5 -76.5q-46 0 -84 15q-23 -23 -29 -64q-4 -18 -1 -28q52 24 111 24q103 0 161.5 -77t41.5 -181l-1 -4q-16 -104 -99 -180.5t-186 -76.5zM317 228q55 0 108 44q48 45 58 107l19 118q10 61 -24 107q-39 44 -94 44q-60 0 -108.5 -45t-57.5 -106l-19 -118
q-9 -61 24.5 -106t93.5 -45zM231 -343q55 0 107 43q50 48 58 107l1 4q10 59 -24 107q-38 44 -94 44q-60 0 -108 -45t-58 -106l-1 -4q-9 -61 25 -105.5t94 -44.5z" />
    <glyph glyph-name="h" unicode="h" horiz-adv-x="562" 
d="M100 0h-28q-37 0 -31 36l171 1083q6 36 43 36h28q35 0 29 -36l-65 -415q70 51 154 51q105 -2 160 -77q62 -73 45 -181l-77 -461q-6 -36 -42 -36h-27q-37 0 -31 36l73 461q9 61 -24.5 106t-93.5 45q-56 0 -108 -44q-48 -45 -58 -107l-77 -461q-6 -36 -41 -36z" />
    <glyph glyph-name="i" unicode="i" horiz-adv-x="192" 
d="M238 890q-26 0 -41.5 18t-10.5 44q4 27 24.5 46.5t47.5 19.5q26 0 40 -19.5t10 -46.5q-5 -26 -25 -44t-45 -18zM110 0h-28q-36 0 -30 36l105 665q1 9 14 24q14 11 28 11h28q14 0 23 -11q8 -10 6 -24l-105 -665q-6 -36 -41 -36z" />
    <glyph glyph-name="j" unicode="j" horiz-adv-x="212" 
d="M258 890q-26 0 -40.5 19t-10.5 45t24.5 45t46.5 19t40.5 -18.5t9.5 -45.5q-4 -27 -24 -45.5t-46 -18.5zM-86 -403l-4 -1q-12 0 -21 9q-10 13 -7 29l4 28q6 34 35 37q44 7 77.5 42.5t41.5 79.5l139 878q6 37 41 37h28q35 0 29 -37l-139 -878q-14 -83 -77.5 -148.5
t-146.5 -75.5z" />
    <glyph glyph-name="k" unicode="k" horiz-adv-x="570" 
d="M102 0h-32q-35 0 -29 36l148 939q6 37 41 37h32q36 0 30 -37l-78 -498q-2 -6 2 -13q5 -5 11 -5h23q39 0 98.5 42t100.5 95q48 59 79 122q8 17 25 17h53q12 0 18 -7.5t4 -18.5q0 -5 -2 -8q-41 -89 -105 -168.5t-141 -126.5q76 -57 117 -160.5t43 -215.5v-5q-1 -11 -10 -18
t-20 -7h-53q-9 0 -15 5.5t-5 14.5q-5 110 -48 197q-26 54 -72 95.5t-84 41.5h-23q-5 0 -12 -5q-6 -7 -7 -13l-47 -300q-6 -36 -42 -36z" />
    <glyph glyph-name="l" unicode="l" horiz-adv-x="170" 
d="M98 0h-28q-35 0 -29 36l171 1083q6 36 41 36h28q37 0 31 -36l-171 -1083q-6 -36 -43 -36z" />
    <glyph glyph-name="m" unicode="m" horiz-adv-x="944" 
d="M100 0h-28q-37 0 -31 36l109 693q2 10 10.5 17.5t18.5 7.5h50q10 0 16.5 -7.5t4.5 -17.5l-3 -25q70 51 154 51q103 -2 161 -76q7 -12 17 -23q7 8 23 22q80 77 181 77h5q100 0 155 -77q62 -71 45 -177l-77 -465q-6 -36 -41 -36h-27q-37 0 -31 36l73 461q9 60 -24 105.5
t-92 45.5q-52 0 -102.5 -41t-58.5 -93l-76 -478q-6 -36 -44 -36h-28q-37 0 -31 36l74 477q9 53 -28.5 94t-90.5 41q-56 0 -108 -44q-48 -45 -58 -107l-77 -461q-6 -36 -41 -36z" />
    <glyph glyph-name="n" unicode="n" horiz-adv-x="562" 
d="M100 0h-28q-37 0 -31 36l109 693q2 10 10.5 17.5t18.5 7.5h50q10 0 16.5 -7.5t4.5 -17.5l-3 -25q70 51 154 51q105 -2 160 -77q62 -73 45 -181l-77 -461q-6 -36 -42 -36h-27q-37 0 -31 36l73 461q9 61 -24.5 106t-93.5 45q-56 0 -108 -44q-48 -45 -58 -107l-77 -461
q-6 -36 -41 -36z" />
    <glyph glyph-name="o" unicode="o" horiz-adv-x="562" 
d="M281 -3q-104 0 -161 76q-62 73 -45 182l39 242q17 109 101 181q82 77 187 77q102 0 161 -77t43 -181l-39 -242q-16 -104 -99.5 -181t-186.5 -77zM297 104q56 0 108 44q49 45 58 107l39 242q10 61 -24 107q-39 44 -94 44q-60 0 -108.5 -45t-57.5 -106l-39 -242
q-9 -61 24.5 -106t93.5 -45z" />
    <glyph glyph-name="p" unicode="p" horiz-adv-x="562" 
d="M37 -400h-28q-37 0 -32 36l172 1082q6 37 43 37h28q35 0 29 -37l-2 -11q69 50 154 50q105 0 161 -76q61 -73 44 -181l-38 -243q-19 -109 -102 -181q-81 -76 -186 -76q-82 0 -137 51l-66 -415q-5 -36 -40 -36zM298 107q60 0 108 44.5t58 105.5l38 243q10 61 -24 106
t-94 45q-55 0 -108 -44q-48 -45 -58 -107l-38 -243q-10 -61 24 -107q38 -43 94 -43z" />
    <glyph glyph-name="q" unicode="q" horiz-adv-x="562" 
d="M426 -400h-27q-35 0 -30 36l66 415q-72 -51 -154 -51q-105 0 -161 76q-61 73 -44 181l38 243q17 110 102 181q81 76 186 76q81 0 137 -50l2 11q6 37 41 37h27q38 0 32 -37l-172 -1082q-5 -36 -43 -36zM298 107q54 0 108 43q48 45 58 107l38 243q10 61 -24 107
q-38 44 -94 44q-60 0 -108 -45t-58 -106l-38 -243q-10 -61 24 -105.5t94 -44.5z" />
    <glyph glyph-name="r" unicode="r" horiz-adv-x="404" 
d="M100 0h-28q-37 0 -31 36l109 693q2 10 10.5 17.5t18.5 7.5h50q10 0 16.5 -7.5t4.5 -17.5l-3 -25q70 51 154 51q33 0 71 -12q15 -6 12 -22l-9 -56q-5 -28 -32 -28q-8 0 -12 2q-23 9 -47 9q-56 0 -108 -44q-48 -45 -58 -107l-77 -461q-6 -36 -41 -36z" />
    <glyph glyph-name="s" unicode="s" horiz-adv-x="544" 
d="M279 -4q-98 0 -153 56t-44 144l3 18q3 20 20 30q15 10 27 10h21q41 0 35 -40l-3 -16q-7 -45 23 -72.5t88 -27.5q57 0 95 27.5t45 72.5q8 44 -8.5 67t-65.5 38l-113 38q-152 55 -128 200q14 91 87.5 149.5t174.5 58.5q100 0 155 -56t42 -144l-3 -18q-3 -22 -21 -30
q-13 -10 -26 -10h-21q-41 0 -35 40l3 16q7 45 -23 72.5t-88 27.5q-57 0 -95 -27.5t-45 -72.5q-8 -44 10 -68t70 -40l98 -33q161 -52 137 -202q-14 -91 -87.5 -149.5t-174.5 -58.5z" />
    <glyph glyph-name="t" unicode="t" horiz-adv-x="443" 
d="M373 0h-21q-91 0 -144 68t-38 160l64 403q0 2 -3 2h-62q-34 0 -28 38l5 28q6 37 40 37h62q3 0 3 2l38 240q6 38 42 38h27q15 0 24 -11.5t7 -26.5l-36 -237q0 -5 5 -5h107q34 0 28 -37l-5 -28q-6 -38 -40 -38h-107q-2 0 -8 -6l-63 -399q-8 -51 20 -88t78 -37h21
q36 0 30 -36l-5 -29q-6 -38 -41 -38z" />
    <glyph glyph-name="u" unicode="u" horiz-adv-x="562" 
d="M281 0q-105 0 -161 76q-61 73 -44 181l77 461q6 37 41 37h28q37 0 31 -37l-73 -461q-10 -61 24 -105.5t94 -44.5q54 0 108 43q48 45 58 107l77 461q6 37 41 37h27q38 0 32 -37l-110 -692q-1 -10 -10 -17.5t-19 -7.5h-51q-10 0 -15.5 7.5t-4.5 17.5l4 25q-72 -51 -154 -51
z" />
    <glyph glyph-name="v" unicode="v" horiz-adv-x="613" 
d="M343 0h-72q-25 0 -28 26l-94 675q-2 9 -1 13q2 11 9 20q13 16 30 16h29q24 0 27 -26l82 -599l2 -2l274 601q10 26 35 26h28q13 0 21.5 -12t6.5 -26q-3 -8 -4 -10l-309 -676q-12 -26 -36 -26z" />
    <glyph glyph-name="w" unicode="w" horiz-adv-x="912" 
d="M297 0h-77q-22 0 -28 28l-47 661q0 7 1 10q2 15 13.5 26t25.5 11h29q26 0 26 -28l43 -562l1 1l219 561q9 28 38 28h63q27 0 28 -28l43 -565v1l221 564q9 28 37 28h28q14 0 21.5 -11t5.5 -26q0 -1 -0.5 -3l-1 -4t-1.5 -3l-259 -661q-8 -28 -34 -28h-79q-23 0 -29 28
l-38 540l-212 -540q-13 -28 -37 -28z" />
    <glyph glyph-name="x" unicode="x" horiz-adv-x="571" 
d="M97 0h-31q-14 0 -20.5 11t-4.5 26q1 9 8 21l239 308v2l-139 311q-5 8 -3 19t7 17q9 21 31 21h31q18 0 24 -16l119 -263l204 264q15 15 30 15h30q14 0 21 -11t5 -26q-1 -8 -9 -20l-240 -310l140 -311q5 -9 3 -20q-1 -5 -7 -17q-11 -21 -31 -21h-30q-19 0 -25 16l-120 263
l-204 -264q-14 -15 -28 -15z" />
    <glyph glyph-name="y" unicode="y" horiz-adv-x="610" 
d="M27 -403l-4 -1q-13 0 -22 9q-10 13 -7 29l4 28q6 33 35 37q68 14 102 77l121 255l2 12l-113 645q0 8 1 11q2 15 13.5 26t25.5 11h31q26 0 29 -24l89 -515l1 -2l2 2l254 515q7 24 36 24h30q19 0 27 -15q4 -8 2 -19q-2 -8 -4 -14l-460 -946q-64 -123 -195 -145z" />
    <glyph glyph-name="z" unicode="z" horiz-adv-x="545" 
d="M479 0h-412q-14 0 -21 12t-5 26l14 89q2 11 11 24l452 480h-318q-32 0 -26 38l5 30q6 37 38 37h378q14 0 21 -11.5t5 -25.5l-14 -89q-3 -14 -12 -25l-455 -482h355q32 0 26 -36l-5 -29q-6 -38 -37 -38z" />
    <glyph glyph-name="braceleft" unicode="{" horiz-adv-x="550" 
d="M393 -83h-6q-89 0 -138 64.5t-34 154.5l49 312q4 27 -9 48t-37 28q-26 5 -21 35l5 36q5 26 32 35q25 7 46 28q20 22 25 48l49 312q15 89 84.5 154.5t157.5 65.5h6q36 0 30 -36l-4 -30q-6 -37 -42 -37h-6q-44 0 -84 -34q-38 -36 -45 -83l-49 -312q-12 -72 -69 -126l-2 -3
l1 -1q41 -53 29 -128l-49 -312q-8 -47 18.5 -81.5t72.5 -34.5h6q36 0 30 -38l-4 -29q-6 -36 -42 -36z" />
    <glyph glyph-name="bar" unicode="|" horiz-adv-x="316" 
d="M121 -315h-28q-35 0 -29 37l198 1251q6 36 41 36h28q37 0 31 -36l-198 -1251q-6 -37 -43 -37z" />
    <glyph glyph-name="braceright" unicode="}" horiz-adv-x="550" 
d="M137 -83h-7q-35 0 -29 36l4 29q6 38 41 38h7q46 0 83.5 35t45.5 81l50 312q12 72 70 129l-1 2q-40 54 -28 127l49 312q8 47 -18 82t-72 35h-9q-35 0 -29 37l4 30q6 36 41 36h9q88 0 137.5 -65.5t34.5 -154.5l-49 -312q-5 -26 8 -47.5t38 -28.5q24 -8 19 -35l-5 -36
q-5 -29 -32 -35q-24 -6 -45 -28q-19 -19 -24 -48l-49 -312q-15 -90 -85 -154.5t-159 -64.5z" />
    <glyph glyph-name="asciitilde" unicode="~" horiz-adv-x="824" 
d="M617 348q-97 0 -150 93q-12 28 -21 56l-3 7l-2 3q-4 10 -4 11l-1 2l-2 8l-3 5l-1 3l-2 4l-4 6l-3 5l-2 5l-6 7l-6 6l-8 5l-9 4q-16 7 -39 9q-49 -2 -80 -40l-2 -1q-28 -34 -33 -65q-4 -24 7 -51q3 -10 2 -12q-3 -20 -24 -20h-53q-44 0 -30 87q13 81 81.5 142.5
t149.5 61.5q68 0 108 -38.5t64 -108.5q27 -71 56 -84q23 -9 42 -9q41 0 72 34l8 9q29 34 33 66q4 25 -6 49q-2 6 -1 11l2 9q10 13 21 13h52q25 0 30 -25q5 -33 -1 -63q-11 -67 -61.5 -123t-117.5 -74q-25 -7 -53 -7z" />
    <glyph glyph-name="exclamdown" unicode="&#xa1;" horiz-adv-x="371" 
d="M177 -150h-28q-35 0 -29 36l131 827q6 37 41 37h28q34 0 28 -37l-131 -827q-6 -36 -40 -36zM134 -405h-23q-28 0 -44.5 20.5t-11.5 48.5l4 24q4 27 27 48t51 21h23q28 0 43 -20t11 -49l-4 -24q-5 -28 -27 -48.5t-49 -20.5z" />
    <glyph glyph-name="cent" unicode="&#xa2;" horiz-adv-x="703" 
d="M357 -152h-29q-34 0 -28 36l18 118q0 2 -1 2q-117 24 -171 129.5t-34 234.5q20 127 107.5 230t211.5 131l3 1l18 119q6 35 40 35h29q36 0 30 -35l-18 -115q134 -23 195 -151q5 -9 3 -20q0 -2 -6 -16q-15 -21 -36 -21h-33q-19 0 -27 15q-41 71 -113 87l-14 5l12 -5l2 -1
l-82 -522q92 18 160 111q11 18 35 18h31q15 0 23 -11t6 -26q-1 -7 -7 -17q-106 -156 -265 -181l-18 -115q-6 -36 -42 -36zM332 108h3l82 515l-1 -1q-81 -24 -136.5 -97t-69.5 -157q-13 -88 18 -159t104 -101z" />
    <glyph glyph-name="sterling" unicode="&#xa3;" horiz-adv-x="923" 
d="M835 0h-662q-34 0 -28 36l67 424l-1 1h-50q-34 0 -28 36l4 29q6 37 40 37h51l25 154q17 110 79 209.5t162 164t212 64.5q161 0 254 -131q9 -14 35 -65q4 -8 2 -18q-2 -16 -14.5 -26t-28.5 -10h-33q-17 0 -24 16l-21 34q-72 98 -186 98q-128 0 -223.5 -102t-116.5 -234
l-25 -154h331q34 0 28 -37l-4 -29q-6 -36 -40 -36h-331l-57 -359h599q34 0 28 -36l-4 -30q-6 -36 -40 -36z" />
    <glyph glyph-name="currency" unicode="&#xa4;" horiz-adv-x="967" 
d="M127 123q-13 0 -22 14l-17 20q-10 12 -8 26q1 11 17 25l178 161l-1 2q-39 93 -21 207q16 111 86 205l3 4l-129 160q-9 11 -7 26q1 11 15 25l23 20q16 14 27 14q15 0 23 -14l125 -154v1q101 80 216 80q108 0 188 -80l172 153q14 13 27 13q14 0 23 -13l16 -20q10 -11 8 -25
q-1 -13 -16 -26l-179 -162v-3q40 -93 24 -204q-18 -111 -89 -206v-2l127 -162q10 -11 8 -25q-1 -11 -16 -26l-22 -20q-14 -13 -27 -13q-14 0 -23 13l-125 153v1q-102 -82 -213 -82q-113 0 -189 82l-1 1q0 -1 -1 -2l-172 -153q-14 -14 -28 -14zM534 310q109 0 208 123
q45 66 59 145q11 73 -14 143q-57 123 -168 123q-100 0 -175.5 -81.5t-91.5 -184.5q-17 -103 32.5 -185.5t149.5 -82.5z" />
    <glyph glyph-name="yen" unicode="&#xa5;" horiz-adv-x="774" 
d="M402 0h-33q-34 0 -28 38l16 104q2 2 0 2h-114q-34 0 -28 36l4 30q2 14 14 25t26 11h114l1 1l14 85l-1 1h-114q-34 0 -28 37l4 29q6 36 40 36h75q3 0 3 1l-1 1l-149 687l-2 4q3 27 27 27h52q22 0 30 -22l141 -642l343 642q17 22 39 22h52q22 0 18 -22v-4l-72 -133
l-60 -110q-15 -30 -49 -93t-51 -96q-87 -164 -141 -259l1 -3h79q34 0 28 -36l-4 -29q-6 -37 -40 -37h-116l-1 -1l-14 -85q0 -1 1 -1h116q14 0 22 -11t6 -25l-4 -30q-6 -36 -40 -36h-116l-2 -2l-16 -107q-12 -35 -42 -35z" />
    <glyph glyph-name="brokenbar" unicode="&#xa6;" horiz-adv-x="316" 
d="M237 415h-28q-36 0 -30 35l83 523q6 36 41 36h28q37 0 31 -36l-83 -523q-6 -35 -42 -35zM122 -307h-28q-35 0 -29 37l83 521q6 37 41 37h28q15 0 24 -11t7 -26l-83 -521q-2 -15 -15 -26t-28 -11z" />
    <glyph glyph-name="section" unicode="&#xa7;" horiz-adv-x="520" 
d="M279 -4q-98 0 -153 56t-44 144l3 18q3 20 20 30q15 10 27 10h21q41 0 35 -40l-3 -16q-7 -45 23 -72.5t88 -27.5q57 0 95 27.5t45 72.5q8 44 -8.5 67t-65.5 38l-113 38q-152 55 -128 200q9 56 41 100.5t81 71.5q-86 56 -68 171q14 91 87.5 149.5t174.5 58.5
q100 0 155.5 -56t41.5 -144l-3 -18q-2 -16 -16.5 -28t-30.5 -12h-21q-41 0 -35 40l3 16q7 45 -23 72.5t-87 27.5t-95.5 -27.5t-45.5 -72.5t10.5 -68.5t69.5 -39.5l99 -33q161 -52 137 -202q-18 -113 -124 -173q88 -55 69 -170q-14 -91 -87.5 -149.5t-174.5 -58.5zM350 441
q93 0 129 63q-8 10 -5 27l3 16q7 45 -23 72.5t-88 27.5q-92 0 -129 -63q8 -11 5 -27l-2 -16q-8 -45 22 -72.5t88 -27.5z" />
    <glyph glyph-name="dieresis" unicode="&#xa8;" horiz-adv-x="524" 
d="M314 1027h-17q-24 0 -38.5 18t-10.5 41l3 19q4 24 23.5 41t43.5 17h17q24 0 38.5 -17t10.5 -41l-3 -19q-4 -24 -23.5 -41.5t-43.5 -17.5zM517 1027h-18q-23 0 -37.5 18t-10.5 41l3 19q4 24 23.5 41t42.5 17h18q24 0 38.5 -17t10.5 -41l-3 -19q-4 -24 -23.5 -41.5
t-43.5 -17.5z" />
    <glyph glyph-name="copyright" unicode="&#xa9;" horiz-adv-x="1119" 
d="M467 -2q-145 0 -250 99t-109 244v471q4 145 108.5 245t250.5 100q145 0 249 -100.5t107 -244.5v-471q-3 -143 -107.5 -243t-248.5 -100zM467 107q102 0 177 70.5t75 171.5v455q0 103 -74.5 173t-177.5 70q-105 0 -179.5 -69.5t-74.5 -173.5v-455q0 -103 75 -172.5
t179 -69.5zM472 310q-75 0 -127.5 56t-52.5 131v161q0 76 52.5 131.5t128.5 55.5q75 0 126.5 -55.5t51.5 -131.5v-12q0 -19 -12.5 -32t-31.5 -13h-14q-18 0 -31 13.5t-13 31.5v12q0 36 -23 58q-24 25 -54 25q-31 0 -55 -25q-23 -23 -23 -58v-161q0 -35 23 -58q24 -25 55 -25
q30 0 54 25q23 22 23 58v12q0 17 13.5 31t30.5 14h14q19 0 31.5 -13t12.5 -32v-12q0 -76 -51.5 -131.5t-127.5 -55.5z" />
    <glyph glyph-name="ordfeminine" unicode="&#xaa;" horiz-adv-x="399" 
d="M246 292q-74 0 -115 55q-43 51 -31 129l27 169q13 80 72 130q59 54 133 54q54 0 93 -33q5 27 31 27h20q28 0 24 -28l-75 -472q-5 -29 -32 -29h-20q-28 0 -23 29v2q-50 -33 -104 -33zM259 373q37 0 73 30q33 30 39 73l27 169q8 44 -16 73q-25 30 -64 30q-42 0 -74 -30.5
t-39 -72.5l-27 -169q-6 -42 16.5 -72.5t64.5 -30.5z" />
    <glyph glyph-name="guillemotleft" unicode="&#xab;" horiz-adv-x="666" 
d="M320 54q-10 0 -14 7l-194 248q-7 13 -5 25l7 46q3 15 13 25l272 247q8 8 17 8l6 -1q13 -4 11 -22l-12 -78q-4 -16 -14 -25l-192 -175l-2 -2q1 0 1 -1l138 -176q7 -12 4 -26l-12 -79q-3 -21 -24 -21zM545 54q-10 0 -14 7l-194 248q-7 13 -5 25l7 46q3 15 13 25l272 247
q8 8 17 8l6 -1q15 -5 12 -22l-12 -78q-2 -7 -14 -24l-193 -176l-2 -2q1 0 1 -1l137 -177q8 -14 6 -25l-12 -79q-3 -21 -25 -21z" />
    <glyph glyph-name="uni00AD" unicode="&#xad;" horiz-adv-x="637" 
d="M569 465h-351q-12 0 -24 10q-9 12 -6 27l4 30q4 16 16 27q13 10 26 10h351q34 0 28 -37l-4 -30q-6 -37 -40 -37z" />
    <glyph glyph-name="registered" unicode="&#xae;" horiz-adv-x="857" 
d="M468 321q-104 0 -179 72t-78 176v334q3 103 78 175.5t179 72.5q103 0 180 -73.5t77 -175.5v-333q0 -103 -76.5 -175.5t-180.5 -72.5zM468 405q72 0 124.5 48.5t52.5 119.5v324q0 72 -52 121.5t-125 49.5t-125 -49t-52 -122v-324q0 -71 52.5 -119.5t124.5 -48.5zM391 553
h-9q-31 0 -31 31v305q0 30 31 30h116q41 0 69 -28.5t28 -69.5q0 -43 -27 -70q-6 -8 -15 -13l2 -3l-1 1q37 -49 37 -127v-25q0 -31 -30 -31h-9q-30 0 -30 32v24q0 42 -16 74t-39 37h-44v-136q0 -14 -9 -22.5t-23 -8.5zM427 848h-4v-56h75q11 0 16 8l2 2q9 6 9 19q0 11 -9 17
l-1 2q-9 9 -17 9z" />
    <glyph glyph-name="degree" unicode="&#xb0;" horiz-adv-x="437" 
d="M345 811q-69 0 -107.5 51t-27.5 121t65.5 120.5t124.5 51.5q70 -1 109.5 -51t28.5 -121t-67 -121.5t-126 -50.5zM361 912q29 0 52 21t28 50t-11.5 49.5t-45.5 20.5q-28 0 -49.5 -21t-26.5 -49q-5 -29 10 -50t43 -21z" />
    <glyph glyph-name="uni00B2" unicode="&#xb2;" horiz-adv-x="309" 
d="M416 962h-219q-12 0 -19.5 9t-5.5 21l6 36q1 8 9 18l226 234q17 18 19 33q4 28 -13 47t-46 19q-59 0 -80 -61q-6 -19 -28 -24h-17q-15 0 -20.5 9.5t-3.5 20.5q4 23 21 48t38 42q45 36 102 36q59 0 93 -40.5t25 -96.5q-7 -43 -40 -77l-148 -153q-29 -29 -40 -41l-7 -7h160
q24 0 26 -25l-3 -18q-2 -12 -12.5 -21t-22.5 -9z" />
    <glyph glyph-name="uni00B3" unicode="&#xb3;" horiz-adv-x="343" 
d="M324 968q-60 0 -102 40.5t-33 98.5q3 15 18 22q2 1 11 4l5 1q3 0 7 -0.5t5 -0.5q10 -1 15 -2t9 -6t4 -14q0 -33 19.5 -52.5t53.5 -19.5t63 21.5t33 52.5q4 27 -15 49t-49 24h-4q-9 0 -11 1q-21 5 -17 24l-1 3l1 6q0 2 2 6q3 9 6 13q12 12 23 12q33 0 60.5 19.5t31.5 48.5
t-16 49t-52 20q-31 0 -55 -17.5t-34 -47.5q-6 -22 -29 -22h-20q-11 0 -17 7.5t-4 17.5q9 55 60.5 93.5t109.5 38.5q62 0 100 -39.5t28 -99.5q-9 -58 -61 -99q46 -40 35 -107q-10 -61 -63 -103t-117 -42z" />
    <glyph glyph-name="acute" unicode="&#xb4;" horiz-adv-x="278" 
d="M240 927h-10q-21 0 -35 9t-11 28q0 7 5 15l120 207q11 17 35 17q18 0 32 -10.5t12 -25.5q-2 -8 -5 -10l-109 -208q-9 -22 -34 -22z" />
    <glyph glyph-name="paragraph" unicode="&#xb6;" horiz-adv-x="759" 
d="M304 0h-29q-35 0 -29 36l107 678q-81 7 -122.5 71.5t-28.5 149.5q14 88 80 154t151 66h366q14 0 22.5 -11t6.5 -25l-5 -30q-5 -38 -41 -38h-42l-160 -1015q-6 -36 -41 -36h-28q-35 0 -29 36l160 1014q0 1 -2 1h-133l-1 -1l-160 -1014q-6 -36 -42 -36z" />
    <glyph glyph-name="periodcentered" unicode="&#xb7;" horiz-adv-x="381" 
d="M281 492h-25q-30 0 -47 21.5t-12 51.5l4 25q5 30 29 51t53 21h25q29 0 45.5 -21.5t11.5 -50.5l-4 -25q-5 -29 -28 -51t-52 -22z" />
    <glyph glyph-name="cedilla" unicode="&#xb8;" horiz-adv-x="208" 
d="M95 -243q-51 0 -81 39t-23 86q3 21 18.5 31.5t33.5 10.5h4q30 0 35 -35l4 -22q0 -6 4 -12q6 -9 19 -9q14 0 25.5 13.5t14.5 31.5q3 29 -15 43l-29 33q-17 33 -12 64q6 39 50 39q40 0 42 -44q-1 -6 2 -9q0 -4 8 -10q54 -41 43 -116q-8 -51 -47.5 -92.5t-95.5 -41.5z" />
    <glyph glyph-name="uni00B9" unicode="&#xb9;" horiz-adv-x="178" 
d="M286 960h-13q-28 0 -24 30l48 301l-12 -16q-8 -12 -24 -12h-20q-11 0 -17.5 7t-5.5 19q2 8 5 12l98 129l2 4l5 5q13 8 21 8h14q14 0 21 -8.5t5 -21.5l-67 -427q-5 -30 -36 -30z" />
    <glyph glyph-name="ordmasculine" unicode="&#xba;" horiz-adv-x="399" 
d="M245 282q-74 0 -116 54q-42 51 -30 129l26 169q13 78 72 130q58 54 134 54q74 0 114.5 -54.5t28.5 -129.5l-26 -169q-12 -74 -71 -128.5t-132 -54.5zM257 363q38 0 73 29q33 30 40 73l26 169q7 44 -16 73q-26 30 -63 30q-42 0 -74.5 -30.5t-39.5 -72.5l-26 -169
q-7 -42 15.5 -72t64.5 -30z" />
    <glyph glyph-name="guillemotright" unicode="&#xbb;" horiz-adv-x="667" 
d="M139 54q-6 0 -8 1q-14 6 -11 20l12 79q1 9 14 25l197 178l-1 2l-139 176q-8 16 -6 24l12 78q3 18 18 22q3 1 8 1q8 0 13 -8l195 -246q8 -11 5 -26l-7 -46q-3 -14 -13 -26l-273 -247q-6 -7 -16 -7zM364 54q-6 0 -8 1q-14 6 -11 20l12 79q1 9 14 25l197 178l-1 2l-139 176
q-8 16 -6 24l12 78q3 17 18 22q3 1 8 1q10 0 13 -8l195 -247q7 -12 5 -25l-7 -46q-2 -13 -13 -25l-273 -248h1q-7 -7 -17 -7z" />
    <glyph glyph-name="questiondown" unicode="&#xbf;" horiz-adv-x="753" 
d="M478 586h-20q-29 0 -45.5 20.5t-11.5 49.5l4 24q5 29 27.5 49.5t51.5 20.5h20q29 0 46 -20.5t12 -49.5l-4 -24q-5 -29 -28 -49.5t-52 -20.5zM311 -409q-71 0 -127.5 32.5t-89 85t-45 118.5t-1.5 135q16 98 73 186.5t144 137.5q106 64 133 175q10 32 41 32h28q14 0 23 -10
t7 -24l-1 -6q-43 -169 -194 -255h-1q-62 -35 -103 -100t-52 -136q-16 -104 32.5 -185.5t149.5 -81.5q93 0 166.5 73.5t95.5 170.5q9 33 42 33h28q15 0 22 -12.5t5 -27.5q-30 -137 -136 -239t-240 -102z" />
    <glyph glyph-name="Agrave" unicode="&#xc0;" horiz-adv-x="879" 
d="M674 1328h-10q-26 0 -29 22l-43 209q-2 8 -1 11q2 16 19.5 26.5t36.5 10.5q24 0 30 -17l54 -210q1 -4 1 -14q-7 -38 -58 -38zM99 0h-28q-17 0 -27 15q-5 8 -3 22q0 6 3 12l517 1093q12 23 39 23h48q22 0 28 -23l173 -1094q0 -9 -1 -14q-2 -9 -6 -18q-14 -16 -33 -16h-31
q-27 0 -30 26l-39 220q-1 10 -12 10h-433q-14 0 -18 -10l-109 -221q-12 -25 -38 -25zM325 360h342q7 0 14 7q4 4 6 10v5l-92 606v2l-2 -2l-281 -606q-2 -2 -2 -4q-1 -4 3 -11q3 -7 12 -7z" />
    <glyph glyph-name="Aacute" unicode="&#xc1;" horiz-adv-x="879" 
d="M635 1328h-10q-21 0 -35 9t-11 29q0 7 5 15l121 209q11 17 35 17q18 0 32 -10.5t12 -26.5q-2 -8 -5 -10l-110 -210q-9 -22 -34 -22zM99 0h-28q-17 0 -27 15q-5 8 -3 22q0 6 3 12l517 1093q12 23 39 23h48q22 0 28 -23l173 -1094q0 -9 -1 -14q-2 -9 -6 -18
q-14 -16 -33 -16h-31q-27 0 -30 26l-39 220q-1 10 -12 10h-433q-14 0 -18 -10l-109 -221q-12 -25 -38 -25zM325 360h342q7 0 14 7q4 4 6 10v5l-92 606v2l-2 -2l-281 -606q-2 -2 -2 -4q-1 -4 3 -11q3 -7 12 -7z" />
    <glyph glyph-name="Acircumflex" unicode="&#xc2;" horiz-adv-x="879" 
d="M566 1328h-10q-21 0 -35.5 9t-11.5 29q0 7 5 15q14 25 56.5 99t63.5 110q12 18 42 18q29 0 35 -18l37 -142q2 -10 18 -68q1 -4 1 -14q-7 -38 -59 -38h-10q-24 0 -29 22l-19 94l-49 -94q-11 -22 -35 -22zM99 0h-28q-17 0 -27 15q-5 8 -3 22q0 6 3 12l517 1093q12 23 39 23
h48q22 0 28 -23l173 -1094q0 -9 -1 -14q-2 -9 -6 -18q-14 -16 -33 -16h-31q-27 0 -30 26l-39 220q-1 10 -12 10h-433q-14 0 -18 -10l-109 -221q-12 -25 -38 -25zM325 360h342q7 0 14 7q4 4 6 10v5l-92 606v2l-2 -2l-281 -606q-2 -2 -2 -4q-1 -4 3 -11q3 -7 12 -7z" />
    <glyph glyph-name="Atilde" unicode="&#xc3;" horiz-adv-x="879" 
d="M740 1366q-65 0 -88 78l-5 14q-6 21 -16 34q-9 9 -22 9q-18 0 -31 -18t-16 -36q-1 -14 2 -26l4 -9v-12q-3 -19 -30 -23l-7 -1h-13q-32 0 -22 76q8 51 43 91.5t83 40.5q33 0 50.5 -18t32.5 -52l10 -24q13 -42 38 -42q17 0 29.5 19t15.5 37q2 11 -2 24l-3 10q0 2 0.5 6
t0.5 5q3 19 22 22q12 3 15 3h13q32 0 21 -76q-8 -51 -43 -91.5t-82 -40.5zM99 0h-28q-17 0 -27 15q-5 8 -3 22q0 6 3 12l517 1093q12 23 39 23h48q22 0 28 -23l173 -1094q0 -9 -1 -14q-2 -9 -6 -18q-14 -16 -33 -16h-31q-27 0 -30 26l-39 220q-1 10 -12 10h-433
q-14 0 -18 -10l-109 -221q-12 -25 -38 -25zM325 360h342q7 0 14 7q4 4 6 10v5l-92 606v2l-2 -2l-281 -606q-2 -2 -2 -4q-1 -4 3 -11q3 -7 12 -7z" />
    <glyph glyph-name="Adieresis" unicode="&#xc4;" horiz-adv-x="879" 
d="M578 1429h-17q-25 0 -39.5 18t-10.5 42l3 19q4 24 24 41t44 17h17q24 0 38.5 -17t10.5 -41l-3 -19q-4 -24 -23.5 -42t-43.5 -18zM783 1429h-19q-23 0 -37.5 18t-10.5 42l3 19q4 24 23.5 41t43.5 17h18q24 0 38.5 -17t10.5 -41l-3 -19q-4 -24 -23.5 -42t-43.5 -18zM99 0
h-28q-17 0 -27 15q-5 8 -3 22q0 6 3 12l517 1093q12 23 39 23h48q22 0 28 -23l173 -1094q0 -9 -1 -14q-2 -9 -6 -18q-14 -16 -33 -16h-31q-27 0 -30 26l-39 220q-1 10 -12 10h-433q-14 0 -18 -10l-109 -221q-12 -25 -38 -25zM325 360h342q7 0 14 7q4 4 6 10v5l-92 606v2
l-2 -2l-281 -606q-2 -2 -2 -4q-1 -4 3 -11q3 -7 12 -7z" />
    <glyph glyph-name="Aring" unicode="&#xc5;" horiz-adv-x="879" 
d="M659 1348q-51 0 -79 36.5t-20 87.5t48.5 88.5t89.5 37.5q51 0 79 -37.5t20 -88.5t-47.5 -87.5t-90.5 -36.5zM671 1425q18 0 34 14.5t18 32.5q4 18 -7 34q-13 13 -30 13q-20 0 -31 -14q-14 -12 -19 -33q-2 -20 8 -32q9 -15 27 -15zM99 0h-28q-17 0 -27 15q-5 8 -3 22
q0 6 3 12l517 1093q12 23 39 23h48q22 0 28 -23l173 -1094q0 -9 -1 -14q-2 -9 -6 -18q-14 -16 -33 -16h-31q-27 0 -30 26l-39 220q-1 10 -12 10h-433q-14 0 -18 -10l-109 -221q-12 -25 -38 -25zM325 360h342q7 0 14 7q4 4 6 10v5l-92 606v2l-2 -2l-281 -606q-2 -2 -2 -4
q-1 -4 3 -11q3 -7 12 -7z" />
    <glyph glyph-name="AE" unicode="&#xc6;" horiz-adv-x="1064" 
d="M99 0h-28q-17 0 -27 15q-5 8 -3 22q0 6 3 12l511 1079q1 15 15 27q15 10 27 10h577q35 0 29 -37l-6 -33q-5 -36 -40 -36h-495q-6 0 -11 -5q-4 -6 -6 -11l-59 -371q-2 -15 12 -15h433q36 0 30 -37l-5 -35q-6 -36 -40 -36h-435q-14 0 -17 -16l-64 -409q-3 -17 11 -17h495
q35 0 29 -37l-5 -33q-2 -15 -14 -26t-27 -11h-577q-14 0 -23 11.5t-7 25.5l35 219h-153q-14 0 -18 -10l-109 -221q-12 -25 -38 -25zM325 360h108l68 430l-189 -408q-2 -2 -2 -4q-1 -4 3 -11q3 -7 12 -7z" />
    <glyph glyph-name="Ccedilla" unicode="&#xc7;" horiz-adv-x="804" 
d="M363 -245q-51 0 -81 39t-22 87q7 42 51 42h4q34 0 36 -38l3 -20q6 -21 23 -21q14 0 26 14t15 32q3 29 -15 43l-28 34q-11 13 -14 35q-138 17 -213 128.5t-52 254.5l63 395q16 102 77 190t154.5 141.5t196.5 53.5h2q154 0 241.5 -114.5t62.5 -270.5l-5 -29q-6 -35 -41 -35
h-32q-11 0 -22 9q-9 10 -7 26l5 29q18 113 -45.5 196t-175.5 83t-201.5 -83t-107.5 -196l-63 -395q-18 -113 45.5 -196t175.5 -83q111 0 201 83.5t108 195.5l4 28q2 14 14 25t27 11h32q35 0 29 -36l-4 -28q-21 -137 -124 -247t-239 -133q53 -41 41 -115q-8 -52 -48.5 -93.5
t-96.5 -41.5z" />
    <glyph glyph-name="Egrave" unicode="&#xc8;" horiz-adv-x="698" 
d="M599 1328h-10q-26 0 -29 22l-43 209q-2 8 -1 11q2 16 19.5 26.5t36.5 10.5q24 0 30 -17l54 -210q1 -4 1 -14q-7 -38 -58 -38zM638 0h-577q-14 0 -23 11.5t-7 25.5l173 1091q1 15 15 27q15 10 27 10h577q35 0 29 -37l-6 -33q-4 -36 -40 -36h-495q-6 0 -11 -5q-4 -6 -6 -11
l-59 -371q-1 -15 12 -15h433q36 0 30 -37l-5 -35q-6 -36 -40 -36h-435q-14 0 -17 -16l-64 -409q-3 -17 11 -17h495q35 0 29 -37l-5 -33q-2 -15 -14 -26t-27 -11z" />
    <glyph glyph-name="Eacute" unicode="&#xc9;" horiz-adv-x="698" 
d="M542 1328h-10q-21 0 -35 9t-11 29q0 7 5 15l121 209q11 17 35 17q18 0 32 -10.5t12 -26.5q-3 -8 -5 -10l-110 -210q-9 -22 -34 -22zM638 0h-577q-14 0 -23 11.5t-7 25.5l173 1091q1 15 15 27q15 10 27 10h577q35 0 29 -37l-6 -33q-4 -36 -40 -36h-495q-6 0 -11 -5
q-4 -6 -6 -11l-59 -371q-1 -15 12 -15h433q36 0 30 -37l-5 -35q-6 -36 -40 -36h-435q-14 0 -17 -16l-64 -409q-3 -17 11 -17h495q35 0 29 -37l-5 -33q-2 -15 -14 -26t-27 -11z" />
    <glyph glyph-name="Ecircumflex" unicode="&#xca;" horiz-adv-x="698" 
d="M497 1328h-10q-21 0 -35.5 9t-11.5 29q0 7 5 15q14 25 56.5 99t63.5 110q12 18 42 18q29 0 35 -18l37 -142q2 -10 18 -68q1 -4 1 -14q-7 -38 -59 -38h-10q-24 0 -29 22l-19 94l-49 -94q-11 -22 -35 -22zM638 0h-577q-14 0 -23 11.5t-7 25.5l173 1091q1 15 15 27
q15 10 27 10h577q35 0 29 -37l-6 -33q-4 -36 -40 -36h-495q-6 0 -11 -5q-4 -6 -6 -11l-59 -371q-1 -15 12 -15h433q36 0 30 -37l-5 -35q-6 -36 -40 -36h-435q-14 0 -17 -16l-64 -409q-3 -17 11 -17h495q35 0 29 -37l-5 -33q-2 -15 -14 -26t-27 -11z" />
    <glyph glyph-name="Edieresis" unicode="&#xcb;" horiz-adv-x="698" 
d="M485 1429h-17q-25 0 -39.5 18t-10.5 42l3 19q4 24 24 41t44 17h17q24 0 38.5 -17t10.5 -41l-3 -19q-4 -24 -23.5 -42t-43.5 -18zM690 1429h-19q-23 0 -37.5 18t-10.5 42l3 19q4 24 23.5 41t43.5 17h18q24 0 38.5 -17t10.5 -41l-3 -19q-4 -24 -23.5 -42t-43.5 -18zM638 0
h-577q-14 0 -23 11.5t-7 25.5l173 1091q1 15 15 27q15 10 27 10h577q35 0 29 -37l-6 -33q-4 -36 -40 -36h-495q-6 0 -11 -5q-4 -6 -6 -11l-59 -371q-1 -15 12 -15h433q36 0 30 -37l-5 -35q-6 -36 -40 -36h-435q-14 0 -17 -16l-64 -409q-3 -17 11 -17h495q35 0 29 -37l-5 -33
q-2 -15 -14 -26t-27 -11z" />
    <glyph glyph-name="Igrave" unicode="&#xcc;" horiz-adv-x="152" 
d="M319 1328h-10q-26 0 -29 22l-43 209q-2 8 -1 11q2 16 19.5 26.5t36.5 10.5q24 0 30 -17l54 -210q1 -4 1 -14q-7 -38 -58 -38zM91 0h-31q-36 0 -30 37l173 1091q6 37 42 37h31q37 0 31 -37l-173 -1091q-6 -37 -43 -37z" />
    <glyph glyph-name="Iacute" unicode="&#xcd;" horiz-adv-x="152" 
d="M262 1328h-10q-21 0 -35 9t-11 29q0 7 5 15l121 209q11 17 35 17q18 0 32 -10.5t12 -26.5q-3 -8 -5 -10l-110 -210q-9 -22 -34 -22zM91 0h-31q-36 0 -30 37l173 1091q6 37 42 37h31q37 0 31 -37l-173 -1091q-6 -37 -43 -37z" />
    <glyph glyph-name="Icircumflex" unicode="&#xce;" horiz-adv-x="150" 
d="M216 1328h-10q-21 0 -35.5 9t-11.5 29q0 7 5 15q14 25 56.5 99t63.5 110q12 18 42 18q29 0 35 -18l37 -142q2 -10 18 -68q1 -4 1 -14q-7 -38 -59 -38h-10q-24 0 -29 22l-19 94l-49 -94q-11 -22 -35 -22zM90 0h-31q-36 0 -30 37l173 1091q6 37 42 37h31q37 0 31 -37
l-173 -1091q-6 -37 -43 -37z" />
    <glyph glyph-name="Idieresis" unicode="&#xcf;" horiz-adv-x="149" 
d="M203 1429h-17q-25 0 -39.5 18t-10.5 42l3 19q4 24 24 41t44 17h17q24 0 38.5 -17t10.5 -41l-3 -19q-4 -24 -23.5 -42t-43.5 -18zM408 1429h-19q-23 0 -37.5 18t-10.5 42l3 19q4 24 23.5 41t43.5 17h18q24 0 38.5 -17t10.5 -41l-3 -19q-4 -24 -23.5 -42t-43.5 -18zM90 0
h-31q-36 0 -30 37l173 1091q6 37 42 37h31q37 0 31 -37l-173 -1091q-6 -37 -43 -37z" />
    <glyph glyph-name="Ntilde" unicode="&#xd1;" horiz-adv-x="783" 
d="M691 1366q-65 0 -88 78l-5 14q-6 21 -16 34q-9 9 -22 9q-18 0 -31 -18t-16 -36q-1 -14 2 -26l4 -9v-12q-3 -19 -30 -23l-7 -1h-13q-32 0 -22 76q8 51 43 91.5t83 40.5q33 0 50.5 -18t32.5 -52l10 -24q13 -42 38 -42q17 0 29.5 19t15.5 37q2 11 -2 24l-3 10q0 2 0.5 6
t0.5 5q3 19 22 22q12 3 15 3h13q32 0 21 -76q-8 -51 -43 -91.5t-82 -40.5zM92 0h-31q-36 0 -30 37l173 1091q6 37 42 37h89q18 0 26 -21l314 -1009l2 -1l1 1l158 993q2 15 14.5 27t27.5 12h31q35 0 29 -39l-173 -1091q-6 -37 -41 -37h-89q-23 0 -28 23l-315 1008v2
q-2 0 -2 -2l-157 -994q-6 -37 -41 -37z" />
    <glyph glyph-name="Ograve" unicode="&#xd2;" horiz-adv-x="783" 
d="M643 1328h-10q-26 0 -29 22l-43 209q-2 8 -1 11q2 16 19.5 26.5t36.5 10.5q24 0 30 -17l54 -210q1 -4 1 -14q-7 -38 -58 -38zM394 0h-2q-103 0 -179.5 53.5t-109.5 141.5t-17 190l63 395q16 102 77 190t154.5 141.5t196.5 53.5h2q154 0 241.5 -114.5t62.5 -270.5
l-63 -395q-26 -157 -148.5 -271t-277.5 -114zM409 106q111 0 201 83.5t108 195.5l63 395q18 113 -45.5 196t-175.5 83t-201.5 -83t-107.5 -196l-63 -395q-18 -113 45.5 -196t175.5 -83z" />
    <glyph glyph-name="Oacute" unicode="&#xd3;" horiz-adv-x="783" 
d="M586 1328h-10q-21 0 -35 9t-11 29q0 7 5 15l121 209q11 17 35 17q18 0 32 -10.5t12 -26.5q-3 -8 -5 -10l-110 -210q-9 -22 -34 -22zM394 0h-2q-103 0 -179.5 53.5t-109.5 141.5t-17 190l63 395q16 102 77 190t154.5 141.5t196.5 53.5h2q154 0 241.5 -114.5t62.5 -270.5
l-63 -395q-26 -157 -148.5 -271t-277.5 -114zM409 106q111 0 201 83.5t108 195.5l63 395q18 113 -45.5 196t-175.5 83t-201.5 -83t-107.5 -196l-63 -395q-18 -113 45.5 -196t175.5 -83z" />
    <glyph glyph-name="Ocircumflex" unicode="&#xd4;" horiz-adv-x="783" 
d="M541 1328h-10q-21 0 -35.5 9t-11.5 29q0 7 5 15q14 25 56.5 99t63.5 110q12 18 42 18q29 0 35 -18l37 -142q2 -10 18 -68q1 -4 1 -14q-7 -38 -59 -38h-10q-24 0 -29 22l-19 94l-49 -94q-11 -22 -35 -22zM394 0h-2q-103 0 -179.5 53.5t-109.5 141.5t-17 190l63 395
q16 102 77 190t154.5 141.5t196.5 53.5h2q154 0 241.5 -114.5t62.5 -270.5l-63 -395q-26 -157 -148.5 -271t-277.5 -114zM409 106q111 0 201 83.5t108 195.5l63 395q18 113 -45.5 196t-175.5 83t-201.5 -83t-107.5 -196l-63 -395q-18 -113 45.5 -196t175.5 -83z" />
    <glyph glyph-name="Otilde" unicode="&#xd5;" horiz-adv-x="783" 
d="M691 1366q-65 0 -88 78l-5 14q-6 21 -16 34q-9 9 -22 9q-18 0 -31 -18t-16 -36q-1 -14 2 -26l4 -9v-12q-3 -19 -30 -23l-7 -1h-13q-32 0 -22 76q8 51 43 91.5t83 40.5q33 0 50.5 -18t32.5 -52l10 -24q13 -42 38 -42q17 0 29.5 19t15.5 37q2 11 -2 24l-3 10q0 2 0.5 6
t0.5 5q3 19 22 22q12 3 15 3h13q32 0 21 -76q-8 -51 -43 -91.5t-82 -40.5zM394 0h-2q-103 0 -179.5 53.5t-109.5 141.5t-17 190l63 395q16 102 77 190t154.5 141.5t196.5 53.5h2q154 0 241.5 -114.5t62.5 -270.5l-63 -395q-26 -157 -148.5 -271t-277.5 -114zM409 106
q111 0 201 83.5t108 195.5l63 395q18 113 -45.5 196t-175.5 83t-201.5 -83t-107.5 -196l-63 -395q-18 -113 45.5 -196t175.5 -83z" />
    <glyph glyph-name="Odieresis" unicode="&#xd6;" horiz-adv-x="783" 
d="M529 1429h-17q-25 0 -39.5 18t-10.5 42l3 19q4 24 24 41t44 17h17q24 0 38.5 -17t10.5 -41l-3 -19q-4 -24 -23.5 -42t-43.5 -18zM734 1429h-19q-23 0 -37.5 18t-10.5 42l3 19q4 24 23.5 41t43.5 17h18q24 0 38.5 -17t10.5 -41l-3 -19q-4 -24 -23.5 -42t-43.5 -18zM394 0
h-2q-103 0 -179.5 53.5t-109.5 141.5t-17 190l63 395q16 102 77 190t154.5 141.5t196.5 53.5h2q154 0 241.5 -114.5t62.5 -270.5l-63 -395q-26 -157 -148.5 -271t-277.5 -114zM409 106q111 0 201 83.5t108 195.5l63 395q18 113 -45.5 196t-175.5 83t-201.5 -83t-107.5 -196
l-63 -395q-18 -113 45.5 -196t175.5 -83z" />
    <glyph glyph-name="multiply" unicode="&#xd7;" horiz-adv-x="623" 
d="M142 160q-12 0 -23 12l-17 20q-7 14 -4 26q2 13 13 26l198 177l-142 179q-7 12 -5 25q1 12 13 25l24 23q14 11 26 11q14 0 25 -11l139 -178l197 178q13 10 26 10t23 -10l18 -23q9 -11 7 -25q-1 -9 -15 -25l-197 -179l141 -176q8 -15 7 -27q-3 -15 -16 -26l-25 -21
q-15 -10 -26 -10t-23 10l-140 178l-196 -178q-14 -11 -28 -11z" />
    <glyph glyph-name="Oslash" unicode="&#xd8;" horiz-adv-x="804" 
d="M229 0h-33q-17 0 -25 16q-3 6 -3 21q0 4 4 12l17 33q-123 121 -93 303l63 395q16 102 77 190t154.5 141.5t196.5 53.5h2q76 0 131 -27l3 4q14 23 39 23h27q18 0 26 -16q7 -10 4 -22q0 -1 -3 -10l-16 -33q59 -56 83 -135t10 -169l-63 -395q-26 -157 -148.5 -271
t-277.5 -114h-2q-76 0 -136 28l-1 -5q-15 -23 -36 -23zM243 189l427 849q-48 21 -100 21q-112 0 -201.5 -83t-107.5 -196l-63 -395q-17 -110 45 -196zM419 106q111 0 201 83.5t108 195.5l63 395q17 113 -46 195l-428 -848q45 -21 102 -21z" />
    <glyph glyph-name="Ugrave" unicode="&#xd9;" horiz-adv-x="783" 
d="M643 1328h-10q-26 0 -29 22l-43 209q-2 8 -1 11q2 16 19.5 26.5t36.5 10.5q24 0 30 -17l54 -210q1 -4 1 -14q-7 -38 -58 -38zM394 0h-2q-103 0 -179.5 53.5t-109.5 141.5t-17 190l118 743q6 37 42 37h31q35 0 29 -37l-118 -743q-18 -113 45.5 -196t175.5 -83t201.5 83.5
t107.5 195.5l118 743q2 15 14 26t27 11h32q35 0 29 -37l-118 -743q-25 -155 -148 -270t-278 -115z" />
    <glyph glyph-name="Uacute" unicode="&#xda;" horiz-adv-x="783" 
d="M586 1328h-10q-21 0 -35 9t-11 29q0 7 5 15l121 209q11 17 35 17q18 0 32 -10.5t12 -26.5q-3 -8 -5 -10l-110 -210q-9 -22 -34 -22zM394 0h-2q-103 0 -179.5 53.5t-109.5 141.5t-17 190l118 743q6 37 42 37h31q35 0 29 -37l-118 -743q-18 -113 45.5 -196t175.5 -83
t201.5 83.5t107.5 195.5l118 743q2 15 14 26t27 11h32q35 0 29 -37l-118 -743q-25 -155 -148 -270t-278 -115z" />
    <glyph glyph-name="Ucircumflex" unicode="&#xdb;" horiz-adv-x="783" 
d="M541 1328h-10q-21 0 -35.5 9t-11.5 29q0 7 5 15q14 25 56.5 99t63.5 110q12 18 42 18q29 0 35 -18l37 -142q2 -10 18 -68q1 -4 1 -14q-7 -38 -59 -38h-10q-24 0 -29 22l-19 94l-49 -94q-11 -22 -35 -22zM394 0h-2q-103 0 -179.5 53.5t-109.5 141.5t-17 190l118 743
q6 37 42 37h31q35 0 29 -37l-118 -743q-18 -113 45.5 -196t175.5 -83t201.5 83.5t107.5 195.5l118 743q2 15 14 26t27 11h32q35 0 29 -37l-118 -743q-25 -155 -148 -270t-278 -115z" />
    <glyph glyph-name="Udieresis" unicode="&#xdc;" horiz-adv-x="783" 
d="M529 1429h-17q-25 0 -39.5 18t-10.5 42l3 19q4 24 24 41t44 17h17q24 0 38.5 -17t10.5 -41l-3 -19q-4 -24 -23.5 -42t-43.5 -18zM734 1429h-19q-23 0 -37.5 18t-10.5 42l3 19q4 24 23.5 41t43.5 17h18q24 0 38.5 -17t10.5 -41l-3 -19q-4 -24 -23.5 -42t-43.5 -18zM394 0
h-2q-103 0 -179.5 53.5t-109.5 141.5t-17 190l118 743q6 37 42 37h31q35 0 29 -37l-118 -743q-18 -113 45.5 -196t175.5 -83t201.5 83.5t107.5 195.5l118 743q2 15 14 26t27 11h32q35 0 29 -37l-118 -743q-25 -155 -148 -270t-278 -115z" />
    <glyph glyph-name="Yacute" unicode="&#xdd;" horiz-adv-x="758" 
d="M573 1328h-10q-21 0 -35 9t-11 29q0 7 5 15l121 209q11 17 35 17q18 0 32 -10.5t12 -26.5q-2 -8 -5 -10l-110 -210q-9 -22 -34 -22zM394 0h-31q-36 0 -30 37l48 301l-174 794q-2 6 -1 9q3 24 27 24h55q19 0 28 -23l141 -648l347 648q15 23 39 23h53q21 0 18 -24l-1 -4
l-429 -793l-48 -308q-12 -36 -42 -36z" />
    <glyph glyph-name="germandbls" unicode="&#xdf;" horiz-adv-x="782" 
d="M66 -227h-32q-35 0 -29 36l171 1083q6 40 48 94.5t83 87.5q113 90 251 90q137 0 224.5 -87.5t65.5 -222.5q-25 -158 -179 -253q66 -42 96.5 -114.5t17.5 -155.5q-11 -73 -52 -135.5t-98.5 -104t-127.5 -65t-141 -23.5l17 102q105 0 193 62t104 164q15 91 -43.5 152.5
t-151.5 70.5h-25q-10 0 -16.5 7.5t-4.5 18.5l7 36q2 10 10 17.5t18 7.5h24q91 10 164.5 68t87.5 145q15 93 -47.5 153t-157.5 60q-90 0 -169 -56t-99 -143l-167 -1059q-6 -36 -42 -36z" />
    <glyph glyph-name="agrave" unicode="&#xe0;" 
d="M455 927h-10q-25 0 -28 22l-43 207q-2 8 -1 11q2 15 20 25.5t36 10.5q23 0 29 -17l54 -208q1 -4 1 -14q-7 -37 -58 -37zM270 -3q-104 0 -161 76q-62 73 -45 182l39 242q17 109 101 181q82 77 187 77q80 0 137 -51v6q6 37 41 37h27q38 0 32 -37l-106 -674q-6 -36 -44 -36
h-27q-35 0 -29 36l2 12q-74 -51 -154 -51zM286 104q56 0 108 44q49 45 58 107l39 242q10 61 -24 107q-39 44 -94 44q-60 0 -108.5 -45t-57.5 -106l-39 -242q-9 -61 24.5 -106t93.5 -45z" />
    <glyph glyph-name="aacute" unicode="&#xe1;" 
d="M398 927h-10q-21 0 -35 9t-11 28q0 7 5 15l120 207q11 17 35 17q18 0 32 -10.5t12 -25.5q-2 -8 -5 -10l-109 -208q-9 -22 -34 -22zM270 -3q-104 0 -161 76q-62 73 -45 182l39 242q17 109 101 181q82 77 187 77q80 0 137 -51v6q6 37 41 37h27q38 0 32 -37l-106 -674
q-6 -36 -44 -36h-27q-35 0 -29 36l2 12q-74 -51 -154 -51zM286 104q56 0 108 44q49 45 58 107l39 242q10 61 -24 107q-39 44 -94 44q-60 0 -108.5 -45t-57.5 -106l-39 -242q-9 -61 24.5 -106t93.5 -45z" />
    <glyph glyph-name="acircumflex" unicode="&#xe2;" 
d="M353 927h-10q-21 0 -35 9t-11 28q0 7 5 15q70 125 119 207q12 18 41 18t35 -18l37 -140q6 -28 17 -68q1 -4 1 -14q-7 -37 -58 -37h-10q-24 0 -29 22l-19 93l-48 -93q-11 -22 -35 -22zM270 -3q-104 0 -161 76q-62 73 -45 182l39 242q17 109 101 181q82 77 187 77
q80 0 137 -51v6q6 37 41 37h27q38 0 32 -37l-106 -674q-6 -36 -44 -36h-27q-35 0 -29 36l2 12q-74 -51 -154 -51zM286 104q56 0 108 44q49 45 58 107l39 242q10 61 -24 107q-39 44 -94 44q-60 0 -108.5 -45t-57.5 -106l-39 -242q-9 -61 24.5 -106t93.5 -45z" />
    <glyph glyph-name="atilde" unicode="&#xe3;" 
d="M501 962q-64 0 -87 78l-5 14q-5 19 -16 33q-9 9 -22 9q-18 0 -30.5 -17.5t-15.5 -35.5q-1 -14 2 -26l4 -9v-12q-3 -19 -30 -23l-7 -1h-13q-32 0 -22 76q8 50 43 90.5t82 40.5q33 0 50.5 -18t31.5 -52l10 -24q14 -41 38 -41q17 0 29.5 18.5t15.5 36.5q2 11 -2 24l-3 10
q0 2 0.5 6t0.5 5q3 19 21 22q12 3 15 3h13q32 0 21 -76q-8 -50 -42.5 -90.5t-81.5 -40.5zM270 -3q-104 0 -161 76q-62 73 -45 182l39 242q17 109 101 181q82 77 187 77q80 0 137 -51v6q6 37 41 37h27q38 0 32 -37l-106 -674q-6 -36 -44 -36h-27q-35 0 -29 36l2 12
q-74 -51 -154 -51zM286 104q56 0 108 44q49 45 58 107l39 242q10 61 -24 107q-39 44 -94 44q-60 0 -108.5 -45t-57.5 -106l-39 -242q-9 -61 24.5 -106t93.5 -45z" />
    <glyph glyph-name="adieresis" unicode="&#xe4;" 
d="M341 1027h-17q-24 0 -38.5 18t-10.5 41l3 19q4 24 23.5 41t43.5 17h17q24 0 38.5 -17t10.5 -41l-3 -19q-4 -24 -23.5 -41.5t-43.5 -17.5zM544 1027h-18q-23 0 -37.5 18t-10.5 41l3 19q4 24 23.5 41t42.5 17h18q24 0 38.5 -17t10.5 -41l-3 -19q-4 -24 -23.5 -41.5
t-43.5 -17.5zM270 -3q-104 0 -161 76q-62 73 -45 182l39 242q17 109 101 181q82 77 187 77q80 0 137 -51v6q6 37 41 37h27q38 0 32 -37l-106 -674q-6 -36 -44 -36h-27q-35 0 -29 36l2 12q-74 -51 -154 -51zM286 104q56 0 108 44q49 45 58 107l39 242q10 61 -24 107
q-39 44 -94 44q-60 0 -108.5 -45t-57.5 -106l-39 -242q-9 -61 24.5 -106t93.5 -45z" />
    <glyph glyph-name="aring" unicode="&#xe5;" 
d="M422 947q-50 0 -78 36t-20 87q8 50 48 87t89 37q50 0 78 -37t20 -87q-8 -51 -47 -87t-90 -36zM434 1023q18 0 34 14.5t18 32.5q4 17 -7 33q-13 13 -30 13q-20 0 -31 -14q-14 -12 -19 -32q-2 -20 8 -32q9 -15 27 -15zM270 -3q-104 0 -161 76q-62 73 -45 182l39 242
q17 109 101 181q82 77 187 77q80 0 137 -51v6q6 37 41 37h27q38 0 32 -37l-106 -674q-6 -36 -44 -36h-27q-35 0 -29 36l2 12q-74 -51 -154 -51zM286 104q56 0 108 44q49 45 58 107l39 242q10 61 -24 107q-39 44 -94 44q-60 0 -108.5 -45t-57.5 -106l-39 -242
q-9 -61 24.5 -106t93.5 -45z" />
    <glyph glyph-name="ae" unicode="&#xe6;" horiz-adv-x="946" 
d="M281 -3q-104 0 -161 76q-62 73 -45 182l39 242q17 109 101 181q82 77 187 77q80 0 137 -51v6q6 37 41 37h27q38 0 32 -37q68 45 148 45q102 0 160.5 -77t42.5 -181l-19 -118q-1 -10 -9.5 -17t-18.5 -7l-359 -1l-1 -1l-21 -130q2 -51 35.5 -85t84.5 -34q56 0 108 44
q50 46 58 107l3 16q3 25 23 36l3 2q12 6 23 6h19q41 0 35 -44l-3 -16q-16 -104 -99 -181t-186 -77q-79 0 -132 45l-1 -6q-6 -36 -44 -36h-27q-35 0 -29 36l2 12q-73 -51 -154 -51zM297 104q56 0 108 43q41 41 52 83l1 11l43 269l3 12q1 43 -26 82q-39 44 -94 44
q-60 0 -108.5 -45t-57.5 -106l-39 -242q-9 -61 24.5 -106t93.5 -45zM611 528l-12 -71l1 -1l275 1q6 0 6 5l6 35q10 59 -24 107q-39 44 -94 44q-52 0 -96 -34.5t-62 -85.5z" />
    <glyph glyph-name="ccedilla" unicode="&#xe7;" 
d="M391 755q102 0 161 -77t43 -181l-3 -17q-6 -44 -50 -44h-19q-8 0 -20 7l-4 2q-14 11 -11 35l3 17q10 61 -24 107q-39 44 -94 44q-60 0 -108.5 -45t-57.5 -106l-39 -242q-9 -61 24.5 -106t93.5 -45q56 0 108 44q49 45 58 107l3 16q3 25 23 36l4 2q10 6 22 6h19
q42 0 36 -44l-3 -16q-14 -91 -81 -163t-156 -90q48 -42 37 -111q-8 -51 -47.5 -92.5t-95.5 -41.5q-51 0 -81 39t-23 86q3 21 18.5 31.5t33.5 10.5h4q30 0 35 -35l4 -22q0 -6 4 -12q6 -9 19 -9q14 0 25.5 13.5t14.5 31.5q3 29 -15 43l-29 33q-11 22 -12 38q-63 16 -102 68
q-62 73 -45 182l39 242q17 109 101 181q82 77 187 77z" />
    <glyph glyph-name="egrave" unicode="&#xe8;" 
d="M455 927h-10q-25 0 -28 22l-43 207q-2 8 -1 11q2 15 20 25.5t36 10.5q23 0 29 -17l54 -208q1 -4 1 -14q-7 -37 -58 -37zM270 -3q-104 0 -161 76q-62 73 -45 182l39 242q17 109 101 181q82 77 187 77q102 0 161 -77t43 -181l-19 -118q-1 -10 -10 -17t-19 -7l-359 -1
q-2 0 -5 -5l-15 -94q-9 -61 24.5 -106t93.5 -45q56 0 108 44q49 45 58 107l3 16q3 25 23 36l4 2q10 6 22 6h19q42 0 36 -44l-3 -16q-16 -104 -99.5 -181t-186.5 -77zM204 456l275 1q6 0 6 5l6 35q10 61 -24 107q-39 44 -94 44q-60 0 -108.5 -45t-57.5 -106l-6 -36q0 -3 3 -5
z" />
    <glyph glyph-name="eacute" unicode="&#xe9;" 
d="M398 927h-10q-21 0 -35 9t-11 28q0 7 5 15l120 207q11 17 35 17q18 0 32 -10.5t12 -25.5q-2 -8 -5 -10l-109 -208q-9 -22 -34 -22zM270 -3q-104 0 -161 76q-62 73 -45 182l39 242q17 109 101 181q82 77 187 77q102 0 161 -77t43 -181l-19 -118q-1 -10 -10 -17t-19 -7
l-359 -1q-2 0 -5 -5l-15 -94q-9 -61 24.5 -106t93.5 -45q56 0 108 44q49 45 58 107l3 16q3 25 23 36l4 2q10 6 22 6h19q42 0 36 -44l-3 -16q-16 -104 -99.5 -181t-186.5 -77zM204 456l275 1q6 0 6 5l6 35q10 61 -24 107q-39 44 -94 44q-60 0 -108.5 -45t-57.5 -106l-6 -36
q0 -3 3 -5z" />
    <glyph glyph-name="ecircumflex" unicode="&#xea;" 
d="M353 927h-10q-21 0 -35 9t-11 28q0 7 5 15q70 125 119 207q12 18 41 18t35 -18l37 -140q6 -28 17 -68q1 -4 1 -14q-7 -37 -58 -37h-10q-24 0 -29 22l-19 93l-48 -93q-11 -22 -35 -22zM270 -3q-104 0 -161 76q-62 73 -45 182l39 242q17 109 101 181q82 77 187 77
q102 0 161 -77t43 -181l-19 -118q-1 -10 -10 -17t-19 -7l-359 -1q-2 0 -5 -5l-15 -94q-9 -61 24.5 -106t93.5 -45q56 0 108 44q49 45 58 107l3 16q3 25 23 36l4 2q10 6 22 6h19q42 0 36 -44l-3 -16q-16 -104 -99.5 -181t-186.5 -77zM204 456l275 1q6 0 6 5l6 35
q10 61 -24 107q-39 44 -94 44q-60 0 -108.5 -45t-57.5 -106l-6 -36q0 -3 3 -5z" />
    <glyph glyph-name="edieresis" unicode="&#xeb;" 
d="M341 1027h-17q-24 0 -38.5 18t-10.5 41l3 19q4 24 23.5 41t43.5 17h17q24 0 38.5 -17t10.5 -41l-3 -19q-4 -24 -23.5 -41.5t-43.5 -17.5zM544 1027h-18q-23 0 -37.5 18t-10.5 41l3 19q4 24 23.5 41t42.5 17h18q24 0 38.5 -17t10.5 -41l-3 -19q-4 -24 -23.5 -41.5
t-43.5 -17.5zM270 -3q-104 0 -161 76q-62 73 -45 182l39 242q17 109 101 181q82 77 187 77q102 0 161 -77t43 -181l-19 -118q-1 -10 -10 -17t-19 -7l-359 -1q-2 0 -5 -5l-15 -94q-9 -61 24.5 -106t93.5 -45q56 0 108 44q49 45 58 107l3 16q3 25 23 36l4 2q10 6 22 6h19
q42 0 36 -44l-3 -16q-16 -104 -99.5 -181t-186.5 -77zM204 456l275 1q6 0 6 5l6 35q10 61 -24 107q-39 44 -94 44q-60 0 -108.5 -45t-57.5 -106l-6 -36q0 -3 3 -5z" />
    <glyph glyph-name="igrave" unicode="&#xec;" horiz-adv-x="170" 
d="M265 927h-10q-25 0 -28 22l-43 207q-2 8 -1 11q2 15 20 25.5t36 10.5q23 0 29 -17l54 -208q1 -4 1 -14q-7 -37 -58 -37zM100 0h-28q-36 0 -30 36l105 665q1 9 14 24q14 11 28 11h28q14 0 23 -11q8 -10 6 -24l-105 -665q-6 -36 -41 -36z" />
    <glyph glyph-name="iacute" unicode="&#xed;" horiz-adv-x="170" 
d="M208 927h-10q-21 0 -35 9t-11 28q0 7 5 15l120 207q11 17 35 17q18 0 32 -10.5t12 -25.5q-2 -8 -5 -10l-109 -208q-9 -22 -34 -22zM100 0h-28q-36 0 -30 36l105 665q1 9 14 24q14 11 28 11h28q14 0 23 -11q8 -10 6 -24l-105 -665q-6 -36 -41 -36z" />
    <glyph glyph-name="icircumflex" unicode="&#xee;" horiz-adv-x="168" 
d="M162 927h-10q-21 0 -35 9t-11 28q0 7 5 15q70 125 119 207q12 18 41 18t35 -18l37 -140q6 -28 17 -68q1 -4 1 -14q-7 -37 -58 -37h-10q-24 0 -29 22l-19 93l-48 -93q-11 -22 -35 -22zM100 0h-28q-36 0 -30 36l105 665q1 9 14 24q14 11 28 11h28q14 0 23 -11q8 -10 6 -24
l-105 -665q-6 -36 -41 -36z" />
    <glyph glyph-name="idieresis" unicode="&#xef;" horiz-adv-x="166" 
d="M149 1027h-17q-24 0 -38.5 18t-10.5 41l3 19q4 24 23.5 41t43.5 17h17q24 0 38.5 -17t10.5 -41l-3 -19q-4 -24 -23.5 -41.5t-43.5 -17.5zM352 1027h-18q-23 0 -37.5 18t-10.5 41l3 19q4 24 23.5 41t42.5 17h18q24 0 38.5 -17t10.5 -41l-3 -19q-4 -24 -23.5 -41.5
t-43.5 -17.5zM100 0h-28q-36 0 -30 36l105 665q1 9 14 24q14 11 28 11h28q14 0 23 -11q8 -10 6 -24l-105 -665q-6 -36 -41 -36z" />
    <glyph glyph-name="ntilde" unicode="&#xf1;" 
d="M501 962q-64 0 -87 78l-5 14q-5 19 -16 33q-9 9 -22 9q-18 0 -30.5 -17.5t-15.5 -35.5q-1 -14 2 -26l4 -9v-12q-3 -19 -30 -23l-7 -1h-13q-32 0 -22 76q8 50 43 90.5t82 40.5q33 0 50.5 -18t31.5 -52l10 -24q14 -41 38 -41q17 0 29.5 18.5t15.5 36.5q2 11 -2 24l-3 10
q0 2 0.5 6t0.5 5q3 19 21 22q12 3 15 3h13q32 0 21 -76q-8 -50 -42.5 -90.5t-81.5 -40.5zM89 0h-28q-37 0 -31 36l109 693q2 10 10.5 17.5t18.5 7.5h50q10 0 16.5 -7.5t4.5 -17.5l-3 -25q70 51 154 51q105 -2 160 -77q62 -73 45 -181l-77 -461q-6 -36 -42 -36h-27
q-37 0 -31 36l73 461q9 61 -24.5 106t-93.5 45q-56 0 -108 -44q-48 -45 -58 -107l-77 -461q-6 -36 -41 -36z" />
    <glyph glyph-name="ograve" unicode="&#xf2;" 
d="M455 927h-10q-25 0 -28 22l-43 207q-2 8 -1 11q2 15 20 25.5t36 10.5q23 0 29 -17l54 -208q1 -4 1 -14q-7 -37 -58 -37zM270 -3q-104 0 -161 76q-62 73 -45 182l39 242q17 109 101 181q82 77 187 77q102 0 161 -77t43 -181l-39 -242q-16 -104 -99.5 -181t-186.5 -77z
M286 104q56 0 108 44q49 45 58 107l39 242q10 61 -24 107q-39 44 -94 44q-60 0 -108.5 -45t-57.5 -106l-39 -242q-9 -61 24.5 -106t93.5 -45z" />
    <glyph glyph-name="oacute" unicode="&#xf3;" 
d="M398 927h-10q-21 0 -35 9t-11 28q0 7 5 15l120 207q11 17 35 17q18 0 32 -10.5t12 -25.5q-2 -8 -5 -10l-109 -208q-9 -22 -34 -22zM270 -3q-104 0 -161 76q-62 73 -45 182l39 242q17 109 101 181q82 77 187 77q102 0 161 -77t43 -181l-39 -242q-16 -104 -99.5 -181
t-186.5 -77zM286 104q56 0 108 44q49 45 58 107l39 242q10 61 -24 107q-39 44 -94 44q-60 0 -108.5 -45t-57.5 -106l-39 -242q-9 -61 24.5 -106t93.5 -45z" />
    <glyph glyph-name="ocircumflex" unicode="&#xf4;" 
d="M353 927h-10q-21 0 -35 9t-11 28q0 7 5 15q70 125 119 207q12 18 41 18t35 -18l37 -140q6 -28 17 -68q1 -4 1 -14q-7 -37 -58 -37h-10q-24 0 -29 22l-19 93l-48 -93q-11 -22 -35 -22zM270 -3q-104 0 -161 76q-62 73 -45 182l39 242q17 109 101 181q82 77 187 77
q102 0 161 -77t43 -181l-39 -242q-16 -104 -99.5 -181t-186.5 -77zM286 104q56 0 108 44q49 45 58 107l39 242q10 61 -24 107q-39 44 -94 44q-60 0 -108.5 -45t-57.5 -106l-39 -242q-9 -61 24.5 -106t93.5 -45z" />
    <glyph glyph-name="otilde" unicode="&#xf5;" 
d="M501 962q-64 0 -87 78l-5 14q-5 19 -16 33q-9 9 -22 9q-18 0 -30.5 -17.5t-15.5 -35.5q-1 -14 2 -26l4 -9v-12q-3 -19 -30 -23l-7 -1h-13q-32 0 -22 76q8 50 43 90.5t82 40.5q33 0 50.5 -18t31.5 -52l10 -24q14 -41 38 -41q17 0 29.5 18.5t15.5 36.5q2 11 -2 24l-3 10
q0 2 0.5 6t0.5 5q3 19 21 22q12 3 15 3h13q32 0 21 -76q-8 -50 -42.5 -90.5t-81.5 -40.5zM270 -3q-104 0 -161 76q-62 73 -45 182l39 242q17 109 101 181q82 77 187 77q102 0 161 -77t43 -181l-39 -242q-16 -104 -99.5 -181t-186.5 -77zM286 104q56 0 108 44q49 45 58 107
l39 242q10 61 -24 107q-39 44 -94 44q-60 0 -108.5 -45t-57.5 -106l-39 -242q-9 -61 24.5 -106t93.5 -45z" />
    <glyph glyph-name="odieresis" unicode="&#xf6;" 
d="M341 1027h-17q-24 0 -38.5 18t-10.5 41l3 19q4 24 23.5 41t43.5 17h17q24 0 38.5 -17t10.5 -41l-3 -19q-4 -24 -23.5 -41.5t-43.5 -17.5zM544 1027h-18q-23 0 -37.5 18t-10.5 41l3 19q4 24 23.5 41t42.5 17h18q24 0 38.5 -17t10.5 -41l-3 -19q-4 -24 -23.5 -41.5
t-43.5 -17.5zM270 -3q-104 0 -161 76q-62 73 -45 182l39 242q17 109 101 181q82 77 187 77q102 0 161 -77t43 -181l-39 -242q-16 -104 -99.5 -181t-186.5 -77zM286 104q56 0 108 44q49 45 58 107l39 242q10 61 -24 107q-39 44 -94 44q-60 0 -108.5 -45t-57.5 -106l-39 -242
q-9 -61 24.5 -106t93.5 -45z" />
    <glyph glyph-name="divide" unicode="&#xf7;" horiz-adv-x="771" 
d="M500 659h-22q-23 0 -36 16.5t-9 39.5l4 25q3 22 22 39q19 16 41 16h22q23 0 37 -17q11 -15 8 -38l-4 -25q-3 -23 -20 -40q-21 -16 -43 -16zM747 465h-576q-34 0 -28 37l4 28q6 37 40 37h576q34 0 28 -37l-4 -28q-6 -37 -40 -37zM434 237h-22q-23 0 -36 16q-13 17 -10 40
l4 24q5 25 23 42q19 17 41 17h22q22 0 36 -17q13 -17 8 -42l-4 -24q-3 -24 -21 -40q-21 -16 -41 -16z" />
    <glyph glyph-name="oslash" unicode="&#xf8;" horiz-adv-x="562" 
d="M281 -3q-75 0 -127 40l-10 -15q-14 -22 -35 -22h-32q-17 0 -25 16l-2 3q-5 9 -4 14q2 7 8 16l40 62q-31 61 -19 144l39 242q17 109 101 181q82 77 187 77q53 0 97 -23l18 27q15 23 39 23h27q15 0 23.5 -12t6.5 -27q0 -1 -1 -4.5t-2 -5.5l-42 -63q53 -74 38 -173l-39 -242
q-16 -104 -99.5 -181t-186.5 -77zM177 239l260 397q-24 12 -53 12q-60 0 -108.5 -45t-57.5 -106l-39 -242q-1 -9 -3 -9l1 -6v-1zM297 104q56 0 108 44q49 45 58 107l39 242q6 35 -4 66l-281 -430q33 -29 80 -29z" />
    <glyph glyph-name="ugrave" unicode="&#xf9;" 
d="M455 927h-10q-25 0 -28 22l-43 207q-2 8 -1 11q2 15 20 25.5t36 10.5q23 0 29 -17l54 -208q1 -4 1 -14q-7 -37 -58 -37zM270 0q-105 0 -161 76q-61 73 -44 181l77 461q6 37 41 37h28q37 0 31 -37l-73 -461q-10 -61 24 -105.5t94 -44.5q54 0 108 43q48 45 58 107l77 461
q6 37 41 37h27q38 0 32 -37l-110 -692q-1 -10 -10 -17.5t-19 -7.5h-51q-10 0 -15.5 7.5t-4.5 17.5l4 25q-72 -51 -154 -51z" />
    <glyph glyph-name="uacute" unicode="&#xfa;" 
d="M398 927h-10q-21 0 -35 9t-11 28q0 7 5 15l120 207q11 17 35 17q18 0 32 -10.5t12 -25.5q-2 -8 -5 -10l-109 -208q-9 -22 -34 -22zM270 0q-105 0 -161 76q-61 73 -44 181l77 461q6 37 41 37h28q37 0 31 -37l-73 -461q-10 -61 24 -105.5t94 -44.5q54 0 108 43
q48 45 58 107l77 461q6 37 41 37h27q38 0 32 -37l-110 -692q-1 -10 -10 -17.5t-19 -7.5h-51q-10 0 -15.5 7.5t-4.5 17.5l4 25q-72 -51 -154 -51z" />
    <glyph glyph-name="ucircumflex" unicode="&#xfb;" 
d="M353 927h-10q-21 0 -35 9t-11 28q0 7 5 15q70 125 119 207q12 18 41 18t35 -18l37 -140q6 -28 17 -68q1 -4 1 -14q-7 -37 -58 -37h-10q-24 0 -29 22l-19 93l-48 -93q-11 -22 -35 -22zM270 0q-105 0 -161 76q-61 73 -44 181l77 461q6 37 41 37h28q37 0 31 -37l-73 -461
q-10 -61 24 -105.5t94 -44.5q54 0 108 43q48 45 58 107l77 461q6 37 41 37h27q38 0 32 -37l-110 -692q-1 -10 -10 -17.5t-19 -7.5h-51q-10 0 -15.5 7.5t-4.5 17.5l4 25q-72 -51 -154 -51z" />
    <glyph glyph-name="udieresis" unicode="&#xfc;" 
d="M341 1027h-17q-24 0 -38.5 18t-10.5 41l3 19q4 24 23.5 41t43.5 17h17q24 0 38.5 -17t10.5 -41l-3 -19q-4 -24 -23.5 -41.5t-43.5 -17.5zM544 1027h-18q-23 0 -37.5 18t-10.5 41l3 19q4 24 23.5 41t42.5 17h18q24 0 38.5 -17t10.5 -41l-3 -19q-4 -24 -23.5 -41.5
t-43.5 -17.5zM270 0q-105 0 -161 76q-61 73 -44 181l77 461q6 37 41 37h28q37 0 31 -37l-73 -461q-10 -61 24 -105.5t94 -44.5q54 0 108 43q48 45 58 107l77 461q6 37 41 37h27q38 0 32 -37l-110 -692q-1 -10 -10 -17.5t-19 -7.5h-51q-10 0 -15.5 7.5t-4.5 17.5l4 25
q-72 -51 -154 -51z" />
    <glyph glyph-name="yacute" unicode="&#xfd;" horiz-adv-x="590" 
d="M423 927h-10q-21 0 -35 9t-11 28q0 7 5 15l120 207q11 17 35 17q18 0 32 -10.5t12 -25.5q-3 -8 -5 -10l-109 -208q-9 -22 -34 -22zM16 -403l-4 -1q-13 0 -22 9q-10 13 -7 29l4 28q6 33 35 37q68 14 102 77l121 255l2 12l-113 645q0 8 1 11q2 15 13.5 26t25.5 11h31
q26 0 29 -24l89 -515l1 -2l2 2l254 515q7 24 36 24h30q20 0 27 -15q4 -8 2 -19q-2 -8 -4 -14l-460 -946q-64 -123 -195 -145z" />
    <glyph glyph-name="ydieresis" unicode="&#xff;" horiz-adv-x="590" 
d="M366 1027h-17q-24 0 -38.5 18t-10.5 41l3 19q4 24 23.5 41t43.5 17h17q24 0 38.5 -17t10.5 -41l-3 -19q-4 -24 -23.5 -41.5t-43.5 -17.5zM569 1027h-18q-23 0 -37.5 18t-10.5 41l3 19q4 24 23.5 41t42.5 17h18q24 0 38.5 -17t10.5 -41l-3 -19q-4 -24 -23.5 -41.5
t-43.5 -17.5zM16 -403l-4 -1q-13 0 -22 9q-10 13 -7 29l4 28q6 33 35 37q68 14 102 77l121 255l2 12l-113 645q0 8 1 11q2 15 13.5 26t25.5 11h31q26 0 29 -24l89 -515l1 -2l2 2l254 515q7 24 36 24h30q20 0 27 -15q4 -8 2 -19q-2 -8 -4 -14l-460 -946q-64 -123 -195 -145z
" />
    <glyph glyph-name="Cacute" unicode="&#x106;" horiz-adv-x="783" 
d="M586 1328h-10q-21 0 -35 9t-11 29q0 7 5 15l121 209q11 17 35 17q18 0 32 -10.5t12 -26.5q-3 -8 -5 -10l-110 -210q-9 -22 -34 -22zM394 0h-2q-103 0 -179.5 53.5t-109.5 141.5t-17 190l63 395q16 102 77 190t154.5 141.5t196.5 53.5h2q154 0 241.5 -114.5t62.5 -270.5
l-5 -29q-6 -35 -41 -35h-32q-11 0 -22 9q-9 10 -7 26l5 29q18 113 -45.5 196t-175.5 83t-201.5 -83t-107.5 -196l-63 -395q-18 -113 45.5 -196t175.5 -83q111 0 201 83.5t108 195.5l4 28q2 14 14 25t27 11h32q35 0 29 -36l-4 -28q-26 -157 -148.5 -271t-277.5 -114z" />
    <glyph glyph-name="cacute" unicode="&#x107;" 
d="M398 927h-10q-21 0 -35 9t-11 28q0 7 5 15l120 207q11 17 35 17q18 0 32 -10.5t12 -25.5q-2 -8 -5 -10l-109 -208q-9 -22 -34 -22zM270 -3q-104 0 -161 76q-62 73 -45 182l39 242q17 109 101 181q82 77 187 77q102 0 161 -77t43 -181l-3 -17q-6 -44 -50 -44h-19
q-8 0 -20 7l-4 2q-14 11 -11 35l3 17q10 61 -24 107q-39 44 -94 44q-60 0 -108.5 -45t-57.5 -106l-39 -242q-9 -61 24.5 -106t93.5 -45q56 0 108 44q49 45 58 107l3 16q3 25 23 36l4 2q10 6 22 6h19q42 0 36 -44l-3 -16q-16 -104 -99.5 -181t-186.5 -77z" />
    <glyph glyph-name="Ccircumflex" unicode="&#x108;" horiz-adv-x="783" 
d="M541 1328h-10q-21 0 -35.5 9t-11.5 29q0 7 5 15q14 25 56.5 99t63.5 110q12 18 42 18q29 0 35 -18l37 -142q2 -10 18 -68q1 -4 1 -14q-7 -38 -59 -38h-10q-24 0 -29 22l-19 94l-49 -94q-11 -22 -35 -22zM394 0h-2q-103 0 -179.5 53.5t-109.5 141.5t-17 190l63 395
q16 102 77 190t154.5 141.5t196.5 53.5h2q154 0 241.5 -114.5t62.5 -270.5l-5 -29q-6 -35 -41 -35h-32q-11 0 -22 9q-9 10 -7 26l5 29q18 113 -45.5 196t-175.5 83t-201.5 -83t-107.5 -196l-63 -395q-18 -113 45.5 -196t175.5 -83q111 0 201 83.5t108 195.5l4 28q2 14 14 25
t27 11h32q35 0 29 -36l-4 -28q-26 -157 -148.5 -271t-277.5 -114z" />
    <glyph glyph-name="ccircumflex" unicode="&#x109;" 
d="M353 927h-10q-21 0 -35 9t-11 28q0 7 5 15q70 125 119 207q12 18 41 18t35 -18l37 -140q6 -28 17 -68q1 -4 1 -14q-7 -37 -58 -37h-10q-24 0 -29 22l-19 93l-48 -93q-11 -22 -35 -22zM270 -3q-104 0 -161 76q-62 73 -45 182l39 242q17 109 101 181q82 77 187 77
q102 0 161 -77t43 -181l-3 -17q-6 -44 -50 -44h-19q-8 0 -20 7l-4 2q-14 11 -11 35l3 17q10 61 -24 107q-39 44 -94 44q-60 0 -108.5 -45t-57.5 -106l-39 -242q-9 -61 24.5 -106t93.5 -45q56 0 108 44q49 45 58 107l3 16q3 25 23 36l4 2q10 6 22 6h19q42 0 36 -44l-3 -16
q-16 -104 -99.5 -181t-186.5 -77z" />
    <glyph glyph-name="Ccaron" unicode="&#x10c;" horiz-adv-x="783" 
d="M607 1333q-29 0 -36 18q-26 101 -53 209q-2 8 0 15q3 19 20 28t37 9h10q25 0 28 -22l20 -94l49 94q11 22 35 22h10q21 0 36 -9t12 -28q-1 -7 -6 -15l-121 -209q-10 -18 -41 -18zM394 0h-2q-103 0 -179.5 53.5t-109.5 141.5t-17 190l63 395q16 102 77 190t154.5 141.5
t196.5 53.5h2q154 0 241.5 -114.5t62.5 -270.5l-5 -29q-6 -35 -41 -35h-32q-11 0 -22 9q-9 10 -7 26l5 29q18 113 -45.5 196t-175.5 83t-201.5 -83t-107.5 -196l-63 -395q-18 -113 45.5 -196t175.5 -83q111 0 201 83.5t108 195.5l4 28q2 14 14 25t27 11h32q35 0 29 -36
l-4 -28q-26 -157 -148.5 -271t-277.5 -114z" />
    <glyph glyph-name="ccaron" unicode="&#x10d;" 
d="M419 932q-29 0 -36 18q-28 105 -53 207q-2 7 0 15q3 18 20 27t37 9h10q25 0 28 -22l19 -93l49 93q11 22 35 22h10q20 0 35 -9t12 -27q-1 -8 -6 -15l-120 -207q-11 -18 -40 -18zM270 -3q-104 0 -161 76q-62 73 -45 182l39 242q17 109 101 181q82 77 187 77q102 0 161 -77
t43 -181l-3 -17q-6 -44 -50 -44h-19q-8 0 -20 7l-4 2q-14 11 -11 35l3 17q10 61 -24 107q-39 44 -94 44q-60 0 -108.5 -45t-57.5 -106l-39 -242q-9 -61 24.5 -106t93.5 -45q56 0 108 44q49 45 58 107l3 16q3 25 23 36l4 2q10 6 22 6h19q42 0 36 -44l-3 -16
q-16 -104 -99.5 -181t-186.5 -77z" />
    <glyph glyph-name="Ecaron" unicode="&#x11a;" horiz-adv-x="698" 
d="M563 1333q-29 0 -36 18q-26 101 -53 209q-2 8 0 15q3 19 20 28t37 9h10q25 0 28 -22l20 -94l49 94q11 22 35 22h10q21 0 36 -9t12 -28q-1 -7 -6 -15l-121 -209q-10 -18 -41 -18zM638 0h-577q-14 0 -23 11.5t-7 25.5l173 1091q1 15 15 27q15 10 27 10h577q35 0 29 -37
l-6 -33q-4 -36 -40 -36h-495q-6 0 -11 -5q-4 -6 -6 -11l-59 -371q-1 -15 12 -15h433q36 0 30 -37l-5 -35q-6 -36 -40 -36h-435q-14 0 -17 -16l-64 -409q-3 -17 11 -17h495q35 0 29 -37l-5 -33q-2 -15 -14 -26t-27 -11z" />
    <glyph glyph-name="ecaron" unicode="&#x11b;" 
d="M419 932q-29 0 -36 18q-28 105 -53 207q-2 7 0 15q3 18 20 27t37 9h10q25 0 28 -22l19 -93l49 93q11 22 35 22h10q20 0 35 -9t12 -27q-1 -8 -6 -15l-120 -207q-11 -18 -40 -18zM270 -3q-104 0 -161 76q-62 73 -45 182l39 242q17 109 101 181q82 77 187 77q102 0 161 -77
t43 -181l-19 -118q-1 -10 -10 -17t-19 -7l-359 -1q-2 0 -5 -5l-15 -94q-9 -61 24.5 -106t93.5 -45q56 0 108 44q49 45 58 107l3 16q3 25 23 36l4 2q10 6 22 6h19q42 0 36 -44l-3 -16q-16 -104 -99.5 -181t-186.5 -77zM204 456l275 1q6 0 6 5l6 35q10 61 -24 107
q-39 44 -94 44q-60 0 -108.5 -45t-57.5 -106l-6 -36q0 -3 3 -5z" />
    <glyph glyph-name="Gcircumflex" unicode="&#x11c;" horiz-adv-x="783" 
d="M541 1328h-10q-21 0 -35.5 9t-11.5 29q0 7 5 15q14 25 56.5 99t63.5 110q12 18 42 18q29 0 35 -18l37 -142q2 -10 18 -68q1 -4 1 -14q-7 -38 -59 -38h-10q-24 0 -29 22l-19 94l-49 -94q-11 -22 -35 -22zM394 0h-2q-103 0 -179.5 53.5t-109.5 141.5t-17 190l63 395
q16 102 77 190t154.5 141.5t196.5 53.5h2q154 0 241.5 -114.5t62.5 -270.5l-5 -29q-6 -35 -41 -35h-32q-11 0 -22 9q-9 10 -7 26l5 29q18 113 -45.5 196t-175.5 83t-201.5 -83t-107.5 -196l-63 -395q-18 -113 45.5 -196t175.5 -83q98 0 182.5 67t115.5 165l33 211h-272
q-36 0 -30 38l5 31q6 39 42 39h342q14 0 22.5 -12.5t6.5 -26.5l-92 -581q-2 -14 -15 -25.5t-26 -11.5h-33q-14 0 -23 11.5t-7 25.5l12 79l-2 -3q-127 -113 -276 -113z" />
    <glyph glyph-name="gcircumflex" unicode="&#x11d;" horiz-adv-x="575" 
d="M371 927h-10q-21 0 -35 9t-11 28q0 7 5 15q70 125 119 207q12 18 41 18t35 -18l37 -140q6 -28 17 -68q1 -4 1 -14q-7 -37 -58 -37h-10q-24 0 -29 22l-19 93l-48 -93q-11 -22 -35 -22zM203 -450q-106 0 -161 76q-62 73 -45 181l1 4q15 97 83 165q-16 48 -9 98l1 5
q11 70 56 118l-1 1q-61 72 -44 181l19 118q17 109 101 181q82 77 187 77q11 0 29 -2h214q35 0 29 -38l-4 -28q-6 -35 -41 -35h-46v-2q36 -70 23 -153l-19 -118q-17 -104 -100.5 -180.5t-186.5 -76.5q-47 0 -84 15q-23 -23 -29 -64q-4 -18 -1 -28q53 24 111 24
q103 0 161.5 -77t41.5 -181l-1 -4q-16 -104 -99 -180.5t-186 -76.5zM306 228q55 0 108 44q48 45 58 107l19 118q10 61 -24 107q-39 44 -94 44q-60 0 -108.5 -45t-57.5 -106l-19 -118q-9 -61 24.5 -106t93.5 -45zM220 -343q55 0 107 43q50 48 58 107l1 4q10 59 -24 107
q-38 44 -94 44q-60 0 -108 -45t-58 -106l-1 -4q-9 -61 25 -105.5t94 -44.5z" />
    <glyph glyph-name="Itilde" unicode="&#x128;" horiz-adv-x="149" 
d="M364 1366q-65 0 -88 78l-5 14q-6 21 -16 34q-9 9 -22 9q-18 0 -31 -18t-16 -36q-1 -14 2 -26l4 -9v-12q-3 -19 -30 -23l-7 -1h-13q-32 0 -22 76q8 51 43 91.5t83 40.5q33 0 50.5 -18t32.5 -52l10 -24q13 -42 38 -42q17 0 29.5 19t15.5 37q2 11 -2 24l-3 10q0 2 0.5 6
t0.5 5q3 19 22 22q12 3 15 3h13q32 0 21 -76q-8 -51 -43 -91.5t-82 -40.5zM89 0h-31q-36 0 -30 37l173 1091q6 37 42 37h31q37 0 31 -37l-173 -1091q-6 -37 -43 -37z" />
    <glyph glyph-name="itilde" unicode="&#x129;" horiz-adv-x="165" 
d="M308 962q-64 0 -87 78l-5 14q-5 19 -16 33q-9 9 -22 9q-18 0 -30.5 -17.5t-15.5 -35.5q-1 -14 2 -26l4 -9v-12q-3 -19 -30 -23l-7 -1h-13q-32 0 -22 76q8 50 43 90.5t82 40.5q33 0 50.5 -18t31.5 -52l10 -24q14 -41 38 -41q17 0 29.5 18.5t15.5 36.5q2 11 -2 24l-3 10
q0 2 0.5 6t0.5 5q3 19 21 22q12 3 15 3h13q32 0 21 -76q-8 -50 -42.5 -90.5t-81.5 -40.5zM100 0h-28q-36 0 -30 36l105 665q1 9 14 24q14 11 28 11h28q14 0 23 -11q8 -10 6 -24l-105 -665q-6 -36 -41 -36z" />
    <glyph glyph-name="dotlessi" unicode="&#x131;" horiz-adv-x="172" 
d="M100 0h-28q-36 0 -30 36l105 665q1 9 14 24q14 11 28 11h28q14 0 23 -11q8 -10 6 -24l-105 -665q-6 -36 -41 -36z" />
    <glyph glyph-name="Nacute" unicode="&#x143;" horiz-adv-x="783" 
d="M586 1328h-10q-21 0 -35 9t-11 29q0 7 5 15l121 209q11 17 35 17q18 0 32 -10.5t12 -26.5q-3 -8 -5 -10l-110 -210q-9 -22 -34 -22zM92 0h-31q-36 0 -30 37l173 1091q6 37 42 37h89q18 0 26 -21l314 -1009l2 -1l1 1l158 993q2 15 14.5 27t27.5 12h31q35 0 29 -39
l-173 -1091q-6 -37 -41 -37h-89q-23 0 -28 23l-315 1008v2q-2 0 -2 -2l-157 -994q-6 -37 -41 -37z" />
    <glyph glyph-name="nacute" unicode="&#x144;" 
d="M398 927h-10q-21 0 -35 9t-11 28q0 7 5 15l120 207q11 17 35 17q18 0 32 -10.5t12 -25.5q-2 -8 -5 -10l-109 -208q-9 -22 -34 -22zM89 0h-28q-37 0 -31 36l109 693q2 10 10.5 17.5t18.5 7.5h50q10 0 16.5 -7.5t4.5 -17.5l-3 -25q70 51 154 51q105 -2 160 -77
q62 -73 45 -181l-77 -461q-6 -36 -42 -36h-27q-37 0 -31 36l73 461q9 61 -24.5 106t-93.5 45q-56 0 -108 -44q-48 -45 -58 -107l-77 -461q-6 -36 -41 -36z" />
    <glyph glyph-name="Ncaron" unicode="&#x147;" horiz-adv-x="783" 
d="M607 1333q-29 0 -36 18q-26 101 -53 209q-2 8 0 15q3 19 20 28t37 9h10q25 0 28 -22l20 -94l49 94q11 22 35 22h10q21 0 36 -9t12 -28q-1 -7 -6 -15l-121 -209q-10 -18 -41 -18zM92 0h-31q-36 0 -30 37l173 1091q6 37 42 37h89q18 0 26 -21l314 -1009l2 -1l1 1l158 993
q2 15 14.5 27t27.5 12h31q35 0 29 -39l-173 -1091q-6 -37 -41 -37h-89q-23 0 -28 23l-315 1008v2q-2 0 -2 -2l-157 -994q-6 -37 -41 -37z" />
    <glyph glyph-name="ncaron" unicode="&#x148;" 
d="M419 932q-29 0 -36 18q-28 105 -53 207q-2 7 0 15q3 18 20 27t37 9h10q25 0 28 -22l19 -93l49 93q11 22 35 22h10q20 0 35 -9t12 -27q-1 -8 -6 -15l-120 -207q-11 -18 -40 -18zM89 0h-28q-37 0 -31 36l109 693q2 10 10.5 17.5t18.5 7.5h50q10 0 16.5 -7.5t4.5 -17.5
l-3 -25q70 51 154 51q105 -2 160 -77q62 -73 45 -181l-77 -461q-6 -36 -42 -36h-27q-37 0 -31 36l73 461q9 61 -24.5 106t-93.5 45q-56 0 -108 -44q-48 -45 -58 -107l-77 -461q-6 -36 -41 -36z" />
    <glyph glyph-name="OE" unicode="&#x152;" horiz-adv-x="1375" 
d="M1280 -6h-578q-13 0 -22 11.5t-7 25.5l14 89q-129 -120 -283 -120h-2q-103 0 -179.5 53.5t-109.5 141.5t-17 190l63 395q16 102 77 190t154.5 141.5t196.5 53.5h2q149 0 239 -113q3 -4 3 -3l3 -4l12 78q1 14 15 26q15 10 26 10h578q35 0 29 -36l-6 -34q-4 -36 -40 -36
h-495q-6 0 -11 -5t-7 -11l-58 -370q-3 -16 12 -16h433q36 0 30 -37l-5 -35q-6 -35 -41 -35h-434q-15 0 -18 -17l-64 -409q-3 -16 12 -16h495q35 0 29 -38l-5 -33q-3 -15 -14.5 -26t-26.5 -11zM419 106q111 0 201 83.5t108 195.5l63 395q18 113 -45.5 196t-175.5 83
t-201.5 -83t-107.5 -196l-63 -395q-18 -113 45.5 -196t175.5 -83z" />
    <glyph glyph-name="oe" unicode="&#x153;" horiz-adv-x="953" 
d="M281 -3q-104 0 -161 76q-62 73 -45 182l39 242q17 109 101 181q82 77 187 77q56 0 103 -27t74 -74q98 101 211 101q103 0 161.5 -77t42.5 -181l-19 -118q-1 -10 -9.5 -17t-18.5 -7l-359 -1q-4 0 -6 -5l-15 -94q-9 -61 24.5 -106t93.5 -45q58 0 108 44q49 45 58 107l3 16
q3 24 24 36l3 2q12 6 23 6h19q41 0 35 -44l-3 -16q-16 -104 -99 -181t-187 -77q-111 0 -179 100q-41 -46 -96.5 -73t-112.5 -27zM297 104q56 0 108 44q49 45 58 107l39 242q10 61 -24 107q-39 44 -94 44q-60 0 -108.5 -45t-57.5 -106l-39 -242q-9 -61 24.5 -106t93.5 -45z
M604 456l275 1q5 0 5 5l6 35q10 61 -24 107q-38 44 -94 44q-60 0 -108.5 -45.5t-57.5 -105.5l-6 -36q0 -3 4 -5z" />
    <glyph glyph-name="Racute" unicode="&#x154;" horiz-adv-x="772" 
d="M580 1328h-10q-21 0 -35 9t-11 29q0 7 5 15l121 209q11 17 35 17q18 0 32 -10.5t12 -26.5q-3 -8 -5 -10l-110 -210q-9 -22 -34 -22zM92 0h-31q-36 0 -30 37l173 1091q6 37 42 37h410q117 0 183.5 -82.5t48.5 -199.5q-14 -91 -80.5 -168t-156.5 -104q78 -89 102 -217
t2 -268l-14 -89q-6 -37 -43 -37h-31q-21 0 -26.5 9t-1.5 34l2 7l12 76q15 80 7.5 160.5t-29 146.5t-66 111.5t-103.5 55.5h-224l-12 -1q-3 -4 -4 -12l-87 -550q-6 -37 -43 -37zM255 705h328q73 0 132 52.5t71 125.5q11 72 -32 124t-115 52h-328l-4 -2l-1 -2h-5q-5 -4 -7 -14
l-50 -317q-3 -19 11 -19z" />
    <glyph glyph-name="racute" unicode="&#x155;" horiz-adv-x="383" 
d="M317 927h-10q-21 0 -35 9t-11 28q0 7 5 15l120 207q11 17 35 17q18 0 32 -10.5t12 -25.5q-3 -8 -5 -10l-109 -208q-9 -22 -34 -22zM89 0h-28q-37 0 -31 36l109 693q2 10 10.5 17.5t18.5 7.5h50q10 0 16.5 -7.5t4.5 -17.5l-3 -25q70 51 154 51q33 0 71 -12q15 -6 12 -22
l-9 -56q-5 -28 -32 -28q-8 0 -12 2q-22 9 -47 9q-56 0 -108 -44q-48 -45 -58 -107l-77 -461q-6 -36 -41 -36z" />
    <glyph glyph-name="Rcaron" unicode="&#x158;" horiz-adv-x="772" 
d="M601 1333q-29 0 -36 18q-26 101 -53 209q-2 8 0 15q3 19 20 28t37 9h10q25 0 28 -22l20 -94l49 94q11 22 35 22h10q21 0 36 -9t12 -28q-1 -7 -6 -15l-121 -209q-10 -18 -41 -18zM92 0h-31q-36 0 -30 37l173 1091q6 37 42 37h410q117 0 183.5 -82.5t48.5 -199.5
q-14 -91 -80.5 -168t-156.5 -104q78 -89 102 -217t2 -268l-14 -89q-6 -37 -43 -37h-31q-21 0 -26.5 9t-1.5 34l2 7l12 76q15 80 7.5 160.5t-29 146.5t-66 111.5t-103.5 55.5h-224l-12 -1q-3 -4 -4 -12l-87 -550q-6 -37 -43 -37zM255 705h328q73 0 132 52.5t71 125.5
q11 72 -32 124t-115 52h-328l-4 -2l-1 -2h-5q-5 -4 -7 -14l-50 -317q-3 -19 11 -19z" />
    <glyph glyph-name="rcaron" unicode="&#x159;" horiz-adv-x="383" 
d="M338 932q-28 0 -36 18q-28 105 -53 207q-1 7 0 15q3 18 20 27t37 9h10q25 0 28 -22l19 -93l49 93q11 22 35 22h10q21 0 35.5 -9t11.5 -27q-2 -8 -6 -15l-120 -207q-10 -18 -40 -18zM89 0h-28q-37 0 -31 36l109 693q2 10 10.5 17.5t18.5 7.5h50q10 0 16.5 -7.5t4.5 -17.5
l-3 -25q70 51 154 51q33 0 71 -12q15 -6 12 -22l-9 -56q-5 -28 -32 -28q-8 0 -12 2q-22 9 -47 9q-56 0 -108 -44q-48 -45 -58 -107l-77 -461q-6 -36 -41 -36z" />
    <glyph glyph-name="Sacute" unicode="&#x15a;" horiz-adv-x="773" 
d="M581 1328h-10q-21 0 -35 9t-11 29q0 7 5 15l121 209q11 17 35 17q18 0 32 -10.5t12 -26.5q-2 -8 -5 -10l-110 -210q-9 -22 -34 -22zM398 -10q-151 0 -234 83.5t-67 217.5l5 28q2 14 15 25t27 11h36q38 0 33 -36l-4 -25q-14 -88 43 -142t164 -54q106 0 180 54t88 142
q12 78 -18.5 125.5t-120.5 78.5l-194 64v1q-224 83 -190 297q22 139 133.5 226.5t265.5 87.5q151 0 237 -84t64 -217l-4 -28q-2 -14 -15.5 -25t-27.5 -11h-37q-37 0 -31 36l4 25q14 88 -43.5 142t-163.5 54q-107 0 -181.5 -54t-87.5 -142q-13 -80 18.5 -127.5t126.5 -78.5
v-1l167 -55q125 -40 177 -115t34 -189q-22 -139 -133.5 -226.5t-265.5 -87.5z" />
    <glyph glyph-name="sacute" unicode="&#x15b;" horiz-adv-x="523" 
d="M389 927h-10q-21 0 -35 9t-11 28q0 7 5 15l120 207q11 17 35 17q18 0 32 -10.5t12 -25.5q-3 -8 -5 -10l-109 -208q-9 -22 -34 -22zM268 -4q-98 0 -153 56t-44 144l3 18q3 20 20 30q15 10 27 10h21q41 0 35 -40l-3 -16q-7 -45 23.5 -72.5t87.5 -27.5t95 27.5t45 72.5
q8 44 -8.5 67t-65.5 38l-113 38q-152 55 -128 200q14 91 87.5 149.5t174.5 58.5q100 0 155 -56t42 -144l-3 -18q-3 -22 -21 -30q-13 -10 -26 -10h-21q-41 0 -35 40l3 16q7 45 -23.5 72.5t-87.5 27.5t-95 -27.5t-45 -72.5q-8 -44 10 -68t70 -40l98 -33q161 -52 137 -202
q-14 -91 -87.5 -149.5t-174.5 -58.5z" />
    <glyph glyph-name="Scircumflex" unicode="&#x15c;" horiz-adv-x="773" 
d="M536 1328h-10q-21 0 -35.5 9t-11.5 29q0 7 5 15q14 25 56.5 99t63.5 110q12 18 42 18q29 0 35 -18l37 -142q2 -10 18 -68q1 -4 1 -14q-7 -38 -59 -38h-10q-24 0 -29 22l-19 94l-49 -94q-11 -22 -35 -22zM398 -10q-151 0 -234 83.5t-67 217.5l5 28q2 14 15 25t27 11h36
q38 0 33 -36l-4 -25q-14 -88 43 -142t164 -54q106 0 180 54t88 142q12 78 -18.5 125.5t-120.5 78.5l-194 64v1q-224 83 -190 297q22 139 133.5 226.5t265.5 87.5q151 0 237 -84t64 -217l-4 -28q-2 -14 -15.5 -25t-27.5 -11h-37q-37 0 -31 36l4 25q14 88 -43.5 142t-163.5 54
q-107 0 -181.5 -54t-87.5 -142q-13 -80 18.5 -127.5t126.5 -78.5v-1l167 -55q125 -40 177 -115t34 -189q-22 -139 -133.5 -226.5t-265.5 -87.5z" />
    <glyph glyph-name="scircumflex" unicode="&#x15d;" horiz-adv-x="523" 
d="M344 927h-10q-21 0 -35 9t-11 28q0 7 5 15q70 125 119 207q12 18 41 18t35 -18l37 -140q6 -28 17 -68q1 -4 1 -14q-7 -37 -58 -37h-10q-24 0 -29 22l-19 93l-48 -93q-11 -22 -35 -22zM268 -4q-98 0 -153 56t-44 144l3 18q3 20 20 30q15 10 27 10h21q41 0 35 -40l-3 -16
q-7 -45 23.5 -72.5t87.5 -27.5t95 27.5t45 72.5q8 44 -8.5 67t-65.5 38l-113 38q-152 55 -128 200q14 91 87.5 149.5t174.5 58.5q100 0 155 -56t42 -144l-3 -18q-3 -22 -21 -30q-13 -10 -26 -10h-21q-41 0 -35 40l3 16q7 45 -23.5 72.5t-87.5 27.5t-95 -27.5t-45 -72.5
q-8 -44 10 -68t70 -40l98 -33q161 -52 137 -202q-14 -91 -87.5 -149.5t-174.5 -58.5z" />
    <glyph glyph-name="Scedilla" unicode="&#x15e;" horiz-adv-x="794" 
d="M358 -245q-51 0 -81 39t-22 87q7 42 51 42h4q34 0 36 -38l3 -20q6 -21 23 -21q14 0 26 14t15 32q3 30 -15 43l-28 34q-9 12 -12 26q-129 13 -197.5 94t-53.5 204l5 28q2 14 15 25t27 11h36q38 0 33 -36l-4 -25q-14 -88 43 -142t164 -54q106 0 180 54t88 142
q12 78 -18.5 125.5t-120.5 78.5l-194 64v1q-224 83 -190 297q22 139 133.5 226.5t265.5 87.5q151 0 237 -84t64 -217l-4 -28q-2 -14 -15.5 -25t-27.5 -11h-37q-37 0 -31 36l4 25q14 88 -43.5 142t-163.5 54q-107 0 -181.5 -54t-87.5 -142q-13 -80 18.5 -127.5t126.5 -78.5
v-1l167 -55q125 -40 177 -115t34 -189q-19 -124 -110.5 -208t-222.5 -101q39 -40 29 -105q-8 -52 -48.5 -93.5t-96.5 -41.5z" />
    <glyph glyph-name="scedilla" unicode="&#x15f;" horiz-adv-x="544" 
d="M234 -243q-51 0 -80.5 39t-22.5 86q7 42 51 42h4q34 0 36 -38l3 -19q3 -21 23 -21q14 0 25.5 13.5t14.5 31.5q3 29 -14 43l-29 33q-11 20 -13 33q-76 14 -117.5 67t-32.5 129l3 18q3 20 20 30q15 10 27 10h21q41 0 35 -40l-3 -16q-7 -45 23 -72.5t88 -27.5q57 0 95 27.5
t45 72.5q8 44 -8.5 67t-65.5 38l-113 38q-152 55 -128 200q14 91 87.5 149.5t174.5 58.5q100 0 155 -56t42 -144l-3 -18q-3 -22 -21 -30q-13 -10 -26 -10h-21q-41 0 -35 40l3 16q7 45 -23 72.5t-88 27.5q-57 0 -95 -27.5t-45 -72.5q-8 -44 10 -68t70 -40l98 -33
q161 -52 137 -202q-12 -76 -66.5 -130.5t-133.5 -71.5q47 -41 36 -111q-8 -51 -47.5 -92.5t-95.5 -41.5z" />
    <glyph glyph-name="Scaron" unicode="&#x160;" horiz-adv-x="773" 
d="M602 1333q-28 0 -36 18q-26 101 -53 209q-1 8 0 15q3 19 20 28t37 9h10q25 0 28 -22l20 -94l49 94q11 22 35 22h10q21 0 36 -9t12 -28q-2 -7 -6 -15l-121 -209q-11 -18 -41 -18zM398 -10q-151 0 -234 83.5t-67 217.5l5 28q2 14 15 25t27 11h36q38 0 33 -36l-4 -25
q-14 -88 43 -142t164 -54q106 0 180 54t88 142q12 78 -18.5 125.5t-120.5 78.5l-194 64v1q-224 83 -190 297q22 139 133.5 226.5t265.5 87.5q151 0 237 -84t64 -217l-4 -28q-2 -14 -15.5 -25t-27.5 -11h-37q-37 0 -31 36l4 25q14 88 -43.5 142t-163.5 54q-107 0 -181.5 -54
t-87.5 -142q-13 -80 18.5 -127.5t126.5 -78.5v-1l167 -55q125 -40 177 -115t34 -189q-22 -139 -133.5 -226.5t-265.5 -87.5z" />
    <glyph glyph-name="scaron" unicode="&#x161;" horiz-adv-x="523" 
d="M410 932q-28 0 -36 18q-28 105 -53 207q-1 7 0 15q3 18 20 27t37 9h10q25 0 28 -22l19 -93l49 93q11 22 35 22h10q21 0 35.5 -9t11.5 -27q-2 -8 -6 -15l-120 -207q-11 -18 -40 -18zM268 -4q-98 0 -153 56t-44 144l3 18q3 20 20 30q15 10 27 10h21q41 0 35 -40l-3 -16
q-7 -45 23.5 -72.5t87.5 -27.5t95 27.5t45 72.5q8 44 -8.5 67t-65.5 38l-113 38q-152 55 -128 200q14 91 87.5 149.5t174.5 58.5q100 0 155 -56t42 -144l-3 -18q-3 -22 -21 -30q-13 -10 -26 -10h-21q-41 0 -35 40l3 16q7 45 -23.5 72.5t-87.5 27.5t-95 -27.5t-45 -72.5
q-8 -44 10 -68t70 -40l98 -33q161 -52 137 -202q-14 -91 -87.5 -149.5t-174.5 -58.5z" />
    <glyph glyph-name="Utilde" unicode="&#x168;" horiz-adv-x="783" 
d="M691 1366q-65 0 -88 78l-5 14q-6 21 -16 34q-9 9 -22 9q-18 0 -31 -18t-16 -36q-1 -14 2 -26l4 -9v-12q-3 -19 -30 -23l-7 -1h-13q-32 0 -22 76q8 51 43 91.5t83 40.5q33 0 50.5 -18t32.5 -52l10 -24q13 -42 38 -42q17 0 29.5 19t15.5 37q2 11 -2 24l-3 10q0 2 0.5 6
t0.5 5q3 19 22 22q12 3 15 3h13q32 0 21 -76q-8 -51 -43 -91.5t-82 -40.5zM394 0h-2q-103 0 -179.5 53.5t-109.5 141.5t-17 190l118 743q6 37 42 37h31q35 0 29 -37l-118 -743q-18 -113 45.5 -196t175.5 -83t201.5 83.5t107.5 195.5l118 743q2 15 14 26t27 11h32
q35 0 29 -37l-118 -743q-25 -155 -148 -270t-278 -115z" />
    <glyph glyph-name="utilde" unicode="&#x169;" 
d="M501 962q-64 0 -87 78l-5 14q-5 19 -16 33q-9 9 -22 9q-18 0 -30.5 -17.5t-15.5 -35.5q-1 -14 2 -26l4 -9v-12q-3 -19 -30 -23l-7 -1h-13q-32 0 -22 76q8 50 43 90.5t82 40.5q33 0 50.5 -18t31.5 -52l10 -24q14 -41 38 -41q17 0 29.5 18.5t15.5 36.5q2 11 -2 24l-3 10
q0 2 0.5 6t0.5 5q3 19 21 22q12 3 15 3h13q32 0 21 -76q-8 -50 -42.5 -90.5t-81.5 -40.5zM270 0q-105 0 -161 76q-61 73 -44 181l77 461q6 37 41 37h28q37 0 31 -37l-73 -461q-10 -61 24 -105.5t94 -44.5q54 0 108 43q48 45 58 107l77 461q6 37 41 37h27q38 0 32 -37
l-110 -692q-1 -10 -10 -17.5t-19 -7.5h-51q-10 0 -15.5 7.5t-4.5 17.5l4 25q-72 -51 -154 -51z" />
    <glyph glyph-name="Ubreve" unicode="&#x16c;" horiz-adv-x="783" 
d="M394 0h-2q-103 0 -179.5 53.5t-109.5 141.5t-17 190l118 743q6 37 42 37h31q35 0 29 -37l-118 -743q-18 -113 45.5 -196t175.5 -83t201.5 83.5t107.5 195.5l118 743q2 15 14 26t27 11h32q35 0 29 -37l-118 -743q-25 -155 -148 -270t-278 -115z" />
    <glyph glyph-name="ubreve" unicode="&#x16d;" 
d="M270 0q-105 0 -161 76q-61 73 -44 181l77 461q6 37 41 37h28q37 0 31 -37l-73 -461q-10 -61 24 -105.5t94 -44.5q54 0 108 43q48 45 58 107l77 461q6 37 41 37h27q38 0 32 -37l-110 -692q-1 -10 -10 -17.5t-19 -7.5h-51q-10 0 -15.5 7.5t-4.5 17.5l4 25q-72 -51 -154 -51
z" />
    <glyph glyph-name="Uring" unicode="&#x16e;" horiz-adv-x="783" 
d="M610 1348q-51 0 -79 36.5t-20 87.5t48.5 88.5t89.5 37.5q51 0 79 -37.5t20 -88.5t-47.5 -87.5t-90.5 -36.5zM622 1425q18 0 34 14.5t18 32.5q4 18 -7 34q-13 13 -30 13q-20 0 -31 -14q-14 -12 -19 -33q-2 -20 8 -32q9 -15 27 -15zM394 0h-2q-103 0 -179.5 53.5
t-109.5 141.5t-17 190l118 743q6 37 42 37h31q35 0 29 -37l-118 -743q-18 -113 45.5 -196t175.5 -83t201.5 83.5t107.5 195.5l118 743q2 15 14 26t27 11h32q35 0 29 -37l-118 -743q-25 -155 -148 -270t-278 -115z" />
    <glyph glyph-name="uring" unicode="&#x16f;" 
d="M422 947q-50 0 -78 36t-20 87q8 50 48 87t89 37q50 0 78 -37t20 -87q-8 -51 -47 -87t-90 -36zM434 1023q18 0 34 14.5t18 32.5q4 17 -7 33q-13 13 -30 13q-20 0 -31 -14q-14 -12 -19 -32q-2 -20 8 -32q9 -15 27 -15zM270 0q-105 0 -161 76q-61 73 -44 181l77 461
q6 37 41 37h28q37 0 31 -37l-73 -461q-10 -61 24 -105.5t94 -44.5q54 0 108 43q48 45 58 107l77 461q6 37 41 37h27q38 0 32 -37l-110 -692q-1 -10 -10 -17.5t-19 -7.5h-51q-10 0 -15.5 7.5t-4.5 17.5l4 25q-72 -51 -154 -51z" />
    <glyph glyph-name="Wcircumflex" unicode="&#x174;" horiz-adv-x="1143" 
d="M725 1328h-10q-21 0 -35.5 9t-11.5 29q0 7 5 15q14 25 56.5 99t63.5 110q12 18 42 18q29 0 35 -18l37 -142q2 -10 18 -68q1 -4 1 -14q-7 -38 -59 -38h-10q-24 0 -29 22l-19 94l-49 -94q-11 -22 -35 -22zM330 0h-86q-25 0 -27 31l-11 1109q3 25 25 25h44q25 0 27 -29
l11 -991l367 991q11 29 38 29h77q26 0 28 -29l54 -989l324 989q11 29 37 29h44q20 0 17 -25l-363 -1109q-11 -31 -37 -31h-86q-25 0 -28 28l-53 985l-366 -985q-12 -28 -36 -28z" />
    <glyph glyph-name="wcircumflex" unicode="&#x175;" horiz-adv-x="892" 
d="M533 927h-10q-21 0 -35 9t-11 28q0 7 5 15q70 125 119 207q12 18 41 18t35 -18l37 -140q6 -28 17 -68q1 -4 1 -14q-7 -37 -58 -37h-10q-24 0 -29 22l-19 93l-48 -93q-11 -22 -35 -22zM286 0h-77q-22 0 -28 28l-47 661q0 7 1 10q2 15 13.5 26t25.5 11h29q26 0 26 -28
l43 -562l1 1l219 561q9 28 38 28h63q27 0 28 -28l43 -565v1l221 564q9 28 37 28h28q14 0 21.5 -11t5.5 -26q0 -1 -0.5 -3l-1 -4t-1.5 -3l-259 -661q-8 -28 -34 -28h-79q-23 0 -29 28l-38 540l-212 -540q-13 -28 -37 -28z" />
    <glyph glyph-name="Ycircumflex" unicode="&#x176;" horiz-adv-x="758" 
d="M528 1328h-10q-21 0 -35.5 9t-11.5 29q0 7 5 15q14 25 56.5 99t63.5 110q12 18 42 18q29 0 35 -18l37 -142q2 -10 18 -68q1 -4 1 -14q-7 -38 -59 -38h-10q-24 0 -29 22l-19 94l-49 -94q-11 -22 -35 -22zM394 0h-31q-36 0 -30 37l48 301l-174 794q-2 6 -1 9q3 24 27 24h55
q19 0 28 -23l141 -648l347 648q15 23 39 23h53q21 0 18 -24l-1 -4l-429 -793l-48 -308q-12 -36 -42 -36z" />
    <glyph glyph-name="ycircumflex" unicode="&#x177;" horiz-adv-x="590" 
d="M378 927h-10q-21 0 -35 9t-11 28q0 7 5 15q70 125 119 207q12 18 41 18t35 -18l37 -140q6 -28 17 -68q1 -4 1 -14q-7 -37 -58 -37h-10q-24 0 -29 22l-19 93l-48 -93q-11 -22 -35 -22zM16 -403l-4 -1q-13 0 -22 9q-10 13 -7 29l4 28q6 33 35 37q68 14 102 77l121 255l2 12
l-113 645q0 8 1 11q2 15 13.5 26t25.5 11h31q26 0 29 -24l89 -515l1 -2l2 2l254 515q7 24 36 24h30q20 0 27 -15q4 -8 2 -19q-2 -8 -4 -14l-460 -946q-64 -123 -195 -145z" />
    <glyph glyph-name="Ydieresis" unicode="&#x178;" horiz-adv-x="758" 
d="M515 1429h-17q-25 0 -39.5 18t-10.5 42l3 19q4 24 24 41t44 17h17q24 0 38.5 -17t10.5 -41l-3 -19q-4 -24 -23.5 -42t-43.5 -18zM720 1429h-19q-23 0 -37.5 18t-10.5 42l3 19q4 24 23.5 41t43.5 17h18q24 0 38.5 -17t10.5 -41l-3 -19q-4 -24 -23.5 -42t-43.5 -18zM394 0
h-31q-36 0 -30 37l48 301l-174 794q-2 6 -1 9q3 24 27 24h55q19 0 28 -23l141 -648l347 648q15 23 39 23h53q21 0 18 -24l-1 -4l-429 -793l-48 -308q-12 -36 -42 -36z" />
    <glyph glyph-name="Zacute" unicode="&#x179;" horiz-adv-x="779" 
d="M584 1328h-10q-21 0 -35 9t-11 29q0 7 5 15l121 209q11 17 35 17q18 0 32 -10.5t12 -26.5q-3 -8 -5 -10l-110 -210q-9 -22 -34 -22zM718 0h-654q-37 0 -31 37l15 93q1 11 10 20l759 908v1h-589q-34 0 -30 36l6 33q6 37 41 37h656q35 0 29 -37l-15 -93q0 -1 -1 -3.5t-3 -7
t-3 -8.5l-760 -909h587q15 0 24 -11q10 -12 7 -26l-5 -33q-6 -37 -43 -37z" />
    <glyph glyph-name="zacute" unicode="&#x17a;" horiz-adv-x="524" 
d="M390 927h-10q-21 0 -35 9t-11 28q0 7 5 15l120 207q11 17 35 17q18 0 32 -10.5t12 -25.5q-2 -8 -5 -10l-109 -208q-9 -22 -34 -22zM468 0h-412q-14 0 -21 12t-5 26l14 89q2 11 11 24l452 480h-318q-32 0 -26 38l5 30q6 37 38 37h378q14 0 21 -11.5t5 -25.5l-14 -89
q-3 -14 -12 -25l-455 -482h355q32 0 26 -36l-5 -29q-6 -38 -37 -38z" />
    <glyph glyph-name="Zcaron" unicode="&#x17d;" horiz-adv-x="779" 
d="M605 1333q-29 0 -36 18q-26 101 -53 209q-2 8 0 15q3 19 20 28t37 9h10q25 0 28 -22l20 -94l49 94q11 22 35 22h10q21 0 36 -9t12 -28q-1 -7 -6 -15l-121 -209q-10 -18 -41 -18zM718 0h-654q-37 0 -31 37l15 93q1 11 10 20l759 908v1h-589q-34 0 -30 36l6 33q6 37 41 37
h656q35 0 29 -37l-15 -93q0 -1 -1 -3.5t-3 -7t-3 -8.5l-760 -909h587q15 0 24 -11q10 -12 7 -26l-5 -33q-6 -37 -43 -37z" />
    <glyph glyph-name="zcaron" unicode="&#x17e;" horiz-adv-x="524" 
d="M411 932q-29 0 -36 18q-28 105 -53 207q-2 7 0 15q3 18 20 27t37 9h10q25 0 28 -22l19 -93l49 93q11 22 35 22h10q20 0 35 -9t12 -27q-1 -8 -6 -15l-120 -207q-11 -18 -40 -18zM468 0h-412q-14 0 -21 12t-5 26l14 89q2 11 11 24l452 480h-318q-32 0 -26 38l5 30
q6 37 38 37h378q14 0 21 -11.5t5 -25.5l-14 -89q-3 -14 -12 -25l-455 -482h355q32 0 26 -36l-5 -29q-6 -38 -37 -38z" />
    <glyph glyph-name="circumflex" unicode="&#x2c6;" horiz-adv-x="526" 
d="M317 927h-10q-21 0 -35 9t-11 28q0 7 5 15q70 125 119 207q12 18 41 18t35 -18l37 -140q6 -28 17 -68q1 -4 1 -14q-7 -37 -58 -37h-10q-24 0 -29 22l-19 93l-48 -93q-11 -22 -35 -22z" />
    <glyph glyph-name="caron" unicode="&#x2c7;" horiz-adv-x="526" 
d="M383 932q-29 0 -36 18q-28 105 -53 207q-2 7 0 15q3 18 20 27t37 9h10q25 0 28 -22l19 -93l49 93q11 22 35 22h10q20 0 35 -9t12 -27q-1 -8 -6 -15l-120 -207q-11 -18 -40 -18z" />
    <glyph glyph-name="ring" unicode="&#x2da;" horiz-adv-x="373" 
d="M323 947q-50 0 -78 36t-20 87q8 50 48 87t89 37q50 0 78 -37t20 -87q-8 -51 -47 -87t-90 -36zM335 1023q18 0 34 14.5t18 32.5q4 17 -7 33q-13 13 -30 13q-20 0 -31 -14q-14 -12 -19 -32q-2 -20 8 -32q9 -15 27 -15z" />
    <glyph glyph-name="tilde" unicode="&#x2dc;" horiz-adv-x="272" 
d="M440 962q-64 0 -87 78l-5 14q-5 19 -16 33q-9 9 -22 9q-18 0 -30.5 -17.5t-15.5 -35.5q-1 -14 2 -26l4 -9v-12q-3 -19 -30 -23l-7 -1h-13q-32 0 -22 76q8 50 43 90.5t82 40.5q33 0 50.5 -18t31.5 -52l10 -24q14 -41 38 -41q17 0 29.5 18.5t15.5 36.5q2 11 -2 24l-3 10
q0 2 0.5 6t0.5 5q3 19 21 22q12 3 15 3h13q32 0 21 -76q-8 -50 -42.5 -90.5t-81.5 -40.5z" />
    <glyph glyph-name="Wgrave" unicode="&#x1e80;" horiz-adv-x="1143" 
d="M828 1328h-10q-26 0 -29 22l-43 209q-2 8 -1 11q2 16 19.5 26.5t36.5 10.5q24 0 30 -17l54 -210q1 -4 1 -14q-7 -38 -58 -38zM330 0h-86q-25 0 -27 31l-11 1109q3 25 25 25h44q25 0 27 -29l11 -991l367 991q11 29 38 29h77q26 0 28 -29l54 -989l324 989q11 29 37 29h44
q20 0 17 -25l-363 -1109q-11 -31 -37 -31h-86q-25 0 -28 28l-53 985l-366 -985q-12 -28 -36 -28z" />
    <glyph glyph-name="wgrave" unicode="&#x1e81;" horiz-adv-x="892" 
d="M635 927h-10q-25 0 -28 22l-43 207q-2 8 -1 11q2 15 20 25.5t36 10.5q23 0 29 -17l54 -208q1 -4 1 -14q-7 -37 -58 -37zM286 0h-77q-22 0 -28 28l-47 661q0 7 1 10q2 15 13.5 26t25.5 11h29q26 0 26 -28l43 -562l1 1l219 561q9 28 38 28h63q27 0 28 -28l43 -565v1
l221 564q9 28 37 28h28q14 0 21.5 -11t5.5 -26q0 -1 -0.5 -3l-1 -4t-1.5 -3l-259 -661q-8 -28 -34 -28h-79q-23 0 -29 28l-38 540l-212 -540q-13 -28 -37 -28z" />
    <glyph glyph-name="Wacute" unicode="&#x1e82;" horiz-adv-x="1143" 
d="M770 1328h-10q-21 0 -35 9t-11 29q0 7 5 15l121 209q11 17 35 17q18 0 32 -10.5t12 -26.5q-3 -8 -5 -10l-110 -210q-9 -22 -34 -22zM330 0h-86q-25 0 -27 31l-11 1109q3 25 25 25h44q25 0 27 -29l11 -991l367 991q11 29 38 29h77q26 0 28 -29l54 -989l324 989
q11 29 37 29h44q20 0 17 -25l-363 -1109q-11 -31 -37 -31h-86q-25 0 -28 28l-53 985l-366 -985q-12 -28 -36 -28z" />
    <glyph glyph-name="wacute" unicode="&#x1e83;" horiz-adv-x="892" 
d="M578 927h-10q-21 0 -35 9t-11 28q0 7 5 15l120 207q11 17 35 17q18 0 32 -10.5t12 -25.5q-2 -8 -5 -10l-109 -208q-9 -22 -34 -22zM286 0h-77q-22 0 -28 28l-47 661q0 7 1 10q2 15 13.5 26t25.5 11h29q26 0 26 -28l43 -562l1 1l219 561q9 28 38 28h63q27 0 28 -28
l43 -565v1l221 564q9 28 37 28h28q14 0 21.5 -11t5.5 -26q0 -1 -0.5 -3l-1 -4t-1.5 -3l-259 -661q-8 -28 -34 -28h-79q-23 0 -29 28l-38 540l-212 -540q-13 -28 -37 -28z" />
    <glyph glyph-name="Wdieresis" unicode="&#x1e84;" horiz-adv-x="1143" 
d="M713 1429h-17q-25 0 -39.5 18t-10.5 42l3 19q4 24 24 41t44 17h17q24 0 38.5 -17t10.5 -41l-3 -19q-4 -24 -23.5 -42t-43.5 -18zM918 1429h-19q-23 0 -37.5 18t-10.5 42l3 19q4 24 23.5 41t43.5 17h18q24 0 38.5 -17t10.5 -41l-3 -19q-4 -24 -23.5 -42t-43.5 -18zM330 0
h-86q-25 0 -27 31l-11 1109q3 25 25 25h44q25 0 27 -29l11 -991l367 991q11 29 38 29h77q26 0 28 -29l54 -989l324 989q11 29 37 29h44q20 0 17 -25l-363 -1109q-11 -31 -37 -31h-86q-25 0 -28 28l-53 985l-366 -985q-12 -28 -36 -28z" />
    <glyph glyph-name="wdieresis" unicode="&#x1e85;" horiz-adv-x="892" 
d="M521 1027h-17q-24 0 -38.5 18t-10.5 41l3 19q4 24 23.5 41t43.5 17h17q24 0 38.5 -17t10.5 -41l-3 -19q-4 -24 -23.5 -41.5t-43.5 -17.5zM724 1027h-18q-23 0 -37.5 18t-10.5 41l3 19q4 24 23.5 41t42.5 17h18q24 0 38.5 -17t10.5 -41l-3 -19q-4 -24 -23.5 -41.5
t-43.5 -17.5zM286 0h-77q-22 0 -28 28l-47 661q0 7 1 10q2 15 13.5 26t25.5 11h29q26 0 26 -28l43 -562l1 1l219 561q9 28 38 28h63q27 0 28 -28l43 -565v1l221 564q9 28 37 28h28q14 0 21.5 -11t5.5 -26q0 -1 -0.5 -3l-1 -4t-1.5 -3l-259 -661q-8 -28 -34 -28h-79
q-23 0 -29 28l-38 540l-212 -540q-13 -28 -37 -28z" />
    <glyph glyph-name="endash" unicode="&#x2013;" horiz-adv-x="871" 
d="M777 305h-585q-14 0 -24 12q-7 12 -6 26l5 29q2 15 14.5 27t27.5 12h585q34 0 28 -39l-5 -29q-6 -38 -40 -38z" />
    <glyph glyph-name="emdash" unicode="&#x2014;" horiz-adv-x="1403" 
d="M1306 305h-1114q-14 0 -24 12q-7 12 -6 26l5 29q2 15 14.5 27t27.5 12h1114q15 0 23.5 -12t6.5 -27l-5 -29q-1 -11 -14 -26q-14 -12 -28 -12z" />
    <glyph glyph-name="uni2015" unicode="&#x2015;" horiz-adv-x="1403" 
d="M1306 305h-1114q-14 0 -24 12q-7 12 -6 26l5 29q2 15 14.5 27t27.5 12h1114q15 0 23.5 -12t6.5 -27l-5 -29q-1 -11 -14 -26q-14 -12 -28 -12z" />
    <glyph glyph-name="underscoredbl" unicode="&#x2017;" horiz-adv-x="871" 
d="M793 403h-586q-35 0 -29 37l4 29q6 38 41 38h586q34 0 28 -38l-4 -29q-6 -37 -40 -37zM762 208h-586q-35 0 -29 37l5 30q6 37 40 37h586q35 0 29 -37l-5 -30q-6 -37 -40 -37z" />
    <glyph glyph-name="quoteleft" unicode="&#x2018;" horiz-adv-x="335" 
d="M278 927h-43q-15 0 -22.5 11t-5.5 26q0 7 5 15l97 155q15 21 34 21h33q14 0 22 -11t6 -26q-2 -8 -5 -14l-86 -155q-11 -22 -35 -22z" />
    <glyph glyph-name="quoteright" unicode="&#x2019;" horiz-adv-x="335" 
d="M266 927h-31q-14 0 -22 11t-6 26q0 7 5 14l85 155q12 22 37 22h42q14 0 22 -11t6 -26q-2 -8 -5 -14l-98 -156q-13 -21 -35 -21z" />
    <glyph glyph-name="quotesinglbase" unicode="&#x201a;" horiz-adv-x="335" 
d="M98 -135h-31q-20 0 -27 17q-3 10 -2 19q2 8 6 14l85 156q12 21 37 21h42q19 0 27 -17q3 -7 1 -18q-2 -9 -6 -16l-97 -155q-12 -21 -35 -21z" />
    <glyph glyph-name="quotereversed" unicode="&#x201b;" horiz-adv-x="297" 
d="M272 927q-22 0 -28 23l-21 106q0 10 1 19l4 23q3 22 21 39q18 18 42 18h21q23 0 37 -17t10 -40l-4 -23q-3 -22 -22 -40l9 -49q1 -6 1 -15q-4 -22 -30 -32l-26 -9q-8 -3 -15 -3z" />
    <glyph glyph-name="quotedblleft" unicode="&#x201c;" horiz-adv-x="511" 
d="M278 927h-43q-15 0 -22.5 11t-5.5 26q0 7 5 15l97 155q15 21 34 21h33q14 0 22 -11t6 -26q-2 -8 -5 -14l-86 -155q-11 -22 -35 -22zM454 927h-44q-16 0 -27 16q-4 8 -2 21q0 7 5 15l97 154q13 22 37 22h30q19 0 27 -17q5 -9 3 -18q0 -6 -6 -16l-85 -156q-15 -21 -35 -21z
" />
    <glyph glyph-name="quotedblright" unicode="&#x201d;" horiz-adv-x="511" 
d="M266 927h-31q-14 0 -22 11t-6 26q0 7 5 14l85 155q12 22 37 22h42q14 0 22 -11t6 -26q-2 -8 -5 -14l-98 -156q-13 -21 -35 -21zM442 927h-32q-16 0 -27 16q-4 8 -2 21q0 7 5 14l87 156q15 21 34 21h43q19 0 27 -17q5 -9 3 -18q0 -7 -7 -16l-97 -157q-15 -20 -34 -20z" />
    <glyph glyph-name="quotedblbase" unicode="&#x201e;" horiz-adv-x="511" 
d="M98 -135h-31q-20 0 -27 17q-3 10 -2 19q2 8 6 14l85 156q12 21 37 21h42q19 0 27 -17q3 -7 1 -18q-2 -9 -6 -16l-97 -155q-12 -21 -35 -21zM274 -135h-32q-14 0 -23 11t-7 25q2 8 6 14l86 157q15 20 35 20h43q14 0 23 -10.5t7 -23.5q-1 -9 -8 -17l-96 -155
q-14 -21 -34 -21z" />
    <glyph glyph-name="dagger" unicode="&#x2020;" horiz-adv-x="540" 
d="M233 -315h-27q-35 0 -29 37l118 743h-125q-12 0 -24 10q-9 12 -6 27l4 30q4 16 16 27q13 10 26 10h125l64 404q6 36 41 36h27q38 0 32 -36l-64 -404h126q34 0 28 -37l-4 -30q-6 -37 -40 -37h-126l-118 -743q-6 -37 -44 -37z" />
    <glyph glyph-name="bullet" unicode="&#x2022;" horiz-adv-x="455" 
d="M299 454q-50 0 -78.5 37t-20.5 87t48 87.5t90 37.5q51 0 79.5 -37t20.5 -88t-48.5 -87.5t-90.5 -36.5z" />
    <glyph glyph-name="ellipsis" unicode="&#x2026;" horiz-adv-x="794" 
d="M183 0h-17q-24 0 -38.5 18t-9.5 42l2 18q5 27 25 41q18 18 43 18h17q25 0 37 -18q16 -16 11 -41l-2 -18q-5 -24 -24.5 -42t-43.5 -18zM408 0h-17q-24 0 -38.5 18t-9.5 42l2 18q5 27 25 41q18 18 43 18h17q24 0 38 -18q15 -16 10 -41l-2 -18q-5 -24 -24.5 -42t-43.5 -18z
M628 0h-17q-25 0 -38 18q-14 18 -10 42l2 18q4 24 23.5 41.5t44.5 17.5h17q24 0 37.5 -17.5t9.5 -41.5l-2 -18q-5 -25 -24 -42.5t-43 -17.5z" />
    <glyph glyph-name="minute" unicode="&#x2032;" horiz-adv-x="208" 
d="M264 927h-29q-34 0 -28 36l24 156q6 36 40 36h29q36 0 30 -36l-24 -156q-6 -36 -42 -36z" />
    <glyph glyph-name="second" unicode="&#x2033;" horiz-adv-x="384" 
d="M264 927h-29q-34 0 -28 36l24 156q6 36 40 36h29q36 0 30 -36l-24 -156q-6 -36 -42 -36zM442 927h-28q-37 0 -31 36l24 156q6 36 43 36h28q34 0 28 -36l-24 -156q-6 -36 -40 -36z" />
    <glyph glyph-name="guilsinglleft" unicode="&#x2039;" horiz-adv-x="441" 
d="M320 54q-10 0 -14 7l-194 248q-7 13 -5 25l7 46q3 15 13 25l272 247q8 8 17 8l6 -1q13 -4 11 -22l-12 -78q-4 -16 -14 -25l-192 -175l-2 -2q1 0 1 -1l138 -176q7 -12 4 -26l-12 -79q-3 -21 -24 -21z" />
    <glyph glyph-name="guilsinglright" unicode="&#x203a;" horiz-adv-x="442" 
d="M139 56q-6 0 -8 1q-13 7 -11 19l13 80q1 9 14 25l196 178l-1 2l-139 176q-7 17 -6 24l12 78q3 16 17 21q6 2 9 2q9 0 13 -9l196 -245q7 -10 5 -26l-8 -47q-2 -14 -14 -25l-272 -247q-6 -7 -16 -7z" />
    <glyph glyph-name="fraction" unicode="&#x2044;" horiz-adv-x="637" 
d="M88 0h-30q-15 0 -23 10.5t-6 26.5q2 10 5 15l662 1081q10 22 35 22h31q14 0 23.5 -10t6.5 -25q0 -7 -7 -16l-662 -1083q-11 -21 -35 -21z" />
    <glyph glyph-name="Euro" unicode="&#x20ac;" horiz-adv-x="1134" 
d="M651 2q-165 0 -275 104.5t-139 267.5h-90q-34 0 -28 35l5 31q6 37 40 37h64v-2l1 3q3 64 9 100l2 15l-1 1h-57q-34 0 -28 38l5 30q1 11 12 23q12 12 27 12h68l2 3q65 190 222.5 323.5t343.5 133.5q137 0 240 -76.5t149 -201.5q3 -10 2 -18q-2 -15 -13.5 -26t-26.5 -11
h-37q-21 0 -27 18q-41 95 -119.5 152t-184.5 57q-146 0 -267 -102.5t-180 -251.5h223q14 0 22.5 -10.5t6.5 -24.5l-5 -30q-6 -38 -40 -38h-234q-1 0 -1 -1l-2 -15q-10 -60 -6 -101h225q34 0 28 -37l-5 -31q-6 -35 -40 -35h-194l-1 -1v-3q31 -115 116.5 -189t204.5 -74
q105 0 202.5 57.5t167.5 152.5q12 18 32 18h37q15 0 23 -11.5t6 -26.5q-1 -8 -8 -18q-86 -125 -213 -201t-264 -76z" />
    <glyph glyph-name="trademark" unicode="&#x2122;" horiz-adv-x="975" 
d="M256 613h-15q-36 0 -36 37v415h-115q-14 0 -26 11q-10 13 -10 26v15q0 13 10 26q12 12 26 12h317q15 0 25.5 -11.5t10.5 -26.5v-15q0 -15 -10.5 -26t-25.5 -11h-115v-415q0 -37 -36 -37zM520 611h-13q-36 0 -36 38v468q0 38 36 38h42q27 0 35 -26l111 -361l110 361
q8 26 34 26h44q37 0 37 -38v-468q0 -16 -11 -26q-10 -12 -26 -12h-13q-16 0 -26 12q-11 10 -11 26v277l-87 -288q-8 -27 -36 -27h-30q-30 0 -34 28l-90 285v-275q0 -38 -36 -38z" />
    <glyph glyph-name="minus" unicode="&#x2212;" horiz-adv-x="771" 
d="M732 370h-576q-34 0 -28 38l4 28q6 38 40 38h576q34 0 28 -38l-4 -28q-6 -38 -40 -38z" />
    <glyph glyph-name="notequal" unicode="&#x2260;" horiz-adv-x="771" 
d="M216 160q-12 0 -23 12l-16 20q-9 12 -6 26q2 15 14 27l34 29h-79q-34 0 -28 38l5 29q6 37 40 37h176l99 89h-261q-34 0 -28 35l4 30q6 37 40 37h358l115 104q16 11 26 11q14 0 23 -11l18 -23q9 -11 7 -25q-1 -9 -15 -25l-34 -31h76q12 0 25 -10q8 -15 5 -27l-4 -30
q-6 -35 -42 -35h-173l-101 -89h260q36 0 30 -37l-5 -29q-2 -15 -14.5 -26.5t-27.5 -11.5h-356l-114 -103q-14 -11 -28 -11z" />
    <glyph glyph-name="lessequal" unicode="&#x2264;" horiz-adv-x="771" 
d="M730 253q-6 0 -11 3l-554 248q-20 9 -17 33l13 80q3 24 27 34l632 248q8 3 12 3q18 0 14 -24l-8 -54q-5 -23 -27 -33l-537 -212l-2 -1q-2 -1 -2 -2l3 -2l479 -214q11 -7 9 -21l-10 -64q-4 -22 -21 -22zM692 119h-576q-34 0 -28 38l4 27q6 39 40 39h576q34 0 28 -39
l-4 -27q-6 -38 -40 -38z" />
    <glyph glyph-name="greaterequal" unicode="&#x2265;" horiz-adv-x="771" 
d="M120 253q-17 0 -13 22l10 64q3 15 16 21l547 214l2 2q0 1 -2 3l-470 212q-20 8 -16 33l8 54q4 23 22 23q5 0 9 -2l556 -249q19 -8 16 -33l-13 -80q-3 -23 -26 -33l-634 -248q-7 -3 -12 -3zM692 119h-576q-34 0 -28 38l4 27q6 39 40 39h576q34 0 28 -39l-4 -27
q-6 -38 -40 -38z" />
    <glyph glyph-name="uniF8FF" unicode="&#xf8ff;" horiz-adv-x="1008" 
d="M978 1142v-1016h-948v1016h948zM172 366h109v189h373v98h-373v266h373v97h-483v-646zM725 467h-371v-101h483v650h-112v-182h-371v-104h371v-263zM563 241q8 0 14 4q2 0 5 1h2q7 0 7 5v25q-5 0 -7 4l-3 3l-7 1h-8l-5 4l-4 1q-1 2 -2 3.5t-1 2.5q0 7 7 7h5q5 -3 6 -4
q4 -3 7 -3q1 0 3 -1l2 -1l7 15q0 1 -2 1.5t-5.5 1.5t-6.5 2q-12 4 -14 4q-4 0 -14 -4q-5 -3 -8 -3l-4 -6q-3 -3 -3 -11q0 -2 0.5 -4t0.5 -3q0 -2 2 -3l2.5 -2.5t1.5 -2.5l5 -2q1 0 2.5 -0.5t2.5 -0.5q4 0 8 -4h4l3 -2l5 -3l1 -3q0 -5 -2 -5q-4 -2 -7 -2q-2 0 -14 5
q-3 0 -14 7l-4 -15q6 -8 15 -8q1 0 3.5 -1t4.5 -1q3 -2 9 -2zM270 241q18 0 28 10q9 9 12 27q0 14 -9 20q0 4 -3 6q-1 1 -3 3.5t-4 2.5q-5 5 -21 5q-12 0 -19 -5q-7 -2 -15 -12q-5 -12 -5 -20q0 -11 5 -18q8 -14 13 -15q7 -4 21 -4zM731 241q13 0 17 4q7 2 14 9l-12 12
q-3 -5 -10 -5q-2 -3 -9 -3q-6 0 -9 3l-2 2q-1 0 -5 6q-2 0 -2 11q0 6 2 9q0 1 3 3.5t4 3.5q3 4 9 4q7 0 9 -4q7 -1 10 -7l10 13q0 1 -1 2t-2 2.5t-2 3.5l-7 1l-8 4h-9q-18 0 -24 -11q-12 -5 -12 -26q0 -12 3 -18q9 -13 15 -15q5 -4 18 -4zM228 313h-56v-70h21v26h31v14h-31
v17h35v13zM335 313h-16v-70h18v41l31 -41h19v70h-19v-42zM394 300h23v-57h17v57h21v13h-61v-13zM499 313h-20l-32 -70h20l6 11h29l5 -11h22zM596 300h20v-57h20v57h22v13h-62v-13zM683 313h-18v-70h18v70zM812 313h-20l-32 -70h20l6 11h33l2 -11h22zM270 256q-5 0 -14 7
q-5 8 -5 15q0 6 2 11l3 4l5 3q2 4 9 4q5 0 11 -4q4 -1 7 -7l2 -5v-11q0 -1 -1 -3l-1 -2q-6 -7 -7 -7q-7 -5 -11 -5zM489 295l8 -26h-20zM801 295l9 -26h-20zM59 50l-4 -20h-5l-4 1l-11 44q2 2 4 2h7l4 -30q2 0 2 3q0 5 3 10q1 3 2 5.5t1.5 4t0.5 2.5v5h9l6 -15l3 -15
q2 2 2 4l2 11l3 13q0 2 4 2l6 -2q-6 -9 -6 -18q0 -1 -4 -13l-2 -11v-3h-10v3l-2 5l-3 12l-3 14zM129 47l-4 -17h-8q0 1 -3 1v7l-7 31l-3 6q3 2 5 2h5v-7q3 -3 3 -8l4 -15l8 30h8l2 -2l5 -15l1 -13l9 28q0 2 4 2l5 -2v-5l-2 -8q-1 -2 -2 -5t-1 -4l-6 -23h-5l-3 1l-7 16v8
q0 1 -3 3q-4 -2 -4 -3q0 -5 -1 -8zM202 64l-8 -33l-5 -1l-3 1l-2 7q0 7 -5 17l-1 15l-2 7h8l3 -15l4 -15l3 4l4 26h11l4 -15q1 -15 7 -15v15l2 15h6l5 -2l-2 -5q0 -6 -2 -8q0 -2 -0.5 -5t-0.5 -4l-7 -22l-1 -1h-7l-6 17l-3 13zM284 50v-19h-7v44l1 2h28v-8h-22v-12h17v-7
h-17zM343 30q-14 0 -17 12q-3 9 -3 11q0 9 3 12q0 5 6 5l5 7h8q13 0 20 -15q3 -10 0 -15q-3 -8 -7 -12q-5 -5 -15 -5zM394 60v-30h-9v47h9l18 -30v30h6v-46l-1 -1h-5zM460 69v-39h-9v39h-13v8h36v-8h-14zM493 31l-6 -1h-3q0 1 -2 1l2 6l5 12l6 15q1 1 2.5 4.5t3.5 6.5
q0 2 1 2h5l19 -46q-2 0 -2 -1h-2l-7 1l-2 11h-18zM559 30q-3 0 -6 0.5t-4 0.5q-2 1 -4 4t-3 3l-1 4v5h8q7 -9 10 -9q2 0 5 2q2 2 2 4v3q-1 2 -9 4q-11 0 -11 4q-6 7 -4 12q5 8 11 10h8q9 0 10 -7q3 0 3 -6v-2h-8v2q0 6 -7 6h-2q-6 -4 -6 -6l10 -4q2 -1 6.5 -3.5t6.5 -3.5
q0 -1 1 -3t1 -3q0 -8 -4 -10q-1 -6 -6 -6q-2 -1 -7 -1zM614 69v-39h-8v39h-14v8h36v-8h-14zM654 77v-47h-7v47h7zM696 30q-12 0 -21 17q-2 0 -2 6l2 9q1 8 14 15h6q9 0 12 -7q3 0 3 -3l1 -3l-4 -2h-2l-3 2q-4 6 -7 6l-10 -5q-3 -4 -3 -8l1 -7q0 -3 2 -5q0 -7 8 -7q5 0 9 9h5
q4 0 4 -2l-1 -3q-5 -12 -14 -12zM737 31l-6 -1h-1l-2 1l2 6l3 12q4 8 5 15l7 11q0 2 3 2h7l17 -46q-2 0 -2 -1h-4l-4 1l-5 11h-17zM836 30q-4 0 -12 3q-1 2 -5 9q-7 11 0 25q3 3 5 3q1 1 2 2.5t2 2.5t1 2h8q6 0 8 -2q4 0 4 -5q5 0 5 -3v-3q-2 0 -5 -2h-4v2q-2 5 -8 5
q-8 0 -8 -5q-3 -3 -3 -11q0 -6 3 -11q0 -4 8 -4q6 0 8 9h9v-7l-4 -3q-4 -7 -14 -7zM894 30q-12 0 -16 7q-7 9 -7 16q0 1 5 14q9 9 11 10q4 0 11 -2.5t8 -2.5q8 -2 8 -17q0 -12 -5 -18q-3 -7 -15 -7zM942 31l-4 -1h-4v47h14l3 -15l2 -11v-4l7 13q2 9 2 15v2h16v-47h-10v35
l-6 -15v-12l-2 -7v-1h-7l-2 1l-3 16l-6 17v-33zM345 38q12 0 12 9v13q0 2 -2.5 4t-2.5 3q-6 3 -7 3l-10 -5q0 -3 -2 -3v-9q0 -1 4 -11q4 -4 8 -4zM894 38q4 0 5 2q5 2 5 13q0 12 -5 14l-1 1q-1 1 -2 1q0 1 -2 1q-9 0 -9 -6q0 -1 -1 -5t-1 -6q0 -6 2 -11q0 -4 9 -4zM504 64
l-3 -2l-2 -12h10q-2 1 -2 7l-1 5zM750 64l-3 -2l-3 -12h11l-3 7l-2 5v2zM255 40v-9h-9v9h9zM797 40v-9h-9v9h9z" />
    <glyph glyph-name="G.ss01" horiz-adv-x="804" 
d="M404 0h-2q-103 0 -179.5 53.5t-109.5 141.5t-17 190l63 395q16 102 77 190t154.5 141.5t196.5 53.5h2q154 0 241.5 -114.5t62.5 -270.5l-5 -29q-6 -35 -41 -35h-32q-11 0 -22 9q-9 10 -7 26l5 29q18 113 -45.5 196t-175.5 83t-201.5 -83t-107.5 -196l-63 -395
q-18 -113 45.5 -196t175.5 -83t201.5 83t107.5 196l23 164h-272q-36 0 -30 38l5 31q6 39 42 39h342q14 0 22.5 -12.5t6.5 -26.5l-37 -233q-26 -157 -148.5 -271t-277.5 -114z" />
    <glyph glyph-name="_FSHallmark" horiz-adv-x="1414" 
d="M1354 1133v-152h-1291v152h1291zM1075 258q-62 0 -105 14q-79 21 -130 80t-51 139l150 -3q0 -6 9 -26q3 -19 22 -38.5t38 -25.5q26 -16 74 -16q54 0 84 18q27 16 27 42q0 46 -122 71q-100 28 -188 70q-78 38 -78 127q0 70 44.5 112t120.5 68q93 12 105 12q62 0 145 -30
q55 -20 88 -69.5t33 -108.5h-154q0 34 -41 63q-4 1 -16.5 7.5t-20.5 7.5q-5 0 -18 3.5t-19 3.5q-36 0 -72 -22q-30 -17 -30 -47q0 -50 29 -63q3 -1 16.5 -7t25 -9.5t23.5 -5.5l58 -16l47 -11q6 -1 22 -5.5t24 -4.5q29 -6 36 -11l32 -15q31 -20 50 -42q18 -39 19 -70
q2 -29 -16 -76q-62 -116 -261 -116zM232 466v-208h-169v643h543v-145h-374v-147h312v-143h-312zM669 261q-28 0 -51 25q-27 23 -27 51q0 29 24 53q21 21 54 21q38 0 62 -23q26 -23 26 -51q0 -30 -26 -56q-29 -20 -62 -20zM1352 179v-152h-1292v152h1292z" />
    <glyph glyph-name="_Fontastica" horiz-adv-x="1085" 
d="M220 456v-269h-155l-5 6v934h700v-138h-540v-388h540v-145h-540zM1025 1127v-940h-700v146h540v382h-540v149h540v263h160zM212 33q-13 0 -29 7q-11 3 -19.5 17.5t-8.5 28.5q0 22 17.5 37t39.5 15q26 0 46 -28q8 -8 8 -24q0 -23 -15.5 -38t-38.5 -15zM623 33
q-27 0 -48 16l11 20q17 -15 37 -15q12 0 12 10l-1 2q-2 1 -2 3l-5 4q-2 0 -11 3q-3 1 -9.5 2t-9.5 3q-15 8 -15 27q0 30 41 30q22 0 41 -11l-11 -22q-13 12 -40 12l-1 -1l-2 -7q0 -1 1 -2t1 -2l4 -6q3 0 6.5 -1t4.5 -1q12 0 24.5 -10t12.5 -22q0 -15 -12.5 -23.5t-28.5 -8.5
zM859 33q-16 0 -27 7q-12 5 -20 18.5t-8 27.5q0 10 9 25.5t19 19.5q14 7 27 7q7 0 23 -4q9 -5 18 -14l-16 -18q-3 3 -11.5 8.5t-12.5 5.5q-14 0 -23 -14q-4 -5 -4 -16q0 -20 12 -25q8 -6 15 -6q4 0 13.5 5t10.5 8l16 -15q-12 -20 -41 -20zM101 72v-37h-26v101h75v-20h-49
v-24h47v-20h-47zM304 95v-60h-26v101h25l45 -61v61h26v-101h-24zM442 114v-79h-27v79h-30v22h85v-22h-28zM494 54l-6 -19h-27l42 101h28l42 -101h-28l-6 19h-45zM724 114v-79h-26v79h-30v22h87v-22h-31zM792 136v-101h-26v101h26zM935 54l-9 -19h-26l44 101h28l42 -101h-29
l-8 19h-42zM212 54q11 0 19.5 9.5t8.5 22.5q0 10 -9 20t-19 10q-6 0 -16 -6q-13 -7 -13 -24q0 -14 8 -23t21 -9zM531 73l-15 36l-14 -36h29zM969 73l-14 36l-12 -36h26z" />
    <glyph glyph-name="_www.fontastica.com" horiz-adv-x="1953" 
d="M66 293h-34l-2 1v209h158v-31h-122v-87h122v-32h-122v-60zM247 293h-158v32h122v86h-122v33h122v59h36v-210zM1250 310q-46 0 -81 28l18 36q11 -10 30.5 -18.5t32.5 -8.5q4 0 16 4q7 3 7 11t-5 10q-9 6 -29 12q-28 8 -31 10q-11 5 -20 15q-7 10 -7 28q0 27 20.5 40.5
t48.5 13.5q39 0 70 -20l-17 -36q-34 18 -57 18q-18 0 -18 -12t33 -22q24 -5 31 -10q16 -9 20 -16q8 -11 8 -29q0 -27 -20.5 -40.5t-49.5 -13.5zM543 309q-39 0 -66.5 26t-27.5 65t27 64.5t67 25.5t67 -25.5t27 -64.5q0 -40 -26.5 -65.5t-67.5 -25.5zM1656 309
q-38 0 -64.5 26.5t-26.5 64.5q0 39 27 64.5t66 25.5q44 0 70 -30l-26 -32q-16 23 -43 23q-21 0 -34.5 -14.5t-13.5 -35.5q0 -16 6 -26q16 -25 42 -25q23 0 43 20l27 -28q-33 -33 -73 -33zM354 313h-45v174h130v-36h-85v-39h78v-37h-78v-62zM703 313h-43v174h40l80 -105
l-1 105h43v-174h-40l-79 104v-104zM938 313h-45v137h-52v37h150v-37h-53v-137zM1019 313h-47l75 174h47l73 -174h-48l-12 30h-76zM1426 313h-46v137h-52v37h150v-37h-52v-137zM1542 313h-45v174h45v-174zM1775 313h-47l75 174h47l73 -174h-49l-11 30h-76zM544 348
q20 0 33.5 16t13.5 36q0 7 -7 26q-9 25 -40 25q-21 0 -34.5 -14.5t-13.5 -36.5q0 -21 13.5 -36.5t34.5 -15.5zM1070 441l-25 -63h48zM1825 441l-24 -63h48z" />
    </font>
</defs>
</svg>
