<?xml version="1.0" standalone="no"?>
<!DOCTYPE svg PUBLIC "-//W3C//DTD SVG 1.1//EN" "http://www.w3.org/Graphics/SVG/1.1/DTD/svg11.dtd" >
<svg xmlns="http://www.w3.org/2000/svg" xmlns:xlink="http://www.w3.org/1999/xlink" version="1.1">
<metadata>
Created by FontForge 20170731 at Thu Mar 18 17:47:41 2021
 By Aleksey,,,
Copyright (c) 2021 by Fontastica. All rights reserved.
</metadata>
<defs>
<font id="Spacia-ExtraBold" horiz-adv-x="528" >
  <font-face 
    font-family="Spacia ExtraBold"
    font-weight="800"
    font-stretch="normal"
    units-per-em="2048"
    panose-1="0 0 9 0 0 0 0 0 0 0"
    ascent="1638"
    descent="-410"
    x-height="737"
    cap-height="1165"
    bbox="-125 -438 1923 1615"
    underline-thickness="50"
    underline-position="-150"
    unicode-range="U+0020-F8FF"
  />
<missing-glyph horiz-adv-x="907" 
d="M807 1153v-1144h-707v1144h707zM734 1102h-561l280 -468zM755 1030l-269 -449l269 -451v900zM421 581l-268 446v-894zM734 62l-280 466l-279 -466h559z" />
    <glyph glyph-name=".notdef" horiz-adv-x="907" 
d="M807 1153v-1144h-707v1144h707zM734 1102h-561l280 -468zM755 1030l-269 -449l269 -451v900zM421 581l-268 446v-894zM734 62l-280 466l-279 -466h559z" />
    <glyph glyph-name=".null" horiz-adv-x="0" 
 />
    <glyph glyph-name="nonmarkingreturn" horiz-adv-x="682" 
 />
    <glyph glyph-name="space" unicode=" " horiz-adv-x="504" 
 />
    <glyph glyph-name="exclam" unicode="!" horiz-adv-x="387" 
d="M209 248h-28q-44 0 -44 46v806q0 45 44 45h28q43 0 43 -45v-806q0 -46 -43 -46zM206 0h-23q-31 0 -53 23t-22 54v24q0 31 22 54t53 23h23q30 0 51.5 -23t21.5 -54v-24q0 -32 -20.5 -54.5t-52.5 -22.5z" />
    <glyph glyph-name="quotedbl" unicode="&#x22;" horiz-adv-x="505" 
d="M179 903h-27q-44 0 -44 45v152q0 45 44 45h27q46 0 46 -45v-152q0 -45 -46 -45zM353 903h-27q-47 0 -47 45v152q0 45 47 45h27q43 0 43 -45v-152q0 -45 -43 -45z" />
    <glyph glyph-name="numbersign" unicode="#" horiz-adv-x="1088" 
d="M869 777h157q19 0 31 -12.5t12 -31.5q0 -8 -2 -13l-7 -28q-6 -34 -43 -34h-178l-46 -176h175q19 0 32 -13t13 -32q0 -9 -1 -13l-8 -29q-9 -35 -43 -35h-197l-82 -327q-8 -33 -43 -33h-28q-19 0 -32 13t-13 32l2 11l76 304h-314l-83 -327q-7 -33 -43 -33h-29q-24 0 -36 19
q-7 13 -7 29v7l78 305h-150q-18 0 -30.5 13.5t-12.5 31.5q0 8 1 13l7 29q8 35 44 35h171l44 176h-169q-18 0 -31 13.5t-13 31.5q0 8 1 12l7 27q9 35 43 35h192l84 333q9 35 43 35h27q24 0 38 -19q7 -13 7 -26q0 -6 -2 -12l-77 -311h315q33 135 84 333q9 35 42 35h28
q19 0 32.5 -13.5t13.5 -31.5q0 -6 -2 -12zM312 769l2 7q-2 0 -2 -7zM360 482h315l44 176h-315z" />
    <glyph glyph-name="dollar" unicode="$" horiz-adv-x="823" 
d="M439 -153h-25q-45 0 -45 44v89q-124 13 -213 101t-102 212v9q0 44 42 44h27q43 0 43 -44v-3q12 -79 68 -134t135 -68v464l-12 3l-19 4q-23 8 -35 10q-82 22 -133 90.5t-51 153.5q0 109 71.5 192t178.5 102v88q0 45 45 45h25q15 0 29 -12q14 -14 14 -33v-88
q96 -17 171 -95.5t75 -173.5q0 -13 -9 -27q-13 -17 -33 -17h-28q-35 0 -42 37q-6 55 -43 98t-91 60v-348l41 -11q108 -28 177 -113t69 -195q0 -128 -80.5 -225t-206.5 -121v-94q0 -17 -13 -30.5t-30 -13.5zM333 690l36 -9v318q-61 -17 -99 -65.5t-38 -111.5
q0 -45 28.5 -81.5t72.5 -50.5zM495 526l-13 4v-427q75 22 125.5 86t50.5 142q0 68 -46.5 122.5t-114.5 72.5h-2z" />
    <glyph glyph-name="percent" unicode="%" horiz-adv-x="1088" 
d="M288 615q-102 0 -168 80t-66 185q0 104 66 184.5t168 80.5q103 0 168 -80t65 -185t-65 -185t-168 -80zM316 0h-30q-18 0 -30.5 13.5t-13.5 32.5q0 10 5 20l477 1052q10 27 40 27h29q19 0 32.5 -13t13.5 -32q0 -9 -5 -19l-477 -1056q-16 -25 -41 -25zM288 735
q52 0 84.5 45t32.5 100t-32 99.5t-85 44.5t-86 -44.5t-33 -99.5q0 -54 33.5 -99.5t85.5 -45.5zM799 4q-102 0 -168.5 80.5t-66.5 183.5q0 105 66 184.5t169 79.5q102 0 168 -79.5t67 -184.5q-1 -104 -67 -184t-168 -80zM799 124q53 0 86 44.5t33 99.5q0 56 -33 100.5
t-86 44.5t-85.5 -44.5t-32.5 -100.5q0 -54 33 -99t85 -45z" />
    <glyph glyph-name="ampersand" unicode="&#x26;" horiz-adv-x="864" 
d="M727 199l76 -112q8 -12 8 -27q0 -22 -19 -37l-23 -15q-13 -11 -27 -11q-21 0 -36 22l-51 80q-32 -31 -76 -57h-3q-84 -52 -186 -52q-140 0 -238.5 98t-98.5 240q0 102 53.5 192.5t143.5 146.5l18 12l-48 75q-47 70 -47 145q0 99 67 172.5t165 73.5q99 0 166 -73t67 -173
q0 -47 -16 -86.5t-48 -72t-62 -54.5t-75 -49l213 -319q7 29 8 45q1 18 13.5 31.5t29.5 13.5h27q44 0 44 -44q0 -85 -45 -165zM405 1024q-50 0 -83 -37t-33 -88q0 -38 26 -79l57 -84q78 46 114 82q36 33 36 81q0 50 -34 87.5t-83 37.5zM524 148l3 2q36 20 60 50l-253 380
l-22 -14q-65 -38 -104.5 -102t-39.5 -136q0 -75 46.5 -132.5t118.5 -78.5q37 -7 60 -7q67 0 131 38z" />
    <glyph glyph-name="quotesingle" unicode="'" horiz-adv-x="333" 
d="M179 903h-27q-44 0 -44 45v152q0 45 44 45h27q46 0 46 -45v-152q0 -45 -46 -45z" />
    <glyph glyph-name="parenleft" unicode="(" horiz-adv-x="480" 
d="M328 -80h-6q-90 0 -152 66t-62 156v860q0 92 61.5 158t152.5 66h6q45 0 45 -47v-27q0 -46 -45 -46h-6q-43 0 -70 -30t-27 -74v-860q0 -41 28 -72t69 -31h6q45 0 45 -45v-29q0 -45 -45 -45z" />
    <glyph glyph-name="parenright" unicode=")" horiz-adv-x="480" 
d="M159 -80h-7q-44 0 -44 45v29q0 45 44 45h7q40 0 68.5 31t28.5 72v860q0 42 -28 73t-69 31h-7q-44 0 -44 46v27q0 47 44 47h7q90 0 152 -67t62 -157v-860q0 -90 -62 -156t-152 -66z" />
    <glyph glyph-name="asterisk" unicode="*" horiz-adv-x="667" 
d="M553 989l7 -27v-8q0 -32 -33 -40l-111 -27l75 -120q7 -11 7 -23q0 -19 -17 -33l-19 -14q-13 -7 -24 -7q-20 0 -33 18l-71 114l-71 -114q-15 -19 -33 -19q-10 0 -22 8l-22 14q-16 16 -16 34q0 7 5 22l76 120l-112 27q-31 7 -31 36q0 3 2 11l4 27q12 32 40 32l128 -29v114
q0 40 40 40h22q42 0 42 -40v-114l119 27l8 2q29 0 40 -31z" />
    <glyph glyph-name="plus" unicode="+" horiz-adv-x="773" 
d="M399 174h-27q-43 0 -43 48v233h-223q-12 0 -29 12q-14 16 -14 34v27q0 18 14 34q17 12 29 12h223v234q0 45 43 45h27q44 0 44 -45v-234h222q44 0 44 -46v-27q0 -46 -44 -46h-222v-233q0 -48 -44 -48z" />
    <glyph glyph-name="comma" unicode="," horiz-adv-x="368" 
d="M180 -98q-9 0 -18 3l-24 10q-30 11 -30 39q0 10 3 18l15 43q-14 19 -14 41v23q0 28 18.5 46.5t45.5 18.5h21q27 0 45 -19t18 -46v-23q0 -11 -4 -22l-36 -101q-10 -31 -40 -31z" />
    <glyph glyph-name="hyphen" unicode="-" horiz-adv-x="647" 
d="M495 453h-342q-14 0 -31 12q-14 16 -14 34v29q0 18 14 34q17 12 31 12h342q43 0 43 -46v-29q0 -46 -43 -46z" />
    <glyph glyph-name="period" unicode="." horiz-adv-x="367" 
d="M191 0h-16q-27 0 -47 20.5t-20 47.5v18q0 29 20 47q17 20 47 20h16q29 0 46 -20q21 -18 21 -47v-18q0 -27 -20 -47.5t-47 -20.5z" />
    <glyph glyph-name="slash" unicode="/" horiz-adv-x="520" 
d="M93 0h-32q-21 0 -36 20q-6 16 -6 26q0 8 1 14l366 1056q11 29 42 29h28q18 0 31.5 -14.5t13.5 -32.5l-1 -12l-367 -1057q-12 -29 -40 -29z" />
    <glyph glyph-name="zero" unicode="0" horiz-adv-x="786" 
d="M395 -2q-146 0 -251 99t-109 245v459q4 146 108.5 246t251.5 100q145 0 249.5 -100.5t107.5 -245.5v-459q-3 -143 -108 -243.5t-249 -100.5zM395 124q95 0 165 65.5t70 160.5v443q0 96 -69 161.5t-166 65.5q-98 0 -168 -65t-70 -162v-443q0 -96 70.5 -161t167.5 -65z" />
    <glyph glyph-name="one" unicode="1" horiz-adv-x="380" 
d="M299 0h-30q-43 0 -43 45l3 845l-79 -128q-12 -15 -28 -15h-50q-16 0 -26.5 10.5t-10.5 26.5q0 9 4 17l190 317q7 27 37 27h33q46 0 46 -45v-1055q0 -45 -46 -45z" />
    <glyph glyph-name="two" unicode="2" horiz-adv-x="701" 
d="M603 667l-435 -543h451q19 0 32 -13.5t13 -33.5v-32q0 -19 -14 -30q-12 -15 -31 -15h-537q-18 0 -31.5 14t-13.5 31v91q0 14 10 27l463 576q41 46 41 100q0 81 -59.5 137t-141.5 56q-74 0 -133 -50t-67 -123q-7 -40 -44 -40h-27q-18 0 -31 13.5t-13 31.5v5
q14 122 103 201.5t212 79.5q131 0 223.5 -90t92.5 -221q0 -97 -63 -172zM137 113l10 -4l-4 10q-6 0 -6 -6z" />
    <glyph glyph-name="three" unicode="3" horiz-adv-x="783" 
d="M391 -8q-137 0 -243 89.5t-113 224.5q0 14 10 24.5t25 10.5h53q14 0 24 -9t10 -23q6 -86 76 -141.5t158 -55.5q93 0 164 59t71 151q0 83 -64 140.5t-151 67.5h-24q-14 0 -24.5 10t-10.5 24l1 37q0 12 10.5 22.5t23.5 10.5h23q83 10 143 64t60 133q0 86 -67 142t-155 56
q-82 0 -147.5 -52.5t-73.5 -131.5q-1 -15 -10.5 -24t-22.5 -9h-49q-14 0 -24 10t-10 25q7 129 106 212.5t231 83.5q138 0 238.5 -88t100.5 -224q0 -152 -127 -246q68 -43 107 -113t39 -150q0 -141 -107.5 -235.5t-250.5 -94.5z" />
    <glyph glyph-name="four" unicode="4" horiz-adv-x="703" 
d="M547 593v-184h78q43 0 43 -46v-32q0 -18 -13.5 -32.5t-29.5 -14.5h-78v-239q0 -45 -45 -45h-30q-44 0 -44 45v239h-348q-17 0 -31 14.5t-14 32.5v83q0 10 5 18l336 686q9 27 38 27h29q19 0 32.5 -13.5t13.5 -32.5q0 -9 -4 -19l-324 -671h267v184q0 46 44 46h30
q45 0 45 -46z" />
    <glyph glyph-name="five" unicode="5" horiz-adv-x="784" 
d="M222 696h169q148 0 253.5 -102t105.5 -250q0 -147 -105.5 -249.5t-253.5 -102.5q-139 0 -240.5 92.5t-115.5 229.5v5q0 18 13 31.5t31 13.5h27q43 -2 44 -42q11 -90 81 -150t160 -60q99 0 170.5 67t71.5 165q0 99 -71.5 165t-170.5 66h-252q-17 0 -31 14.5t-14 31.5
l34 476q3 46 45 46h441q43 0 43 -47v-28q0 -46 -43 -46h-372z" />
    <glyph glyph-name="six" unicode="6" horiz-adv-x="794" 
d="M715 691h-31q-18 0 -30.5 13.5t-12.5 31.5v27q0 103 -71 178.5t-174 78.5q-97 -4 -168 -68.5t-71 -160.5v-179q98 89 238 89q147 0 252 -102t105 -249t-105 -250.5t-252 -103.5q-149 0 -254.5 103t-105.5 251v441q0 148 105.5 251t254.5 103h2q153 0 257 -113.5
t104 -268.5v-27q0 -45 -43 -45zM395 575q-97 0 -167.5 -64.5t-70.5 -160.5q0 -97 70 -162.5t168 -65.5q96 0 165.5 66t69.5 162q0 95 -70 160t-165 65z" />
    <glyph glyph-name="seven" unicode="7" horiz-adv-x="788" 
d="M78 1145h631q44 0 44 -45v-60q0 -10 -7 -23l-573 -996q-14 -21 -39 -21h-59q-31 0 -31 29q0 9 4 18l568 977h-538q-43 0 -43 47v29q0 45 43 45z" />
    <glyph glyph-name="eight" unicode="8" horiz-adv-x="783" 
d="M391 -8q-142 0 -249 95t-107 235q0 80 39 150t106 113q-126 93 -126 246q0 135 100 223.5t237 88.5q138 0 238.5 -88t100.5 -224q0 -152 -127 -246q68 -43 107 -113t39 -150q0 -141 -107.5 -235.5t-250.5 -94.5zM374 634h36q83 10 143 64t60 133q0 86 -67 142t-155 56
t-154.5 -56t-66.5 -142q0 -79 60.5 -133t143.5 -64zM391 112q93 0 164 59t71 151q0 83 -64 140.5t-151 67.5h-38q-87 -10 -151.5 -67.5t-64.5 -140.5q0 -91 70.5 -150.5t163.5 -59.5z" />
    <glyph glyph-name="nine" unicode="9" horiz-adv-x="794" 
d="M400 1145q147 0 252.5 -103t105.5 -251v-441q0 -148 -105.5 -251t-252.5 -103h-2q-154 0 -258.5 113.5t-104.5 268.5v28q0 45 43 45h32q18 0 30.5 -13.5t12.5 -31.5v-28q0 -103 71.5 -178.5t174.5 -78.5q95 4 165.5 69.5t72.5 159.5l-1 179q-97 -89 -236 -89
q-148 0 -252.5 102t-104.5 249t105 250.5t252 103.5zM400 567q96 0 166.5 64.5t70.5 159.5q0 97 -70 162.5t-167 65.5q-96 0 -166 -66t-70 -162q0 -95 69.5 -159.5t166.5 -64.5z" />
    <glyph glyph-name="colon" unicode=":" horiz-adv-x="367" 
d="M191 424h-16q-27 0 -47 20.5t-20 47.5v19q0 26 19.5 45.5t47.5 19.5h16q28 0 47.5 -19.5t19.5 -45.5v-19q0 -27 -20 -47.5t-47 -20.5zM193 0h-17q-29 0 -46.5 19.5t-17.5 48.5v20q0 26 19 46.5t45 20.5h17q28 0 46 -20q21 -18 21 -47v-20q0 -27 -20 -47.5t-47 -20.5z" />
    <glyph glyph-name="semicolon" unicode=";" horiz-adv-x="368" 
d="M195 425h-17q-27 0 -46.5 21t-19.5 48v19q0 24 18 47q23 18 48 18h17q23 0 46 -18q19 -19 19 -47v-19q0 -27 -19 -48t-46 -21zM181 -87q-7 0 -19 4l-24 11q-31 10 -31 37q0 13 5 20l14 42q-14 19 -14 41v22q0 27 18.5 46.5t45.5 19.5h21q27 0 45 -19.5t18 -46.5v-22
q0 -7 -3 -22l-37 -102q-11 -31 -39 -31z" />
    <glyph glyph-name="less" unicode="&#x3c;" horiz-adv-x="775" 
d="M710 810v-53q0 -30 -26 -42l-474 -201l483 -203q17 -9 17 -28v-61q0 -33 -27 -33q-8 0 -15 4l-579 241q-26 15 -26 43v76q0 27 26 42l579 241q8 5 16 5q26 0 26 -31z" />
    <glyph glyph-name="equal" unicode="=" horiz-adv-x="775" 
d="M667 547h-559q-45 0 -45 44v30q0 16 14 32q16 14 31 14h559q43 0 43 -46v-30q0 -44 -43 -44zM667 359h-559q-18 0 -31.5 14.5t-13.5 32.5v29q0 45 45 45h559q43 0 43 -45v-29q0 -47 -43 -47z" />
    <glyph glyph-name="greater" unicode="&#x3e;" horiz-adv-x="775" 
d="M106 836l578 -241q26 -12 26 -42v-76q0 -31 -26 -43l-578 -241q-7 -4 -15 -4q-28 0 -28 33v61q0 16 17 28l484 203l-475 202q-26 11 -26 41v53q0 31 28 31q7 0 15 -5z" />
    <glyph glyph-name="question" unicode="?" horiz-adv-x="758" 
d="M378 1150q96 0 171.5 -54.5t114.5 -138.5t39 -178q0 -98 -44 -186t-124 -139q-89 -59 -97 -163q-4 -43 -46 -43h-27q-18 0 -31 13.5t-13 31.5l1 7q17 168 156 259h1q108 75 108 220q0 61 -24.5 118t-73.5 95t-111 38q-86 0 -142.5 -69t-66.5 -160q-2 -42 -44 -42h-28
q-15 0 -31 14q-12 13 -12 30v3q9 138 99 241t225 103zM369 178h19q33 0 54.5 -22.5t21.5 -54.5v-24q0 -33 -21 -55t-55 -22h-19q-33 0 -54.5 22.5t-21.5 54.5v24q0 32 21.5 54.5t54.5 22.5z" />
    <glyph glyph-name="at" unicode="@" horiz-adv-x="1105" 
d="M899 741q148 -168 152 -401v-8q0 -120 -41 -227v-2q-39 -94 -132 -95h-3q-89 0 -128 80q-79 -86 -195 -88h-4q-87 0 -156 49.5t-104 126t-35 162.5q0 128 81 228t206 103h4q100 0 177 -67v22q0 43 42 43h31q6 0 9 -1q-106 114 -253 120h-6q-110 -6 -196.5 -75t-131 -168
t-47.5 -208v-9q5 -108 52 -208t135.5 -168.5t197.5 -72.5h7q98 3 187 63q13 8 24 8h47q19 0 32 -13.5t13 -33.5q0 -19 -16 -32q-132 -108 -286 -111h-7q-200 0 -348 163q-153 172 -153 416q0 105 35 205t97 179.5t154.5 129.5t200.5 54l7 1q201 0 351 -165zM937 331v7
q-6 161 -101 288v-2l8 -463q1 -15 10 -25t24 -10q16 0 26 20q33 97 33 185zM726 334v3q-3 79 -54 145t-126 68h-3q-78 -4 -126.5 -69t-48.5 -146v-4q3 -80 53 -144.5t126 -67.5h3q76 4 125 69t51 146z" />
    <glyph glyph-name="A" unicode="A" horiz-adv-x="884" 
d="M507 1136l340 -1079q2 -8 2 -14q0 -12 -5 -22q-15 -21 -38 -21h-31q-33 0 -43 33l-72 216q-2 3 -5 3h-425q-6 0 -6 -3l-73 -218q-11 -31 -43 -31h-28q-21 0 -36 19q-9 13 -9 27q0 9 1 15l339 1075q11 29 43 29h48q29 0 41 -29zM617 381v1l-176 568l-175 -568q0 -2 3 -5
q1 -3 5 -3h336q7 0 7 7z" />
    <glyph glyph-name="B" unicode="B" horiz-adv-x="826" 
d="M669 661q58 -52 90 -136.5t32 -166.5q0 -56 -16 -116.5t-46.5 -115.5t-81 -90.5t-112.5 -35.5h-455q-45 0 -45 46v1073q0 46 45 46h403q120 0 201.5 -84t81.5 -204q0 -127 -97 -216zM645 877q0 68 -47 116t-115 48h-317l-3 -4h-5q-1 -1 -1 -4v-311q0 -9 4 -9h322
q68 0 115 48t47 116zM161 125h374q42 0 75.5 44t47.5 95.5t14 93.5q0 88 -49 167q-38 65 -88 65h-374l-4 -1v-457q0 -7 4 -7z" />
    <glyph glyph-name="C" unicode="C" horiz-adv-x="811" 
d="M408 0h-2q-157 0 -264 115.5t-107 272.5v389q0 157 107 272.5t264 115.5h2q156 0 262 -116t106 -272v-29q0 -44 -44 -44h-31q-15 0 -31 11q-14 14 -14 33v29q0 107 -72.5 185.5t-177.5 78.5q-106 0 -178.5 -78.5t-72.5 -185.5v-389q0 -106 72.5 -185t178.5 -79
q105 0 177.5 79t72.5 185v28q0 18 13 31.5t32 13.5h31q44 0 44 -45v-28q-2 -158 -107 -273t-261 -115z" />
    <glyph glyph-name="D" unicode="D" horiz-adv-x="802" 
d="M358 0h-278q-45 0 -45 46v1073q0 46 45 46h278q171 0 292 -172q118 -170 118 -410t-118 -410q-121 -173 -292 -173zM161 125h197q117 0 201 131q88 134 88 327q0 191 -88 327q-86 131 -201 131h-197q-1 0 -3 -2q-3 -3 -3 -6v-901q0 -7 6 -7z" />
    <glyph glyph-name="E" unicode="E" horiz-adv-x="727" 
d="M647 0h-567q-18 0 -31.5 14.5t-13.5 31.5v1073q0 20 14 34q17 12 31 12h567q45 0 45 -46v-33q0 -45 -45 -45h-486l-2 -1l-2 -5v-365q0 -4 4 -4h426q45 0 45 -47v-34q0 -45 -43 -45h-428q-4 0 -4 -6v-402q0 -7 4 -7h486q45 0 45 -46v-33q0 -18 -13 -32t-32 -14z" />
    <glyph glyph-name="F" unicode="F" horiz-adv-x="728" 
d="M111 0h-31q-45 0 -45 46l1 1073q0 20 14 34q17 12 31 12h567q45 0 45 -46v-33q0 -45 -45 -45h-486l-2 -1l-2 -5v-365q0 -4 4 -4h426q45 0 45 -47v-34q0 -45 -44 -45h-427q-4 0 -4 -6l-1 -488q0 -46 -46 -46z" />
    <glyph glyph-name="G" unicode="G" horiz-adv-x="811" 
d="M670 715q-14 14 -14 33v29q0 107 -72.5 185.5t-177.5 78.5q-106 0 -178.5 -78.5t-72.5 -185.5v-389q0 -106 72.5 -185t178.5 -79q90 0 160 64t86 155v197h-257q-45 0 -45 47v30q0 49 45 49h336q17 0 30.5 -15.5t13.5 -33.5v-571q0 -17 -13.5 -31.5t-30.5 -14.5h-32
q-18 0 -32 14.5t-14 31.5v53q-105 -99 -245 -99h-2q-157 0 -264 115.5t-107 272.5v389q0 157 107 272.5t264 115.5h2q156 0 262 -116t106 -272v-29q0 -44 -44 -44h-31q-15 0 -31 11z" />
    <glyph glyph-name="H" unicode="H" horiz-adv-x="731" 
d="M111 0h-30q-46 0 -46 46v1073q0 46 46 46h30q46 0 46 -46v-447q0 -4 4 -4h411q4 0 4 4v447q0 46 45 46h30q45 0 45 -46v-1073q0 -46 -45 -46h-30q-45 0 -45 46v490q0 5 -4 5h-411l-2 -1l-2 -4v-490q0 -46 -46 -46z" />
    <glyph glyph-name="I" unicode="I" horiz-adv-x="192" 
d="M111 0h-31q-45 0 -45 46v1073q0 46 45 46h31q46 0 46 -46v-1073q0 -46 -46 -46z" />
    <glyph glyph-name="J" unicode="J" horiz-adv-x="812" 
d="M406 0h-2q-156 0 -262.5 116t-106.5 272v28q0 45 44 45h32q18 0 31 -13.5t13 -31.5v-28q0 -106 72.5 -185t178.5 -79q104 0 176 79t74 185l-1 731q0 46 46 46h30q46 0 46 -46l-1 -731q0 -157 -107 -272.5t-263 -115.5z" />
    <glyph glyph-name="K" unicode="K" horiz-adv-x="743" 
d="M111 0h-31q-45 0 -45 46v1075q0 46 45 46h31q46 0 46 -46v-454q0 -3 3 -5q2 -2 3 -2h136q115 0 201 131q88 136 88 327q0 46 46 46h30q45 0 45 -40v-7q-1 -155 -55.5 -298.5t-167.5 -220.5q113 -79 168 -222t55 -298v-32q0 -46 -47 -46h-30q-27 0 -36 10.5t-9 41.5
q0 219 -87 353q-85 130 -201 130h-136l-4 -2q-2 -4 -2 -5v-482q0 -46 -46 -46z" />
    <glyph glyph-name="L" unicode="L" horiz-adv-x="728" 
d="M648 0h-567q-18 0 -31.5 14t-13.5 32l-1 1073q0 46 45 46h31q34 0 43 -27h4v-1006q0 -7 4 -7h486q45 0 45 -46v-33q0 -18 -13 -32t-32 -14z" />
    <glyph glyph-name="M" unicode="M" horiz-adv-x="892" 
d="M103 0h-26q-42 0 -42 46v1073q0 46 42 46h95q29 0 37 -33l237 -934l237 934q8 33 39 33h94q41 0 41 -46v-1073q0 -46 -41 -46h-27q-40 0 -40 46l-2 894l-230 -907q-7 -33 -41 -33h-59q-34 0 -41 33l-231 910v-897q0 -46 -42 -46z" />
    <glyph glyph-name="N" unicode="N" horiz-adv-x="811" 
d="M702 1167h30q44 0 44 -48v-1073q0 -46 -44 -46h-87q-29 0 -41 28l-449 955v-937q0 -46 -44 -46h-31q-45 0 -45 46v1073q0 46 45 46h88q25 0 38 -26l450 -958v938q0 19 13.5 33.5t32.5 14.5z" />
    <glyph glyph-name="O" unicode="O" horiz-adv-x="811" 
d="M408 0h-2q-157 0 -264 115.5t-107 272.5v389q0 157 107 272.5t264 115.5h2q156 0 262 -116t106 -272v-389q-2 -158 -107 -273t-261 -115zM406 124q105 0 177.5 79t72.5 185v389q0 107 -72.5 185.5t-177.5 78.5q-106 0 -178.5 -78.5t-72.5 -185.5v-389q0 -106 72.5 -185
t178.5 -79z" />
    <glyph glyph-name="P" unicode="P" horiz-adv-x="800" 
d="M80 1165h403q119 0 201 -84t82 -203q0 -120 -81.5 -204t-201.5 -84h-322l-4 -1v-543q0 -46 -46 -46h-31q-45 0 -45 46v1073q0 46 45 46zM161 713h322q68 0 115 48.5t47 116.5q0 67 -47.5 115t-114.5 48h-317l-3 -4h-5q-1 -1 -1 -4v-311q0 -9 4 -9z" />
    <glyph glyph-name="Q" unicode="Q" horiz-adv-x="821" 
d="M704 -1q-20 0 -28.5 14.5t-16.5 53.5q-4 16 -8 29q-104 -96 -243 -96h-2q-157 0 -264 115.5t-107 272.5v389q0 157 107 272.5t264 115.5h2q156 0 262 -116t106 -272v-389q-2 -98 -40 -178q25 -59 39 -114l9 -33q0 -3 0.5 -7t0.5 -6q0 -32 -35 -41l-29 -8q-12 -2 -17 -2z
M406 124q105 0 177.5 79t72.5 185v389q0 107 -72.5 185.5t-177.5 78.5q-106 0 -178.5 -78.5t-72.5 -185.5v-389q0 -106 72.5 -185t178.5 -79z" />
    <glyph glyph-name="R" unicode="R" horiz-adv-x="800" 
d="M766 878q0 -89 -50.5 -165t-132.5 -107q86 -89 128 -213t42 -259v-88q0 -46 -47 -46h-30q-27 0 -35.5 10.5t-8.5 42.5l1 7v74q0 103 -30 201t-89 169t-134 86h-219l-4 -1v-543q0 -46 -46 -46h-31q-45 0 -45 46v1073q0 46 45 46h403q119 0 201 -84t82 -203zM161 713h322
q68 0 115 48.5t47 116.5q0 67 -47.5 115t-114.5 48h-317l-3 -4h-5q-1 -1 -1 -4v-311q0 -9 4 -9z" />
    <glyph glyph-name="S" unicode="S" horiz-adv-x="801" 
d="M339 670v-1l166 -52q262 -80 262 -308q0 -141 -98.5 -230t-254.5 -89q-153 0 -250.5 84.5t-102.5 221.5v28q0 17 14 31t32 14h35q48 0 48 -45v-25q0 -82 61.5 -132.5t162.5 -50.5q100 0 161 50.5t61 132.5q0 72 -37 116.5t-124 74.5l-207 65v2q-118 43 -175.5 116
t-57.5 182q0 141 98.5 230t254.5 89q153 0 253 -85.5t100 -220.5v-28q0 -17 -14.5 -31t-31.5 -14h-37q-46 0 -46 45v25q0 82 -62 132.5t-162 50.5t-162 -50.5t-62 -132.5q0 -75 38.5 -119.5t136.5 -75.5z" />
    <glyph glyph-name="T" unicode="T" horiz-adv-x="826" 
d="M428 0h-30q-47 0 -47 46v987q0 8 -3 8h-269q-44 0 -44 45v33q0 46 44 46h669q43 0 43 -46v-33q0 -45 -43 -45h-270q-3 0 -3 -8v-987q0 -46 -47 -46z" />
    <glyph glyph-name="U" unicode="U" horiz-adv-x="811" 
d="M408 0h-2q-157 0 -264 115.5t-107 272.5v731q0 46 45 46h31q44 0 44 -46v-731q0 -106 72.5 -185t178.5 -79q105 0 177.5 79t72.5 185v731q0 18 13 32t32 14h31q44 0 44 -46v-731q0 -156 -106 -272t-262 -116z" />
    <glyph glyph-name="V" unicode="V" horiz-adv-x="884" 
d="M844 1144q5 -10 5 -22q0 -2 -0.5 -7t-0.5 -7l-341 -1079q-12 -29 -41 -29h-48q-32 0 -43 29l-339 1076q-1 4 -1 14q0 13 9 27q15 19 36 19h28q32 0 43 -33l290 -918l291 918q10 33 43 33h31q23 0 38 -21z" />
    <glyph glyph-name="W" unicode="W" horiz-adv-x="1164" 
d="M345 0h-85q-33 0 -41 39l-184 1091q0 35 31 35h43q33 0 41 -37l157 -922l195 923q8 36 42 36h76q34 0 42 -36l197 -921l155 920q8 37 41 37h44q30 0 30 -35l-184 -1091q-8 -39 -41 -39h-85q-31 0 -41 35l-195 923l-197 -923q-9 -35 -41 -35z" />
    <glyph glyph-name="X" unicode="X" horiz-adv-x="842" 
d="M807 1122l-317 -535l315 -521l2 -28q-6 -20 -15 -29t-28 -9h-43q-21 0 -33 23l-267 449l-266 -449q-14 -23 -34 -23h-43q-34 0 -41 39l1 27l315 520l-318 536q6 22 15 32.5t28 10.5h43q21 0 33 -23l267 -441l267 441q12 23 33 23h43q35 0 43 -43z" />
    <glyph glyph-name="Y" unicode="Y" horiz-adv-x="786" 
d="M408 0h-31q-45 0 -45 46v294l-293 778q-4 5 -4 13q0 34 33 34h54q24 0 40 -28l231 -613l231 613q16 28 43 28h52q32 0 32 -34v-5l-298 -780v-301q-7 -45 -45 -45z" />
    <glyph glyph-name="Z" unicode="Z" horiz-adv-x="807" 
d="M764 1005l-596 -880h558q19 0 32.5 -13.5t13.5 -32.5v-33q0 -46 -46 -46h-643q-46 0 -46 46v92q0 14 9 25l595 878h-562q-44 0 -44 45v33q0 46 44 46h645q45 0 45 -46v-92q0 -1 -0.5 -3t-1.5 -5.5t-1 -5.5z" />
    <glyph glyph-name="bracketleft" unicode="[" horiz-adv-x="574" 
d="M423 -83h-271q-44 0 -44 47v1215q0 47 44 47h258q24 0 40 -17t16 -41v-16q0 -46 -43 -46h-198v-1068h198q43 0 43 -47v-27q0 -47 -43 -47z" />
    <glyph glyph-name="backslash" unicode="\" horiz-adv-x="520" 
d="M456 0h-28q-33 0 -43 32l-363 1052q-3 5 -3 15q0 18 12 32t30 14h32q28 0 40 -29l367 -1058v-5q0 -1 0.5 -3t0.5 -4q0 -18 -14 -32t-31 -14z" />
    <glyph glyph-name="bracketright" unicode="]" horiz-adv-x="574" 
d="M423 -83h-271q-44 0 -44 47v27q0 47 44 47h200v1068h-200q-44 0 -44 46v16q0 24 16 41t40 17h259q43 0 43 -47v-1215q0 -47 -43 -47z" />
    <glyph glyph-name="asciicircum" unicode="^" horiz-adv-x="706" 
d="M428 1118l210 -434q6 -9 6 -21q0 -19 -13.5 -32.5t-32.5 -13.5h-30q-28 0 -39 26l-175 365l-176 -365q-9 -26 -40 -26h-30q-18 0 -31.5 14t-13.5 32q0 11 6 21l208 435q14 26 41 26h72q29 0 38 -27zM354 1038l6 -1l-2 3h2q0 2 -4 4l2 -4l-4 -2l-4 1l3 5q-5 -2 -5 -4l2 -1
l-1 -2z" />
    <glyph glyph-name="underscore" unicode="_" horiz-adv-x="647" 
d="M495 -81h-342q-45 0 -45 45v28q0 18 13.5 32.5t31.5 14.5h342q43 0 43 -47v-28q0 -45 -43 -45z" />
    <glyph glyph-name="grave" unicode="`" horiz-adv-x="268" 
d="M166 903h-10q-31 0 -39 28l-74 201q-4 7 -4 15q0 19 19 32t40 13q28 0 40 -22l85 -203q4 -10 4 -18q0 -24 -18 -35t-43 -11z" />
    <glyph glyph-name="a" unicode="a" horiz-adv-x="569" 
d="M461 748h26q47 0 47 -46v-657q0 -45 -47 -45h-26q-40 0 -44 37q-58 -40 -132 -40q-105 0 -177.5 78t-72.5 183v236q0 105 73 183.5t178 78.5q71 0 132 -41q6 33 43 33zM413 258v236q0 55 -37 97q-42 40 -91 40q-54 0 -91.5 -41t-37.5 -96v-236q0 -55 37.5 -96t91.5 -41
q49 0 91 40q37 40 37 97z" />
    <glyph glyph-name="b" unicode="b" horiz-adv-x="569" 
d="M285 756q103 0 176 -78.5t73 -183.5v-236q0 -105 -73 -183t-177 -78q-74 0 -132 40q-4 -37 -44 -37h-27q-46 0 -46 45v1055q0 45 46 45h27q44 0 44 -45v-384q59 40 133 40zM413 258v236q0 55 -37 96t-91 41q-50 0 -92 -40q-37 -42 -37 -97v-236q0 -57 37 -97
q42 -40 92 -40q54 0 91 41t37 96z" />
    <glyph glyph-name="c" unicode="c" horiz-adv-x="569" 
d="M285 -3q-105 0 -177.5 78t-72.5 183v236q0 105 73 183.5t178 78.5q104 0 176 -78.5t72 -183.5v-16q0 -53 -52 -53h-18q-15 0 -25 8l-4 2q-22 14 -22 43v16q0 55 -37 97q-42 40 -91 40q-54 0 -91.5 -41t-37.5 -96v-236q0 -55 37.5 -96t91.5 -41q49 0 91 40q37 40 37 97v16
q0 30 22 44l4 2q14 7 25 7h18q52 0 52 -53v-16q0 -105 -72 -183t-177 -78z" />
    <glyph glyph-name="d" unicode="d" horiz-adv-x="569" 
d="M461 1145h26q47 0 47 -45v-1055q0 -45 -47 -45h-26q-40 0 -44 37q-58 -40 -132 -40q-105 0 -177.5 78t-72.5 183v236q0 105 73 183.5t178 78.5q72 0 131 -40v384q0 45 44 45zM413 258v236q0 55 -37 97q-42 40 -91 40q-54 0 -91.5 -41t-37.5 -96v-236q0 -55 37.5 -96
t91.5 -41q49 0 91 40q37 40 37 97z" />
    <glyph glyph-name="e" unicode="e" horiz-adv-x="569" 
d="M500 346l-344 -1v-87q0 -55 37.5 -96t91.5 -41q49 0 91 40q37 40 37 97v16q0 30 22 44l4 2q14 7 25 7h18q52 0 52 -53v-16q0 -105 -72 -183t-177 -78t-177.5 78t-72.5 183v236q0 105 73 183.5t178 78.5q104 0 176 -78.5t72 -183.5v-115q0 -13 -10 -23t-24 -10zM285 631
q-54 0 -91.5 -41t-37.5 -96v-30l257 1v29q0 55 -37 97q-42 40 -91 40z" />
    <glyph glyph-name="f" unicode="f" horiz-adv-x="407" 
d="M358 1114q15 -15 15 -35v-28q0 -40 -37 -46q-39 -6 -63.5 -37.5t-24.5 -70.5v-160h55q44 0 44 -46v-27q0 -47 -44 -47l-55 -1v-575q0 -46 -44 -46h-27q-45 0 -45 46v575h-54q-43 0 -43 47v27q0 46 43 46h54v161q0 84 54.5 149.5t137.5 78.5l4 1q16 0 30 -12z" />
    <glyph glyph-name="g" unicode="g" horiz-adv-x="602" 
d="M315 754h208q44 0 44 -47v-28q0 -44 -44 -44h-27q38 -65 38 -141v-115q0 -105 -72 -182.5t-177 -77.5q-45 0 -81 13q-13 -19 -13 -51l1 -13q44 19 98 19q104 0 175.5 -78t71.5 -183v-4q0 -105 -71.5 -182.5t-176.5 -77.5t-177.5 77.5t-72.5 182.5v4q0 95 54 162
q-22 45 -23 94v5q0 69 34 114q-69 70 -69 178v115q0 105 73 183.5t178 78.5q13 0 29 -2zM413 379v115q0 55 -37 97q-42 40 -91 40q-54 0 -91.5 -41t-37.5 -96v-115q0 -55 37.5 -96t91.5 -41q48 0 91 40q37 42 37 97zM289 -37q-55 0 -92 -40.5t-37 -96.5v-4q0 -55 37 -95.5
t92 -40.5q49 0 91 39q37 43 37 97v4q0 54 -37 97q-42 40 -91 40z" />
    <glyph glyph-name="h" unicode="h" horiz-adv-x="569" 
d="M108 0h-27q-46 0 -46 45v1055q0 45 46 45h27q44 0 44 -45v-384q59 40 133 40q104 -2 176.5 -79.5t72.5 -182.5l-4 -449q0 -45 -45 -45h-26q-46 0 -46 45v449q0 55 -37 96t-91 41q-50 0 -92 -40q-37 -42 -37 -97l-4 -449q0 -45 -44 -45z" />
    <glyph glyph-name="i" unicode="i" horiz-adv-x="209" 
d="M105 867q-29 0 -49.5 20.5t-20.5 49.5q0 31 19.5 53t50.5 22q30 0 49.5 -22t19.5 -53q0 -29 -20 -49.5t-49 -20.5zM118 0h-27q-45 0 -45 45v648q0 13 12 30q16 14 33 14h27q18 0 32 -14q12 -15 12 -30v-648q0 -45 -44 -45z" />
    <glyph glyph-name="j" unicode="j" horiz-adv-x="226" 
d="M122 867q-30 0 -49.5 21.5t-19.5 50.5q0 30 19.5 51.5t49.5 21.5t49.5 -21.5t19.5 -51.5t-19.5 -51t-49.5 -21zM-11 -392l-5 -2q-16 0 -29 12q-15 15 -15 35v28q0 41 37 46q37 7 62.5 38.5t25.5 70.5v855q0 46 44 46h27q44 0 44 -46v-855q0 -84 -54.5 -150t-136.5 -78z
" />
    <glyph glyph-name="k" unicode="k" horiz-adv-x="577" 
d="M110 0h-31q-44 0 -44 45v915q0 46 44 46h31q45 0 45 -46v-485q0 -3 3 -6q2 -2 3 -2h22q36 0 85 39.5t80 89.5q35 52 57 117q9 23 32 23h51q16 0 26 -10t10 -25q0 -7 -2 -11q-26 -84 -74 -160t-112 -124q79 -57 132.5 -157.5t73.5 -207.5l1 -6q0 -15 -10 -25t-25 -10h-52
q-12 0 -21.5 7.5t-10.5 20.5q-23 108 -76 188q-32 51 -81 90t-84 39h-22q-1 0 -3 -2q-3 -3 -3 -6v-292q0 -45 -45 -45z" />
    <glyph glyph-name="l" unicode="l" horiz-adv-x="187" 
d="M106 0h-27q-44 0 -44 45v1055q0 45 44 45h27q46 0 46 -45v-1055q0 -45 -46 -45z" />
    <glyph glyph-name="m" unicode="m" horiz-adv-x="942" 
d="M108 0h-27q-46 0 -46 45v675q0 14 10 24.5t24 10.5h49q13 0 23.5 -10.5t10.5 -24.5v-4q59 40 133 40q106 -2 176 -78q6 -8 12 -14l13 13q71 79 171 79h5q100 0 171 -79q73 -73 73 -179l-3 -453q0 -45 -45 -45h-26q-46 0 -46 45v449q0 55 -36.5 96t-89.5 41
q-48 0 -87 -36.5t-39 -83.5l-1 -466q0 -45 -47 -45h-27q-46 0 -46 45l-1 465q0 48 -39.5 84.5t-87.5 36.5q-50 0 -92 -40q-37 -42 -37 -97l-4 -449q0 -45 -44 -45z" />
    <glyph glyph-name="n" unicode="n" horiz-adv-x="569" 
d="M108 0h-27q-46 0 -46 45v675q0 14 10 24.5t24 10.5h49q13 0 23.5 -10.5t10.5 -24.5v-4q59 40 133 40q104 -2 176.5 -79.5t72.5 -182.5l-4 -449q0 -45 -45 -45h-26q-46 0 -46 45v449q0 55 -37 96t-91 41q-50 0 -92 -40q-37 -42 -37 -97l-4 -449q0 -45 -44 -45z" />
    <glyph glyph-name="o" unicode="o" horiz-adv-x="569" 
d="M285 -3q-105 0 -177.5 78t-72.5 183v236q0 105 73 183.5t178 78.5q104 0 176 -78.5t72 -183.5v-236q0 -105 -72 -183t-177 -78zM285 121q49 0 91 40q37 40 37 97v236q0 55 -37 97q-42 40 -91 40q-54 0 -91.5 -41t-37.5 -96v-236q0 -55 37.5 -96t91.5 -41z" />
    <glyph glyph-name="p" unicode="p" horiz-adv-x="569" 
d="M285 757q104 0 176.5 -77.5t72.5 -182.5v-237q-2 -106 -73.5 -183t-176.5 -77q-73 0 -132 40v-385q0 -45 -44 -45h-27q-46 0 -46 45v1054q0 47 46 47h27q40 0 43 -38q58 39 134 39zM413 260v237q0 55 -37 96t-91 41q-50 0 -92 -40q-37 -42 -37 -97v-237q0 -55 37 -97
q42 -39 92 -39q54 0 91 40.5t37 95.5z" />
    <glyph glyph-name="q" unicode="q" horiz-adv-x="569" 
d="M461 756h26q47 0 47 -47v-1054q0 -45 -47 -45h-26q-44 0 -44 45v385q-59 -40 -132 -40q-104 0 -177 77.5t-73 182.5v237q0 106 73 183t178 77q72 0 132 -39q3 38 43 38zM413 260v237q0 55 -37 97q-42 40 -91 40q-54 0 -91.5 -41t-37.5 -96v-237q0 -54 37.5 -95t91.5 -41
q49 0 91 39q37 42 37 97z" />
    <glyph glyph-name="r" unicode="r" horiz-adv-x="415" 
d="M108 0h-27q-46 0 -46 45v675q0 14 10 24.5t24 10.5h49q13 0 23.5 -10.5t10.5 -24.5v-4q59 40 133 40q96 0 96 -44v-54q0 -17 -10.5 -27t-26.5 -10q-10 0 -15 2q-22 8 -44 8q-50 0 -92 -40q-37 -42 -37 -97l-4 -449q0 -45 -44 -45z" />
    <glyph glyph-name="s" unicode="s" horiz-adv-x="552" 
d="M284 -4q-100 0 -165 57t-68 148v17q0 20 15 34.5t35 14.5h20q50 0 50 -49v-15q0 -40 30.5 -64t82.5 -24q51 0 81 24t30 64q0 39 -17.5 59.5t-63.5 33.5l-116 37q-163 55 -163 204q0 94 65.5 153.5t167.5 59.5q101 0 167 -57.5t66 -147.5v-18q0 -26 -20 -37
q-14 -12 -30 -12h-20q-50 0 -50 49v16q0 39 -31 63t-82 24t-81.5 -24t-30.5 -63t19.5 -60.5t68.5 -35.5l101 -32q172 -52 172 -206q0 -94 -65.5 -153.5t-167.5 -59.5z" />
    <glyph glyph-name="t" unicode="t" horiz-adv-x="453" 
d="M354 120h20q23 0 33.5 -10.5t10.5 -34.5v-28q0 -47 -44 -47h-20q-94 0 -158.5 69.5t-64.5 162.5v385h-53q-43 0 -43 47v27q0 46 43 46h53v226q0 47 46 47h26q19 0 32.5 -14t13.5 -33l2 -226h99q43 0 43 -46v-27q0 -47 -43 -47h-101v-385q0 -45 30 -78.5t75 -33.5z" />
    <glyph glyph-name="u" unicode="u" horiz-adv-x="569" 
d="M285 0q-104 0 -177 77.5t-73 182.5l4 449q0 47 44 47h27q46 0 46 -47v-449q0 -54 37.5 -95t91.5 -41q49 0 91 39q37 42 37 97l4 449q0 47 44 47h26q47 0 47 -47v-674q0 -14 -10 -24t-24 -10h-50q-14 0 -23.5 10t-9.5 24v5q-59 -40 -132 -40z" />
    <glyph glyph-name="v" unicode="v" horiz-adv-x="619" 
d="M515 751h27q17 0 30 -15t13 -32q0 -7 -2 -13l-197 -659q-9 -32 -41 -32h-70q-32 0 -41 33l-195 656q-4 8 -4 17q0 17 12.5 31t29.5 14h28q32 0 40 -33l165 -555l165 555q8 33 40 33z" />
    <glyph glyph-name="w" unicode="w" horiz-adv-x="910" 
d="M806 737h27q19 0 30.5 -13.5t11.5 -32.5q0 -8 -1 -12l-150 -644q-6 -35 -39 -35h-77q-29 0 -42 34l-111 485l-113 -484q-10 -35 -42 -35h-75q-28 0 -41 34l-148 644q-1 5 -1 13q0 18 12 32t30 14h28q34 0 40 -35l119 -506l118 506q6 35 42 35h61q35 0 42 -35l119 -508
l119 508q6 35 41 35z" />
    <glyph glyph-name="x" unicode="x" horiz-adv-x="578" 
d="M537 666l-182 -297l181 -297q7 -10 7 -25q0 -18 -11.5 -32.5t-29.5 -14.5h-29q-23 0 -36 20l-148 243l-150 -244q-15 -19 -33 -19h-31q-19 0 -29.5 13.5t-10.5 32.5q0 9 6 25l183 297l-182 298q-6 11 -7 24l1 4q2 12 5 16q8 27 35 27h31q22 0 34 -20l149 -243l149 244
q15 19 35 19h29q19 0 30 -13.5t11 -32.5q0 -15 -7 -25z" />
    <glyph glyph-name="y" unicode="y" horiz-adv-x="616" 
d="M508 737h29q19 0 31.5 -12t12.5 -31q0 -4 -2 -14l-302 -925q-46 -123 -175 -147l-5 -2q-17 0 -31 12q-14 16 -14 35v28q0 39 36 46q58 13 79 68l78 247v8l-209 627q-1 6 -1 14q0 18 12 32t30 14h30q35 0 42 -31l159 -477l159 477q6 31 41 31zM300 206l1 2q-1 -1 -1 -2z
" />
    <glyph glyph-name="z" unicode="z" horiz-adv-x="553" 
d="M478 0h-402q-17 0 -29 15t-12 32v87q0 13 8 28l355 453h-290q-41 0 -41 47v29q0 46 41 46h369q17 0 29 -14.5t12 -31.5v-87q0 -17 -10 -30l-356 -454h326q40 0 40 -45v-28q0 -47 -40 -47z" />
    <glyph glyph-name="braceleft" unicode="{" horiz-adv-x="561" 
d="M305 1002v-304q0 -70 -46 -125q46 -54 46 -127v-304q0 -41 28 -72t69 -31h6q45 0 45 -47v-28q0 -45 -45 -45h-6q-90 0 -150.5 66t-60.5 157v304q0 22 -14 40.5t-35 24.5q-34 6 -34 44v35q0 32 32 43q21 6 36 24q15 22 15 41v304q0 91 60.5 157.5t150.5 66.5h6
q45 0 45 -45v-29q0 -46 -45 -46h-6q-38 0 -68 -30q-29 -32 -29 -74z" />
    <glyph glyph-name="bar" unicode="|" horiz-adv-x="333" 
d="M179 -307h-27q-44 0 -44 46v1219q0 45 44 45h27q46 0 46 -45v-1219q0 -46 -46 -46z" />
    <glyph glyph-name="braceright" unicode="}" horiz-adv-x="561" 
d="M422 633q31 -9 31 -43v-35q0 -37 -33 -44q-21 -5 -34 -24t-13 -41v-304q0 -92 -61.5 -157.5t-152.5 -65.5h-7q-44 0 -44 45v28q0 47 44 47h7q40 0 68.5 31.5t28.5 72.5l1 303q0 70 45 126q-45 54 -45 126v304q0 41 -28 72.5t-68 31.5h-9q-44 0 -44 46v29q0 45 44 45h9
q90 0 151 -66.5t61 -157.5v-304q0 -23 13.5 -41t35.5 -24z" />
    <glyph glyph-name="asciitilde" unicode="~" horiz-adv-x="826" 
d="M755 612q9 -31 9 -64q0 -83 -61.5 -146t-143.5 -63q-100 0 -169 95q-7 13 -30 56l-3 5l-2 4l-3 3q-4 6 -5 10l-2 4l-7 12l-1 2l-11 15l-11 11l-17 8q-13 6 -35 8q-42 -2 -64 -35l-1 -2q-21 -30 -21 -56q0 -22 14 -45q5 -12 5 -17q0 -29 -31 -29h-51q-53 0 -53 94
q0 82 61 145t143 64q123 -1 199 -148q32 -63 62 -78q22 -8 39 -8q34 0 57 29l6 9q20 31 20 59q0 21 -12 42q-4 5 -4 17l1 11q9 19 28 19h51q31 0 43 -31z" />
    <glyph glyph-name="exclamdown" unicode="&#xa1;" horiz-adv-x="387" 
d="M209 -146h-28q-44 0 -44 45v806q0 46 44 46h28q43 0 43 -46v-806q0 -45 -43 -45zM206 -395h-23q-31 0 -53 23t-22 55v23q0 31 22 54t53 23h23q32 0 52.5 -22.5t20.5 -54.5v-23q0 -31 -21.5 -54.5t-51.5 -23.5z" />
    <glyph glyph-name="cent" unicode="&#xa2;" horiz-adv-x="707" 
d="M588 248h30q19 0 31.5 -13.5t12.5 -32.5q0 -12 -6 -21q-38 -72 -97 -119t-131 -61v-104q0 -45 -45 -45h-29q-43 0 -43 45v108q-119 27 -188 132t-69 232q0 122 70.5 225.5t186.5 134.5v108q0 44 43 44h29q45 0 45 -44v-104q132 -26 211 -150q8 -11 8 -25q0 -4 -5 -19
q-14 -27 -40 -27h-32q-24 0 -38 19q-42 60 -104 78v-484q72 19 120 100q12 23 40 23zM311 129v473q-66 -27 -104 -93t-38 -140q0 -79 37 -144.5t105 -95.5z" />
    <glyph glyph-name="sterling" unicode="&#xa3;" horiz-adv-x="922" 
d="M251 449v-330h574q43 0 43 -45v-29q0 -45 -43 -45h-645q-43 0 -43 45v404h-40q-43 0 -43 45v28q0 46 43 46h40v140q0 82 27.5 160.5t76 140t122 99t158.5 37.5q160 0 276 -131l44 -64q7 -11 7 -23q0 -20 -13.5 -32.5t-33.5 -12.5h-32q-21 0 -34 19l-25 33q-83 92 -189 92
q-80 0 -143.5 -47.5t-95 -119t-31.5 -151.5v-140h313q43 0 43 -46v-28q0 -45 -43 -45h-313z" />
    <glyph glyph-name="currency" unicode="&#xa4;" horiz-adv-x="964" 
d="M754 372l144 -153q15 -14 15 -31q0 -16 -15 -32l-18 -19q-15 -16 -32 -16q-18 0 -31 16l-139 142q-89 -75 -194 -75q-110 0 -198 76l-138 -143q-12 -17 -31 -17q-17 0 -32 17l-20 19q-14 17 -14 32t15 32l144 151q-52 91 -52 202q0 106 53 203l-146 150q-13 16 -13 32
q0 15 13 31l20 20q16 16 32 16q19 0 31 -17l138 -142q92 75 198 75q105 0 195 -75l138 143q13 15 31 15q17 0 32 -16l18 -19q15 -13 15 -31t-15 -33l-145 -152q54 -93 54 -200t-53 -201zM658 437q34 66 34 136q0 68 -34 134q-72 115 -174 115q-93 0 -151 -76.5t-58 -172.5
q0 -97 58 -174t151 -77q99 0 174 115z" />
    <glyph glyph-name="yen" unicode="&#xa5;" horiz-adv-x="776" 
d="M658 1145h50q32 0 32 -31v-6l-91 -238l-32 -85l-37 -99q-44 -118 -93 -242h65q43 0 43 -45v-29q0 -46 -43 -46h-104v-64h104q18 0 30.5 -14t12.5 -31v-30q0 -45 -43 -45h-104v-97q-8 -43 -45 -43h-33q-43 0 -43 47v93h-102q-43 0 -43 45v30q0 17 12.5 31t30.5 14h102v64
h-102q-43 0 -43 46v29q0 45 43 45h62l-247 656l-4 6q0 39 32 39h51q26 0 42 -27l227 -601l227 601q14 27 43 27z" />
    <glyph glyph-name="brokenbar" unicode="&#xa6;" horiz-adv-x="333" 
d="M179 404h-27q-44 0 -44 44v510q0 45 44 45h27q46 0 46 -45v-510q0 -44 -46 -44zM179 -299h-27q-44 0 -44 46v508q0 46 44 46h27q19 0 32.5 -14t13.5 -32v-508q0 -19 -13.5 -32.5t-32.5 -13.5z" />
    <glyph glyph-name="section" unicode="&#xa7;" 
d="M284 -4q-100 0 -165 57t-68 148v17q0 20 15 34.5t35 14.5h20q50 0 50 -49v-15q0 -40 30.5 -64t82.5 -24q51 0 81 24t30 64q0 39 -17.5 59.5t-63.5 33.5l-116 37q-163 55 -163 204q0 106 84 167q-84 57 -84 167q0 94 65.5 153.5t167.5 59.5q101 0 167 -57.5t66 -147.5v-18
q0 -19 -15.5 -34t-34.5 -15h-20q-50 0 -50 49v16q0 39 -31 63t-82 24t-81.5 -24t-30.5 -63t19.5 -60.5t68.5 -35.5l101 -32q172 -52 172 -206q0 -108 -85 -168q85 -55 85 -166q0 -94 -65.5 -153.5t-167.5 -59.5zM284 450q79 0 104 49q-7 11 -7 28v16q0 39 -31 63t-82 24
q-81 0 -104 -50q7 -12 7 -27v-16q0 -39 31 -63t82 -24z" />
    <glyph glyph-name="dieresis" unicode="&#xa8;" horiz-adv-x="535" 
d="M159 1001h-16q-27 0 -47 20t-20 47v18q0 28 19.5 47.5t47.5 19.5h16q28 0 47.5 -19.5t19.5 -47.5v-18q0 -27 -20 -47t-47 -20zM357 1001h-18q-26 0 -45.5 20.5t-19.5 46.5v18q0 28 19.5 47.5t45.5 19.5h18q28 0 47 -19.5t19 -47.5v-18q0 -27 -19.5 -47t-46.5 -20z" />
    <glyph glyph-name="copyright" unicode="&#xa9;" horiz-adv-x="1120" 
d="M468 -2q-146 0 -251 99t-109 245v459q4 146 108.5 246t251.5 100q145 0 249.5 -100.5t107.5 -245.5v-459q-3 -143 -108 -243.5t-249 -100.5zM468 124q95 0 165 65.5t70 160.5v443q0 96 -69 161.5t-166 65.5q-98 0 -168 -65t-70 -162v-443q0 -96 70.5 -161t167.5 -65z
M473 302q-78 0 -132 57t-54 135v157q0 78 54.5 135t132.5 57t130.5 -56.5t52.5 -135.5v-12q0 -23 -15 -38.5t-38 -15.5h-14q-21 0 -36.5 16.5t-15.5 37.5v12q0 32 -20 49q-19 22 -45 22q-28 0 -47 -21.5t-19 -49.5v-157q0 -28 19 -49.5t47 -21.5q26 0 45 22q20 17 20 49v12
q0 20 16 37t36 17h14q23 0 38 -15.5t15 -38.5v-12q0 -79 -53 -135.5t-131 -56.5z" />
    <glyph glyph-name="ordfeminine" unicode="&#xaa;" horiz-adv-x="410" 
d="M328 822h20q37 0 37 -38v-459q0 -39 -37 -39h-20q-28 0 -34 24q-40 -26 -89 -26q-75 0 -127.5 57t-52.5 133v164q0 78 52 133.5t129 56.5q50 -2 89 -26q6 20 33 20zM289 474v164q0 36 -24 63.5t-60 27.5t-60 -27t-24 -64v-164q0 -37 24 -64t60 -27q31 0 60 27
q24 26 24 64z" />
    <glyph glyph-name="guillemotleft" unicode="&#xab;" horiz-adv-x="673" 
d="M332 523l-154 -165l156 -166q11 -14 11 -32v-77q0 -30 -31 -30q-13 0 -22 10l-227 242q-11 15 -11 30v45q0 18 11 31l227 241q9 11 23 11l8 -1q22 -7 22 -31v-76q0 -19 -13 -32zM565 631v-76q0 -9 -12 -30l-156 -166l156 -168q12 -19 12 -31v-77q0 -14 -9 -22t-22 -8
t-22 10l-228 242q-11 15 -11 30v45q0 18 11 31l228 241q8 11 22 11l9 -1q22 -7 22 -31z" />
    <glyph glyph-name="uni00AD" unicode="&#xad;" horiz-adv-x="647" 
d="M495 453h-342q-14 0 -31 12q-14 16 -14 34v29q0 18 14 34q17 12 31 12h342q43 0 43 -46v-29q0 -46 -43 -46z" />
    <glyph glyph-name="registered" unicode="&#xae;" horiz-adv-x="864" 
d="M471 1141q105 0 183 -74t78 -178v-325q0 -105 -77.5 -178t-183.5 -73q-105 0 -181 73t-79 178v326q3 105 79 178t181 73zM634 568v316q0 66 -48 111t-115 45t-114.5 -44.5t-47.5 -111.5v-316q0 -65 48 -109t114 -44t114.5 44t48.5 109zM576 735q-2 -3 -8 -9
q33 -50 33 -123v-24q0 -40 -39 -40h-9q-39 0 -39 41v23q0 38 -13 66t-32 32h-31v-122q0 -19 -11.5 -29.5t-30.5 -10.5h-8q-41 0 -41 40v297q0 39 41 39h113q44 0 74 -30.5t30 -74.5q0 -46 -29 -75zM508 796l4 3q5 3 5 11q0 6 -7 10l-1 2q-5 5 -8 5l-63 -1v-34h63q4 0 7 4z
" />
    <glyph glyph-name="degree" unicode="&#xb0;" horiz-adv-x="448" 
d="M223 790q-72 0 -120.5 53t-48.5 125t48.5 124t120.5 53q73 -1 122 -52.5t49 -124.5t-49 -125.5t-122 -52.5zM223 908q24 0 40 18t16 42t-16 41t-40 17q-23 0 -38.5 -17.5t-15.5 -40.5q0 -24 15.5 -42t38.5 -18z" />
    <glyph glyph-name="uni00B2" unicode="&#xb2;" horiz-adv-x="322" 
d="M144 1043l-12 -15h136q30 0 39 -33v-19q0 -15 -11.5 -27t-27.5 -12h-214q-16 0 -27.5 12t-11.5 27v35q0 10 8 24l184 228q12 13 12 26q0 23 -17 38.5t-41 15.5q-49 0 -59 -51q-4 -25 -32 -31h-18q-20 0 -29 12.5t-9 26.5q0 25 14 51.5t33 43.5q43 38 100 38
q62 0 104.5 -42.5t42.5 -101.5q0 -45 -30 -81z" />
    <glyph glyph-name="uni00B3" unicode="&#xb3;" horiz-adv-x="355" 
d="M177 943q-62 0 -112.5 42.5t-50.5 102.5q0 25 29 35l8 2q3 0 6.5 -0.5t4.5 -0.5h3q13 -1 19.5 -3t12.5 -8.5t8 -18.5q5 -29 24 -45.5t48 -16.5t51 18t22 44q0 24 -20.5 41.5t-44.5 19.5h-8q-6 0 -9 2q-27 7 -27 31l-1 3v8q0 5 1 7q1 14 11 23.5t23 9.5q28 0 48.5 16
t20.5 40t-20 40.5t-47 16.5q-26 0 -44.5 -14.5t-22.5 -39.5q0 -11 -8.5 -21t-25.5 -10h-20q-16 0 -25 10.5t-9 24.5q0 58 47.5 98t107.5 40q65 0 110.5 -41t45.5 -104q0 -57 -39 -96q46 -41 46 -105t-48.5 -107.5t-114.5 -43.5z" />
    <glyph glyph-name="acute" unicode="&#xb4;" horiz-adv-x="294" 
d="M101 903h-9q-25 0 -43 11t-18 35q0 10 4 19l85 202q10 22 40 22q21 0 40 -13t19 -32q0 -6 -4 -14l-74 -202q-8 -28 -40 -28z" />
    <glyph glyph-name="paragraph" unicode="&#xb6;" horiz-adv-x="763" 
d="M255 1145h356q18 0 31.5 -14t13.5 -31v-29q0 -47 -45 -47h-30v-979q0 -45 -45 -45h-27q-44 0 -44 45v979h-112v-979q0 -45 -45 -45h-29q-44 0 -44 45v652q-80 11 -130.5 76t-50.5 148q0 89 56.5 156.5t144.5 67.5z" />
    <glyph glyph-name="periodcentered" unicode="&#xb7;" horiz-adv-x="397" 
d="M211 479h-25q-33 0 -55.5 24t-22.5 57v25q0 32 23 56t55 24h25q32 0 54.5 -24t22.5 -56v-25q0 -32 -22.5 -56.5t-54.5 -24.5z" />
    <glyph glyph-name="cedilla" unicode="&#xb8;" horiz-adv-x="221" 
d="M140 -237q-54 0 -92 41t-38 91q0 25 16 38t38 13h4q35 0 49 -41l7 -22q2 -6 4 -8q5 -5 12 -5q9 0 15.5 10.5t6.5 23.5q0 24 -18 34l-34 33q-24 36 -24 69q0 26 16 37t37 11q48 0 58 -52q0 -3 1 -4q2 -4 7 -7q64 -43 64 -121q0 -53 -35.5 -97t-93.5 -44z" />
    <glyph glyph-name="uni00B9" unicode="&#xb9;" horiz-adv-x="194" 
d="M127 1430h14q19 0 29.5 -11.5t10.5 -28.5v-416q0 -17 -10.5 -28t-29.5 -11h-13q-38 0 -38 39l1 263q-10 -7 -21 -7h-20q-15 0 -25.5 10t-10.5 26q0 9 4 16l76 125l1 5l3 3l1 3q17 12 28 12z" />
    <glyph glyph-name="ordmasculine" unicode="&#xba;" horiz-adv-x="410" 
d="M205 275q-76 0 -128 55.5t-52 132.5v165q0 78 52 133.5t129 55.5q76 0 127.5 -56t51.5 -133v-165q0 -76 -52 -132t-128 -56zM205 374q32 0 60 25q24 25 24 64v165q0 36 -24 63t-60 27t-60 -26.5t-24 -63.5v-165q0 -37 24 -63t60 -26z" />
    <glyph glyph-name="guillemotright" unicode="&#xbb;" horiz-adv-x="674" 
d="M401 380v-45q0 -17 -11 -31l-228 -241q-6 -10 -23 -10q-8 0 -11 1q-20 9 -20 29v77q0 12 12 31l157 167l-157 167q-12 21 -12 30v76q0 24 21 30q4 2 10 2q14 0 22 -11l228 -240q12 -14 12 -32zM381 652l228 -241q11 -15 11 -31v-45q0 -15 -11 -30l-228 -242v1
q-12 -11 -22 -11q-9 0 -12 1q-20 9 -20 29v77q0 12 12 31l158 167l-158 167q-12 21 -12 30v76q0 23 22 30h-2q4 2 12 2q14 0 22 -11z" />
    <glyph glyph-name="questiondown" unicode="&#xbf;" horiz-adv-x="757" 
d="M386 571h-19q-32 0 -54 23t-22 55v23q0 33 21.5 56t54.5 23h19q33 0 55.5 -23t22.5 -56v-23q0 -32 -22.5 -55t-55.5 -23zM631 -7h27q19 0 31 -15.5t12 -34.5q-9 -137 -99 -239t-224 -102q-72 0 -134 32.5t-103 85t-64 118.5t-23 135q0 96 44 185t122 139q90 61 98 163
q7 40 45 40h27q18 0 31 -13t13 -30v-6q-15 -170 -155 -257h1q-53 -33 -82 -93t-29 -128q0 -97 57.5 -173.5t151.5 -76.5q86 0 144 69t64 159q3 42 45 42z" />
    <glyph glyph-name="Agrave" unicode="&#xc0;" horiz-adv-x="865" 
d="M463 1316h-10q-31 0 -39 29l-76 204q-4 7 -4 15q0 19 19 32.5t41 13.5q29 0 41 -22l86 -207q5 -8 5 -18q0 -47 -63 -47zM497 1136l340 -1079q2 -8 2 -14q0 -12 -5 -22q-15 -21 -38 -21h-31q-33 0 -43 33l-72 216q-2 3 -5 3h-425q-6 0 -6 -3l-73 -218q-11 -31 -43 -31h-28
q-21 0 -36 19q-9 13 -9 27q0 9 1 15l339 1075q11 29 43 29h48q29 0 41 -29zM607 381v1l-176 568l-175 -568q0 -2 3 -5q1 -3 5 -3h336q7 0 7 7z" />
    <glyph glyph-name="Aacute" unicode="&#xc1;" horiz-adv-x="865" 
d="M426 1316h-9q-25 0 -43.5 11t-18.5 36q0 10 4 19l86 206q10 22 41 22q22 0 41 -13.5t19 -32.5q0 -6 -4 -14l-75 -205q-8 -29 -41 -29zM497 1136l340 -1079q2 -8 2 -14q0 -12 -5 -22q-15 -21 -38 -21h-31q-33 0 -43 33l-72 216q-2 3 -5 3h-425q-6 0 -6 -3l-73 -218
q-11 -31 -43 -31h-28q-21 0 -36 19q-9 13 -9 27q0 9 1 15l339 1075q11 29 43 29h48q29 0 41 -29zM607 381v1l-176 568l-175 -568q0 -2 3 -5q1 -3 5 -3h336q7 0 7 7z" />
    <glyph glyph-name="Acircumflex" unicode="&#xc2;" horiz-adv-x="865" 
d="M354 1316h-9q-25 0 -43.5 11t-18.5 36q0 10 4 18q46 119 85 207q11 23 47 23q35 0 47 -23l58 -140l18 -42q5 -14 11 -25q3 -9 3 -18q0 -25 -18.5 -36t-42.5 -11h-11q-30 0 -41 29l-24 66l-23 -66q-9 -29 -42 -29zM497 1136l340 -1079q2 -8 2 -14q0 -12 -5 -22
q-15 -21 -38 -21h-31q-33 0 -43 33l-72 216q-2 3 -5 3h-425q-6 0 -6 -3l-73 -218q-11 -31 -43 -31h-28q-21 0 -36 19q-9 13 -9 27q0 9 1 15l339 1075q11 29 43 29h48q29 0 41 -29zM607 381v1l-176 568l-175 -568q0 -2 3 -5q1 -3 5 -3h336q7 0 7 7z" />
    <glyph glyph-name="Atilde" unicode="&#xc3;" horiz-adv-x="865" 
d="M520 1353q-68 0 -107 83l-8 13q-8 19 -18 31q-10 6 -17 6q-13 0 -20 -14t-7 -29q0 -6 5 -21l5 -9l2 -5q2 -10 2 -12q0 -26 -35 -32l-8 -1h-13q-18 0 -28.5 17.5t-13 34t-2.5 33.5q0 53 31 97t82 44q36 0 58.5 -19.5t43.5 -56.5l13 -23q19 -36 35 -36q13 0 19.5 15t6.5 30
q0 11 -5 19l-4 12q-1 5 -1 13q0 26 24 32h3q9 3 14 3h14q23 0 32.5 -29t9.5 -56q0 -53 -31 -96.5t-82 -43.5zM497 1136l340 -1079q2 -8 2 -14q0 -12 -5 -22q-15 -21 -38 -21h-31q-33 0 -43 33l-72 216q-2 3 -5 3h-425q-6 0 -6 -3l-73 -218q-11 -31 -43 -31h-28q-21 0 -36 19
q-9 13 -9 27q0 9 1 15l339 1075q11 29 43 29h48q29 0 41 -29zM607 381v1l-176 568l-175 -568q0 -2 3 -5q1 -3 5 -3h336q7 0 7 7z" />
    <glyph glyph-name="Adieresis" unicode="&#xc4;" horiz-adv-x="865" 
d="M351 1416h-17q-28 0 -48 20.5t-20 47.5v18q0 28 20 48t48 20h17q28 0 48 -20t20 -48v-18q0 -27 -20 -47.5t-48 -20.5zM552 1416h-18q-27 0 -46.5 20.5t-19.5 47.5v18q0 28 19.5 48t46.5 20h18q28 0 47.5 -19.5t19.5 -48.5v-18q0 -27 -19.5 -47.5t-47.5 -20.5zM497 1136
l340 -1079q2 -8 2 -14q0 -12 -5 -22q-15 -21 -38 -21h-31q-33 0 -43 33l-72 216q-2 3 -5 3h-425q-6 0 -6 -3l-73 -218q-11 -31 -43 -31h-28q-21 0 -36 19q-9 13 -9 27q0 9 1 15l339 1075q11 29 43 29h48q29 0 41 -29zM607 381v1l-176 568l-175 -568q0 -2 3 -5q1 -3 5 -3h336
q7 0 7 7z" />
    <glyph glyph-name="Aring" unicode="&#xc5;" horiz-adv-x="865" 
d="M445 1336q-54 0 -90 39t-36 93t36.5 93.5t89.5 39.5q55 0 91.5 -39.5t36.5 -93.5q0 -55 -36.5 -93.5t-91.5 -38.5zM445 1432q14 0 24.5 11t10.5 25q0 15 -10 25q-12 10 -25 10q-14 0 -21 -10q-10 -10 -10 -25t10 -25q8 -11 21 -11zM497 1136l340 -1079q2 -8 2 -14
q0 -12 -5 -22q-15 -21 -38 -21h-31q-33 0 -43 33l-72 216q-2 3 -5 3h-425q-6 0 -6 -3l-73 -218q-11 -31 -43 -31h-28q-21 0 -36 19q-9 13 -9 27q0 9 1 15l339 1075q11 29 43 29h48q29 0 41 -29zM607 381v1l-176 568l-175 -568q0 -2 3 -5q1 -3 5 -3h336q7 0 7 7z" />
    <glyph glyph-name="AE" unicode="&#xc6;" horiz-adv-x="1067" 
d="M108 0h-28q-21 0 -36 19q-9 13 -9 27q0 9 1 15l334 1059q0 17 14 33q17 12 32 12h567q44 0 44 -46v-33q0 -45 -44 -45h-487l-2 -1l-2 -5v-365q0 -4 4 -4h426q45 0 45 -47v-34q0 -45 -43 -45h-428q-4 0 -4 -6v-402q0 -7 4 -7h487q44 0 44 -46v-33q0 -18 -13 -32t-31 -14
h-567q-18 0 -32 14.5t-14 31.5v206h-140q-6 0 -6 -3l-73 -218q-11 -31 -43 -31zM274 374h96v346l-104 -338q0 -2 3 -5q1 -3 5 -3z" />
    <glyph glyph-name="Ccedilla" unicode="&#xc7;" horiz-adv-x="811" 
d="M406 -241q-55 0 -93 41.5t-38 92.5q0 26 15 38.5t38 12.5h4q20 0 33.5 -12.5t17.5 -32.5l6 -18q6 -14 17 -14q9 0 15.5 10.5t6.5 24.5q0 23 -17 34l-34 35q-13 13 -19 32q-93 12 -167.5 68.5t-115 139.5t-40.5 177v389q0 157 107 272.5t264 115.5h2q156 0 262 -116
t106 -272v-29q0 -44 -44 -44h-31q-15 0 -31 11q-14 14 -14 33v29q0 107 -72.5 185.5t-177.5 78.5q-106 0 -178.5 -78.5t-72.5 -185.5v-389q0 -106 72.5 -185t178.5 -79q105 0 177.5 79t72.5 185v28q0 18 13 31.5t32 13.5h31q44 0 44 -45v-28q0 -131 -80 -239.5t-205 -139.5
q46 -42 46 -107q0 -55 -36 -99t-95 -44z" />
    <glyph glyph-name="Egrave" unicode="&#xc8;" horiz-adv-x="687" 
d="M388 1316h-10q-30 0 -40 29l-75 204q-4 7 -4 15q0 19 19 32.5t41 13.5q29 0 41 -22l86 -207q4 -10 4 -18q0 -47 -62 -47zM626 0h-567q-18 0 -31.5 14.5t-13.5 31.5v1073q0 20 14 34q17 12 31 12h567q45 0 45 -46v-33q0 -45 -45 -45h-486l-2 -1l-2 -5v-365q0 -4 4 -4h426
q45 0 45 -47v-34q0 -45 -43 -45h-428q-4 0 -4 -6v-402q0 -7 4 -7h486q45 0 45 -46v-33q0 -18 -13 -32t-32 -14z" />
    <glyph glyph-name="Eacute" unicode="&#xc9;" horiz-adv-x="687" 
d="M332 1316h-9q-25 0 -43.5 11t-18.5 36q0 10 4 19l86 206q10 22 41 22q22 0 41 -13.5t19 -32.5q0 -6 -4 -14l-75 -205q-10 -29 -41 -29zM626 0h-567q-18 0 -31.5 14.5t-13.5 31.5v1073q0 20 14 34q17 12 31 12h567q45 0 45 -46v-33q0 -45 -45 -45h-486l-2 -1l-2 -5v-365
q0 -4 4 -4h426q45 0 45 -47v-34q0 -45 -43 -45h-428q-4 0 -4 -6v-402q0 -7 4 -7h486q45 0 45 -46v-33q0 -18 -13 -32t-32 -14z" />
    <glyph glyph-name="Ecircumflex" unicode="&#xca;" horiz-adv-x="687" 
d="M284 1316h-9q-25 0 -43.5 11t-18.5 36q0 10 4 18q46 119 85 207q12 23 47 23t47 -23l58 -140l18 -42q2 -5 6.5 -14.5t4.5 -10.5q3 -9 3 -18q0 -25 -18.5 -36t-42.5 -11h-11q-30 0 -41 29l-24 66l-23 -66q-9 -29 -42 -29zM626 0h-567q-18 0 -31.5 14.5t-13.5 31.5v1073
q0 20 14 34q17 12 31 12h567q45 0 45 -46v-33q0 -45 -45 -45h-486l-2 -1l-2 -5v-365q0 -4 4 -4h426q45 0 45 -47v-34q0 -45 -43 -45h-428q-4 0 -4 -6v-402q0 -7 4 -7h486q45 0 45 -46v-33q0 -18 -13 -32t-32 -14z" />
    <glyph glyph-name="Edieresis" unicode="&#xcb;" horiz-adv-x="687" 
d="M256 1416h-16q-28 0 -48 20.5t-20 47.5v18q0 28 20 48t48 20h16q29 0 49 -20t20 -48v-18q0 -27 -20.5 -47.5t-48.5 -20.5zM458 1416h-18q-27 0 -46.5 20.5t-19.5 47.5v18q0 28 19.5 48t46.5 20h18q28 0 47.5 -19.5t19.5 -48.5v-18q0 -27 -19.5 -47.5t-47.5 -20.5zM626 0
h-567q-18 0 -31.5 14.5t-13.5 31.5v1073q0 20 14 34q17 12 31 12h567q45 0 45 -46v-33q0 -45 -45 -45h-486l-2 -1l-2 -5v-365q0 -4 4 -4h426q45 0 45 -47v-34q0 -45 -43 -45h-428q-4 0 -4 -6v-402q0 -7 4 -7h486q45 0 45 -46v-33q0 -18 -13 -32t-32 -14z" />
    <glyph glyph-name="Igrave" unicode="&#xcc;" horiz-adv-x="149" 
d="M105 1316h-10q-32 0 -40 29l-75 204q-4 7 -4 15q0 19 19 32.5t41 13.5q28 0 41 -22l86 -207q4 -10 4 -18q0 -47 -62 -47zM89 0h-31q-45 0 -45 46v1073q0 46 45 46h31q46 0 46 -46v-1073q0 -46 -46 -46z" />
    <glyph glyph-name="Iacute" unicode="&#xcd;" horiz-adv-x="149" 
d="M49 1316h-9q-26 0 -44.5 11t-18.5 36q0 10 4 19l87 206q10 22 41 22q22 0 41 -13.5t19 -32.5q0 -6 -4 -14l-76 -205q-8 -29 -40 -29zM89 0h-31q-45 0 -45 46v1073q0 46 45 46h31q46 0 46 -46v-1073q0 -46 -46 -46z" />
    <glyph glyph-name="Icircumflex" unicode="&#xce;" horiz-adv-x="145" 
d="M-1 1316h-9q-25 0 -43.5 11t-18.5 36q0 10 4 18q68 166 86 207q11 23 46 23t47 -23l58 -140l19 -42q2 -8 10 -25q3 -9 3 -18q0 -25 -18.5 -36t-42.5 -11h-10q-31 0 -42 29l-24 66l-23 -66q-9 -29 -42 -29zM87 0h-31q-45 0 -45 46v1073q0 46 45 46h31q46 0 46 -46v-1073
q0 -46 -46 -46z" />
    <glyph glyph-name="Idieresis" unicode="&#xcf;" horiz-adv-x="143" 
d="M-30 1416h-16q-28 0 -48 20.5t-20 47.5v18q0 28 20 48t48 20h16q28 0 48 -20t20 -48v-18q0 -27 -20 -47.5t-48 -20.5zM172 1416h-19q-26 0 -46 20.5t-20 47.5v18q0 28 19.5 48t46.5 20h19q28 0 47.5 -20t19.5 -48v-18q0 -27 -20 -47.5t-47 -20.5zM86 0h-31q-45 0 -45 46
v1073q0 46 45 46h31q46 0 46 -46v-1073q0 -46 -46 -46z" />
    <glyph glyph-name="Ntilde" unicode="&#xd1;" horiz-adv-x="770" 
d="M471 1353q-69 0 -108 83l-8 13q-8 19 -18 31q-10 6 -17 6q-13 0 -20 -14.5t-7 -28.5q0 -6 5 -21l6 -9l1 -5q2 -10 2 -12q0 -26 -35 -32l-8 -1h-13q-18 0 -28.5 17.5t-13 34t-2.5 33.5q0 53 31 97t82 44q36 0 58.5 -19.5t43.5 -56.5l13 -23q19 -36 36 -36q13 0 19 15t6 30
q0 11 -5 19l-4 12q-1 5 -1 13q0 26 24 32h3q9 3 15 3h13q23 0 32.5 -29t9.5 -56q0 -53 -30.5 -96.5t-81.5 -43.5zM681 1167h30q44 0 44 -48v-1073q0 -46 -44 -46h-87q-29 0 -41 28l-449 955v-937q0 -46 -44 -46h-31q-45 0 -45 46v1073q0 46 45 46h88q25 0 38 -26l450 -958
v938q0 19 13.5 33.5t32.5 14.5z" />
    <glyph glyph-name="Ograve" unicode="&#xd2;" horiz-adv-x="770" 
d="M433 1316h-11q-31 0 -39 29l-76 204q-4 7 -4 15q0 19 19 32.5t41 13.5q29 0 41 -22l87 -207q4 -10 4 -18q0 -25 -18.5 -36t-43.5 -11zM387 0h-2q-157 0 -264 115.5t-107 272.5v389q0 157 107 272.5t264 115.5h2q156 0 262 -116t106 -272v-389q-2 -158 -107 -273
t-261 -115zM385 124q105 0 177.5 79t72.5 185v389q0 107 -72.5 185.5t-177.5 78.5q-106 0 -178.5 -78.5t-72.5 -185.5v-389q0 -106 72.5 -185t178.5 -79z" />
    <glyph glyph-name="Oacute" unicode="&#xd3;" horiz-adv-x="770" 
d="M376 1316h-9q-25 0 -43.5 11t-18.5 36q0 10 4 19l86 206q12 22 41 22q22 0 41 -13.5t19 -32.5q0 -6 -4 -14l-75 -205q-8 -29 -41 -29zM387 0h-2q-157 0 -264 115.5t-107 272.5v389q0 157 107 272.5t264 115.5h2q156 0 262 -116t106 -272v-389q-2 -158 -107 -273
t-261 -115zM385 124q105 0 177.5 79t72.5 185v389q0 107 -72.5 185.5t-177.5 78.5q-106 0 -178.5 -78.5t-72.5 -185.5v-389q0 -106 72.5 -185t178.5 -79z" />
    <glyph glyph-name="Ocircumflex" unicode="&#xd4;" horiz-adv-x="770" 
d="M328 1316h-9q-25 0 -43.5 11t-18.5 36q0 10 4 18q68 166 86 207q11 23 47 23q34 0 46 -23l58 -140l19 -42q3 -8 10 -25q3 -9 3 -18q0 -25 -18.5 -36t-42.5 -11h-10q-31 0 -42 29l-23 66l-24 -66q-9 -29 -42 -29zM387 0h-2q-157 0 -264 115.5t-107 272.5v389
q0 157 107 272.5t264 115.5h2q156 0 262 -116t106 -272v-389q-2 -158 -107 -273t-261 -115zM385 124q105 0 177.5 79t72.5 185v389q0 107 -72.5 185.5t-177.5 78.5q-106 0 -178.5 -78.5t-72.5 -185.5v-389q0 -106 72.5 -185t178.5 -79z" />
    <glyph glyph-name="Otilde" unicode="&#xd5;" horiz-adv-x="770" 
d="M471 1353q-69 0 -108 83l-8 13q-8 19 -18 31q-10 6 -17 6q-13 0 -20 -14.5t-7 -28.5q0 -6 5 -21l6 -9l1 -5q2 -10 2 -12q0 -26 -35 -32l-8 -1h-13q-18 0 -28.5 17.5t-13 34t-2.5 33.5q0 53 31 97t82 44q36 0 58.5 -19.5t43.5 -56.5l13 -23q19 -36 36 -36q13 0 19 15t6 30
q0 11 -5 19l-4 12q-1 5 -1 13q0 26 24 32h3q9 3 15 3h13q23 0 32.5 -29t9.5 -56q0 -53 -30.5 -96.5t-81.5 -43.5zM387 0h-2q-157 0 -264 115.5t-107 272.5v389q0 157 107 272.5t264 115.5h2q156 0 262 -116t106 -272v-389q-2 -158 -107 -273t-261 -115zM385 124
q105 0 177.5 79t72.5 185v389q0 107 -72.5 185.5t-177.5 78.5q-106 0 -178.5 -78.5t-72.5 -185.5v-389q0 -106 72.5 -185t178.5 -79z" />
    <glyph glyph-name="Odieresis" unicode="&#xd6;" horiz-adv-x="770" 
d="M301 1416h-17q-28 0 -48 20.5t-20 47.5v18q0 28 20 48t48 20h17q28 0 48 -20t20 -48v-18q0 -27 -20 -47.5t-48 -20.5zM502 1416h-18q-27 0 -46.5 20.5t-19.5 47.5v18q0 28 19.5 48t46.5 20h18q28 0 47.5 -19.5t19.5 -48.5v-18q0 -27 -19.5 -47.5t-47.5 -20.5zM387 0h-2
q-157 0 -264 115.5t-107 272.5v389q0 157 107 272.5t264 115.5h2q156 0 262 -116t106 -272v-389q-2 -158 -107 -273t-261 -115zM385 124q105 0 177.5 79t72.5 185v389q0 107 -72.5 185.5t-177.5 78.5q-106 0 -178.5 -78.5t-72.5 -185.5v-389q0 -106 72.5 -185t178.5 -79z
" />
    <glyph glyph-name="multiply" unicode="&#xd7;" horiz-adv-x="630" 
d="M126 156q-16 0 -32 14l-20 20q-11 16 -11 32q0 15 11 32l160 166l-160 168q-11 17 -11 31q0 15 11 31l20 23q16 13 32 13t32 -13l157 -166l156 166q13 12 32 12q17 0 30 -12l22 -23q13 -16 13 -31q0 -13 -13 -31l-158 -168l158 -165q13 -18 13 -33q0 -16 -13 -32l-23 -21
q-15 -12 -29 -12q-16 0 -31 12l-157 166l-157 -166q-16 -13 -32 -13z" />
    <glyph glyph-name="Oslash" unicode="&#xd8;" horiz-adv-x="811" 
d="M648 1105l-9 -26q137 -119 137 -302v-389q-2 -158 -107 -273t-261 -115h-2q-69 0 -132 24q-14 -24 -38 -24h-33q-21 0 -36 21q-5 9 -7 25q0 5 2 15l10 27q-137 120 -137 300v389q0 157 107 272.5t264 115.5h2q72 0 129 -23q14 23 41 23h26q19 0 33 -14.5t14 -32.5
q0 -4 -3 -13zM216 216l279 808q-43 17 -89 17q-106 0 -178.5 -78.5t-72.5 -185.5v-389q0 -95 61 -172zM656 388v389q0 95 -61 172l-280 -809q41 -16 91 -16q105 0 177.5 79t72.5 185z" />
    <glyph glyph-name="Ugrave" unicode="&#xd9;" horiz-adv-x="770" 
d="M433 1316h-11q-31 0 -39 29l-76 204q-4 7 -4 15q0 19 19 32.5t41 13.5q29 0 41 -22l87 -207q4 -10 4 -18q0 -25 -18.5 -36t-43.5 -11zM387 0h-2q-157 0 -264 115.5t-107 272.5v731q0 46 45 46h31q44 0 44 -46v-731q0 -106 72.5 -185t178.5 -79q105 0 177.5 79t72.5 185
v731q0 18 13 32t32 14h31q44 0 44 -46v-731q0 -156 -106 -272t-262 -116z" />
    <glyph glyph-name="Uacute" unicode="&#xda;" horiz-adv-x="770" 
d="M376 1316h-9q-25 0 -43.5 11t-18.5 36q0 10 4 19l86 206q12 22 41 22q22 0 41 -13.5t19 -32.5q0 -6 -4 -14l-75 -205q-8 -29 -41 -29zM387 0h-2q-157 0 -264 115.5t-107 272.5v731q0 46 45 46h31q44 0 44 -46v-731q0 -106 72.5 -185t178.5 -79q105 0 177.5 79t72.5 185
v731q0 18 13 32t32 14h31q44 0 44 -46v-731q0 -156 -106 -272t-262 -116z" />
    <glyph glyph-name="Ucircumflex" unicode="&#xdb;" horiz-adv-x="770" 
d="M328 1316h-9q-25 0 -43.5 11t-18.5 36q0 10 4 18q68 166 86 207q11 23 47 23q34 0 46 -23l58 -140l19 -42q3 -8 10 -25q3 -9 3 -18q0 -25 -18.5 -36t-42.5 -11h-10q-31 0 -42 29l-23 66l-24 -66q-9 -29 -42 -29zM387 0h-2q-157 0 -264 115.5t-107 272.5v731q0 46 45 46
h31q44 0 44 -46v-731q0 -106 72.5 -185t178.5 -79q105 0 177.5 79t72.5 185v731q0 18 13 32t32 14h31q44 0 44 -46v-731q0 -156 -106 -272t-262 -116z" />
    <glyph glyph-name="Udieresis" unicode="&#xdc;" horiz-adv-x="770" 
d="M301 1416h-17q-28 0 -48 20.5t-20 47.5v18q0 28 20 48t48 20h17q28 0 48 -20t20 -48v-18q0 -27 -20 -47.5t-48 -20.5zM502 1416h-18q-27 0 -46.5 20.5t-19.5 47.5v18q0 28 19.5 48t46.5 20h18q28 0 47.5 -19.5t19.5 -48.5v-18q0 -27 -19.5 -47.5t-47.5 -20.5zM387 0h-2
q-157 0 -264 115.5t-107 272.5v731q0 46 45 46h31q44 0 44 -46v-731q0 -106 72.5 -185t178.5 -79q105 0 177.5 79t72.5 185v731q0 18 13 32t32 14h31q44 0 44 -46v-731q0 -156 -106 -272t-262 -116z" />
    <glyph glyph-name="Yacute" unicode="&#xdd;" horiz-adv-x="745" 
d="M363 1316h-9q-25 0 -43.5 11t-18.5 36q0 10 4 19l86 206q10 22 41 22q22 0 41 -13.5t19 -32.5q0 -6 -4 -14l-75 -205q-8 -29 -41 -29zM387 0h-31q-45 0 -45 46v294l-293 778q-4 5 -4 13q0 34 33 34h54q24 0 40 -28l231 -613l231 613q16 28 43 28h52q32 0 32 -34v-5
l-298 -780v-301q-8 -45 -45 -45z" />
    <glyph glyph-name="germandbls" unicode="&#xdf;" horiz-adv-x="784" 
d="M110 -221h-31q-44 0 -44 45v1055q0 41 33 96.5t70 88.5q99 90 237 90t239.5 -88t101.5 -224q0 -153 -128 -246q68 -43 106.5 -113t38.5 -151q0 -145 -112.5 -237t-264.5 -92v119q102 0 178.5 57.5t76.5 152.5q0 84 -64 141t-152 67h-24q-14 0 -24 10.5t-10 24.5l1 35
q0 14 10 24t23 10h23q83 10 143.5 64t60.5 134q0 86 -67 141.5t-156 55.5q-82 0 -147 -52t-73 -132v-1031q0 -45 -45 -45z" />
    <glyph glyph-name="agrave" unicode="&#xe0;" 
d="M304 903h-10q-31 0 -39 28l-74 201q-4 7 -4 15q0 19 19 32t40 13q28 0 40 -22l85 -203q4 -10 4 -18q0 -24 -18 -35t-43 -11zM439 748h26q47 0 47 -46v-657q0 -45 -47 -45h-26q-40 0 -44 37q-58 -40 -132 -40q-105 0 -177.5 78t-72.5 183v236q0 105 73 183.5t178 78.5
q71 0 132 -41q6 33 43 33zM391 258v236q0 55 -37 97q-42 40 -91 40q-54 0 -91.5 -41t-37.5 -96v-236q0 -55 37.5 -96t91.5 -41q49 0 91 40q37 40 37 97z" />
    <glyph glyph-name="aacute" unicode="&#xe1;" 
d="M249 903h-9q-25 0 -43 11t-18 35q0 10 4 19l85 202q10 22 40 22q21 0 40 -13t19 -32q0 -6 -4 -14l-74 -202q-8 -28 -40 -28zM439 748h26q47 0 47 -46v-657q0 -45 -47 -45h-26q-40 0 -44 37q-58 -40 -132 -40q-105 0 -177.5 78t-72.5 183v236q0 105 73 183.5t178 78.5
q71 0 132 -41q6 33 43 33zM391 258v236q0 55 -37 97q-42 40 -91 40q-54 0 -91.5 -41t-37.5 -96v-236q0 -55 37.5 -96t91.5 -41q49 0 91 40q37 40 37 97z" />
    <glyph glyph-name="acircumflex" unicode="&#xe2;" 
d="M202 903h-9q-25 0 -43 11t-18 35q0 10 4 18q52 131 84 203q11 23 46 23q34 0 46 -23l57 -137l18 -42q2 -5 10 -24q3 -9 3 -18q0 -24 -18 -35t-42 -11h-10q-30 0 -41 28l-23 65l-23 -65q-9 -28 -41 -28zM439 748h26q47 0 47 -46v-657q0 -45 -47 -45h-26q-40 0 -44 37
q-58 -40 -132 -40q-105 0 -177.5 78t-72.5 183v236q0 105 73 183.5t178 78.5q71 0 132 -41q6 33 43 33zM391 258v236q0 55 -37 97q-42 40 -91 40q-54 0 -91.5 -41t-37.5 -96v-236q0 -55 37.5 -96t91.5 -41q49 0 91 40q37 40 37 97z" />
    <glyph glyph-name="atilde" unicode="&#xe3;" 
d="M341 937q-67 0 -106 82l-7 13q-7 17 -18 30q-10 6 -17 6q-13 0 -19.5 -14t-6.5 -28q0 -6 5 -21l5 -9l1 -5q2 -8 2 -11q0 -16 -9 -22.5t-25 -9.5l-8 -1h-13q-17 0 -27.5 17t-13 33.5t-2.5 33.5q0 52 30.5 95t80.5 43q35 0 57.5 -19.5t42.5 -54.5l13 -23q19 -35 35 -35
q13 0 19 14.5t6 29.5q0 11 -5 19l-4 11q-1 5 -1 13q0 26 24 32h3q9 3 14 3h13q23 0 32.5 -28.5t9.5 -55.5q0 -52 -30.5 -95t-80.5 -43zM439 748h26q47 0 47 -46v-657q0 -45 -47 -45h-26q-40 0 -44 37q-58 -40 -132 -40q-105 0 -177.5 78t-72.5 183v236q0 105 73 183.5
t178 78.5q71 0 132 -41q6 33 43 33zM391 258v236q0 55 -37 97q-42 40 -91 40q-54 0 -91.5 -41t-37.5 -96v-236q0 -55 37.5 -96t91.5 -41q49 0 91 40q37 40 37 97z" />
    <glyph glyph-name="adieresis" unicode="&#xe4;" 
d="M174 1001h-16q-27 0 -47 20t-20 47v18q0 28 19.5 47.5t47.5 19.5h16q28 0 47.5 -19.5t19.5 -47.5v-18q0 -27 -20 -47t-47 -20zM372 1001h-18q-26 0 -45.5 20.5t-19.5 46.5v18q0 28 19.5 47.5t45.5 19.5h18q28 0 47 -19.5t19 -47.5v-18q0 -27 -19.5 -47t-46.5 -20z
M439 748h26q47 0 47 -46v-657q0 -45 -47 -45h-26q-40 0 -44 37q-58 -40 -132 -40q-105 0 -177.5 78t-72.5 183v236q0 105 73 183.5t178 78.5q71 0 132 -41q6 33 43 33zM391 258v236q0 55 -37 97q-42 40 -91 40q-54 0 -91.5 -41t-37.5 -96v-236q0 -55 37.5 -96t91.5 -41
q49 0 91 40q37 40 37 97z" />
    <glyph glyph-name="aring" unicode="&#xe5;" 
d="M268 923q-53 0 -88.5 38t-35.5 91t36 92t88 39q53 0 89 -39t36 -92t-35.5 -91t-89.5 -38zM268 1017q13 0 23.5 10.5t10.5 24.5q0 15 -10 25q-12 10 -24 10q-14 0 -21 -10q-10 -10 -10 -25q0 -14 10 -24q8 -11 21 -11zM439 748h26q47 0 47 -46v-657q0 -45 -47 -45h-26
q-40 0 -44 37q-58 -40 -132 -40q-105 0 -177.5 78t-72.5 183v236q0 105 73 183.5t178 78.5q71 0 132 -41q6 33 43 33zM391 258v236q0 55 -37 97q-42 40 -91 40q-54 0 -91.5 -41t-37.5 -96v-236q0 -55 37.5 -96t91.5 -41q49 0 91 40q37 40 37 97z" />
    <glyph glyph-name="ae" unicode="&#xe6;" horiz-adv-x="943" 
d="M875 346l-341 -1v-117q10 -45 45 -76t81 -31q49 0 91 40q37 42 37 97v16q0 30 21 43l4 3q16 7 26 7h18q51 0 51 -53v-16q0 -105 -72 -183t-176 -78q-72 0 -127 36q-6 -33 -46 -33h-26q-40 0 -44 37q-58 -40 -132 -40q-105 0 -177.5 78t-72.5 183v236q0 105 73 183.5
t178 78.5q71 0 132 -41q6 33 43 33h26q37 0 45 -29q57 37 129 37q104 0 175.5 -78t71.5 -184v-115q0 -13 -10 -23t-23 -10zM411 234l-1 10v264q1 4 1 10q-6 38 -35 74q-42 39 -91 39q-54 0 -91.5 -41t-37.5 -96v-236q0 -55 37.5 -96t91.5 -41q49 0 91 39q30 38 35 74z
M660 631q-46 0 -81 -31t-45 -77v-59l254 1v29q0 53 -37 98q-42 39 -91 39z" />
    <glyph glyph-name="ccedilla" unicode="&#xe7;" 
d="M417 433l-4 2q-22 14 -22 43v16q0 55 -37 97q-42 40 -91 40q-54 0 -91.5 -41t-37.5 -96v-236q0 -55 37.5 -96t91.5 -41q49 0 91 40q37 40 37 97v16q0 30 22 44l4 2q14 7 25 7h18q52 0 52 -53v-16q0 -85 -49.5 -155t-128.5 -95q43 -42 43 -104q0 -53 -35.5 -97t-93.5 -44
q-54 0 -92 41t-38 91q0 25 16 38t38 13h4q35 0 49 -41l7 -22q2 -6 4 -8q5 -5 12 -5q9 0 15.5 10.5t6.5 23.5q0 24 -18 34l-34 33q-11 17 -18 34q-82 22 -134.5 93.5t-52.5 159.5v236q0 105 73 183.5t178 78.5q104 0 176 -78.5t72 -183.5v-16q0 -53 -52 -53h-18q-15 0 -25 8z
" />
    <glyph glyph-name="egrave" unicode="&#xe8;" 
d="M304 903h-10q-31 0 -39 28l-74 201q-4 7 -4 15q0 19 19 32t40 13q28 0 40 -22l85 -203q4 -10 4 -18q0 -24 -18 -35t-43 -11zM478 346l-344 -1v-87q0 -55 37.5 -96t91.5 -41q49 0 91 40q37 40 37 97v16q0 30 22 44l4 2q14 7 25 7h18q52 0 52 -53v-16q0 -105 -72 -183
t-177 -78t-177.5 78t-72.5 183v236q0 105 73 183.5t178 78.5q104 0 176 -78.5t72 -183.5v-115q0 -13 -10 -23t-24 -10zM263 631q-54 0 -91.5 -41t-37.5 -96v-30l257 1v29q0 55 -37 97q-42 40 -91 40z" />
    <glyph glyph-name="eacute" unicode="&#xe9;" 
d="M249 903h-9q-25 0 -43 11t-18 35q0 10 4 19l85 202q10 22 40 22q21 0 40 -13t19 -32q0 -6 -4 -14l-74 -202q-8 -28 -40 -28zM478 346l-344 -1v-87q0 -55 37.5 -96t91.5 -41q49 0 91 40q37 40 37 97v16q0 30 22 44l4 2q14 7 25 7h18q52 0 52 -53v-16q0 -105 -72 -183
t-177 -78t-177.5 78t-72.5 183v236q0 105 73 183.5t178 78.5q104 0 176 -78.5t72 -183.5v-115q0 -13 -10 -23t-24 -10zM263 631q-54 0 -91.5 -41t-37.5 -96v-30l257 1v29q0 55 -37 97q-42 40 -91 40z" />
    <glyph glyph-name="ecircumflex" unicode="&#xea;" 
d="M202 903h-9q-25 0 -43 11t-18 35q0 10 4 18q52 131 84 203q11 23 46 23q34 0 46 -23l57 -137l18 -42q2 -5 10 -24q3 -9 3 -18q0 -24 -18 -35t-42 -11h-10q-30 0 -41 28l-23 65l-23 -65q-9 -28 -41 -28zM478 346l-344 -1v-87q0 -55 37.5 -96t91.5 -41q49 0 91 40
q37 40 37 97v16q0 30 22 44l4 2q14 7 25 7h18q52 0 52 -53v-16q0 -105 -72 -183t-177 -78t-177.5 78t-72.5 183v236q0 105 73 183.5t178 78.5q104 0 176 -78.5t72 -183.5v-115q0 -13 -10 -23t-24 -10zM263 631q-54 0 -91.5 -41t-37.5 -96v-30l257 1v29q0 55 -37 97
q-42 40 -91 40z" />
    <glyph glyph-name="edieresis" unicode="&#xeb;" 
d="M174 1001h-16q-27 0 -47 20t-20 47v18q0 28 19.5 47.5t47.5 19.5h16q28 0 47.5 -19.5t19.5 -47.5v-18q0 -27 -20 -47t-47 -20zM372 1001h-18q-26 0 -45.5 20.5t-19.5 46.5v18q0 28 19.5 47.5t45.5 19.5h18q28 0 47 -19.5t19 -47.5v-18q0 -27 -19.5 -47t-46.5 -20z
M478 346l-344 -1v-87q0 -55 37.5 -96t91.5 -41q49 0 91 40q37 40 37 97v16q0 30 22 44l4 2q14 7 25 7h18q52 0 52 -53v-16q0 -105 -72 -183t-177 -78t-177.5 78t-72.5 183v236q0 105 73 183.5t178 78.5q104 0 176 -78.5t72 -183.5v-115q0 -13 -10 -23t-24 -10zM263 631
q-54 0 -91.5 -41t-37.5 -96v-30l257 1v29q0 55 -37 97q-42 40 -91 40z" />
    <glyph glyph-name="igrave" unicode="&#xec;" horiz-adv-x="165" 
d="M113 903h-10q-31 0 -39 28l-74 201q-4 7 -4 15q0 19 19 32t40 13q28 0 40 -22l85 -203q4 -10 4 -18q0 -24 -18 -35t-43 -11zM98 0h-27q-45 0 -45 45v648q0 13 12 30q16 14 33 14h27q18 0 32 -14q12 -15 12 -30v-648q0 -45 -44 -45z" />
    <glyph glyph-name="iacute" unicode="&#xed;" horiz-adv-x="165" 
d="M58 903h-9q-25 0 -43 11t-18 35q0 10 4 19l85 202q10 22 40 22q21 0 40 -13t19 -32q0 -6 -4 -14l-74 -202q-8 -28 -40 -28zM98 0h-27q-45 0 -45 45v648q0 13 12 30q16 14 33 14h27q18 0 32 -14q12 -15 12 -30v-648q0 -45 -44 -45z" />
    <glyph glyph-name="icircumflex" unicode="&#xee;" horiz-adv-x="161" 
d="M8 903h-9q-25 0 -43 11t-18 35q0 10 4 18q52 131 84 203q11 23 46 23q34 0 46 -23l57 -137l18 -42q2 -5 10 -24q3 -9 3 -18q0 -24 -18 -35t-42 -11h-10q-30 0 -41 28l-23 65l-23 -65q-9 -28 -41 -28zM98 0h-27q-45 0 -45 45v648q0 13 12 30q16 14 33 14h27q18 0 32 -14
q12 -15 12 -30v-648q0 -45 -44 -45z" />
    <glyph glyph-name="idieresis" unicode="&#xef;" horiz-adv-x="157" 
d="M-21 1001h-16q-27 0 -47 20t-20 47v18q0 28 19.5 47.5t47.5 19.5h16q28 0 47.5 -19.5t19.5 -47.5v-18q0 -27 -20 -47t-47 -20zM177 1001h-18q-26 0 -45.5 20.5t-19.5 46.5v18q0 28 19.5 47.5t45.5 19.5h18q28 0 47 -19.5t19 -47.5v-18q0 -27 -19.5 -47t-46.5 -20zM98 0
h-27q-45 0 -45 45v648q0 13 12 30q16 14 33 14h27q18 0 32 -14q12 -15 12 -30v-648q0 -45 -44 -45z" />
    <glyph glyph-name="ntilde" unicode="&#xf1;" 
d="M341 937q-67 0 -106 82l-7 13q-7 17 -18 30q-10 6 -17 6q-13 0 -19.5 -14t-6.5 -28q0 -6 5 -21l5 -9l1 -5q2 -8 2 -11q0 -16 -9 -22.5t-25 -9.5l-8 -1h-13q-17 0 -27.5 17t-13 33.5t-2.5 33.5q0 52 30.5 95t80.5 43q35 0 57.5 -19.5t42.5 -54.5l13 -23q19 -35 35 -35
q13 0 19 14.5t6 29.5q0 11 -5 19l-4 11q-1 5 -1 13q0 26 24 32h3q9 3 14 3h13q23 0 32.5 -28.5t9.5 -55.5q0 -52 -30.5 -95t-80.5 -43zM86 0h-27q-46 0 -46 45v675q0 14 10 24.5t24 10.5h49q13 0 23.5 -10.5t10.5 -24.5v-4q59 40 133 40q104 -2 176.5 -79.5t72.5 -182.5
l-4 -449q0 -45 -45 -45h-26q-46 0 -46 45v449q0 55 -37 96t-91 41q-50 0 -92 -40q-37 -42 -37 -97l-4 -449q0 -45 -44 -45z" />
    <glyph glyph-name="ograve" unicode="&#xf2;" 
d="M304 903h-10q-31 0 -39 28l-74 201q-4 7 -4 15q0 19 19 32t40 13q28 0 40 -22l85 -203q4 -10 4 -18q0 -24 -18 -35t-43 -11zM263 -3q-105 0 -177.5 78t-72.5 183v236q0 105 73 183.5t178 78.5q104 0 176 -78.5t72 -183.5v-236q0 -105 -72 -183t-177 -78zM263 121
q49 0 91 40q37 40 37 97v236q0 55 -37 97q-42 40 -91 40q-54 0 -91.5 -41t-37.5 -96v-236q0 -55 37.5 -96t91.5 -41z" />
    <glyph glyph-name="oacute" unicode="&#xf3;" 
d="M249 903h-9q-25 0 -43 11t-18 35q0 10 4 19l85 202q10 22 40 22q21 0 40 -13t19 -32q0 -6 -4 -14l-74 -202q-8 -28 -40 -28zM263 -3q-105 0 -177.5 78t-72.5 183v236q0 105 73 183.5t178 78.5q104 0 176 -78.5t72 -183.5v-236q0 -105 -72 -183t-177 -78zM263 121
q49 0 91 40q37 40 37 97v236q0 55 -37 97q-42 40 -91 40q-54 0 -91.5 -41t-37.5 -96v-236q0 -55 37.5 -96t91.5 -41z" />
    <glyph glyph-name="ocircumflex" unicode="&#xf4;" 
d="M202 903h-9q-25 0 -43 11t-18 35q0 10 4 18q52 131 84 203q11 23 46 23q34 0 46 -23l57 -137l18 -42q2 -5 10 -24q3 -9 3 -18q0 -24 -18 -35t-42 -11h-10q-30 0 -41 28l-23 65l-23 -65q-9 -28 -41 -28zM263 -3q-105 0 -177.5 78t-72.5 183v236q0 105 73 183.5t178 78.5
q104 0 176 -78.5t72 -183.5v-236q0 -105 -72 -183t-177 -78zM263 121q49 0 91 40q37 40 37 97v236q0 55 -37 97q-42 40 -91 40q-54 0 -91.5 -41t-37.5 -96v-236q0 -55 37.5 -96t91.5 -41z" />
    <glyph glyph-name="otilde" unicode="&#xf5;" 
d="M341 937q-67 0 -106 82l-7 13q-7 17 -18 30q-10 6 -17 6q-13 0 -19.5 -14t-6.5 -28q0 -6 5 -21l5 -9l1 -5q2 -8 2 -11q0 -16 -9 -22.5t-25 -9.5l-8 -1h-13q-17 0 -27.5 17t-13 33.5t-2.5 33.5q0 52 30.5 95t80.5 43q35 0 57.5 -19.5t42.5 -54.5l13 -23q19 -35 35 -35
q13 0 19 14.5t6 29.5q0 11 -5 19l-4 11q-1 5 -1 13q0 26 24 32h3q9 3 14 3h13q23 0 32.5 -28.5t9.5 -55.5q0 -52 -30.5 -95t-80.5 -43zM263 -3q-105 0 -177.5 78t-72.5 183v236q0 105 73 183.5t178 78.5q104 0 176 -78.5t72 -183.5v-236q0 -105 -72 -183t-177 -78zM263 121
q49 0 91 40q37 40 37 97v236q0 55 -37 97q-42 40 -91 40q-54 0 -91.5 -41t-37.5 -96v-236q0 -55 37.5 -96t91.5 -41z" />
    <glyph glyph-name="odieresis" unicode="&#xf6;" 
d="M174 1001h-16q-27 0 -47 20t-20 47v18q0 28 19.5 47.5t47.5 19.5h16q28 0 47.5 -19.5t19.5 -47.5v-18q0 -27 -20 -47t-47 -20zM372 1001h-18q-26 0 -45.5 20.5t-19.5 46.5v18q0 28 19.5 47.5t45.5 19.5h18q28 0 47 -19.5t19 -47.5v-18q0 -27 -19.5 -47t-46.5 -20zM263 -3
q-105 0 -177.5 78t-72.5 183v236q0 105 73 183.5t178 78.5q104 0 176 -78.5t72 -183.5v-236q0 -105 -72 -183t-177 -78zM263 121q49 0 91 40q37 40 37 97v236q0 55 -37 97q-42 40 -91 40q-54 0 -91.5 -41t-37.5 -96v-236q0 -55 37.5 -96t91.5 -41z" />
    <glyph glyph-name="divide" unicode="&#xf7;" horiz-adv-x="775" 
d="M397 642h-21q-27 0 -45 19t-18 46v24q0 26 18.5 44.5t44.5 18.5h21q28 0 45.5 -18t17.5 -45v-24q0 -25 -16 -46q-21 -19 -47 -19zM667 453h-561q-43 0 -43 46v27q0 46 43 46h561q43 0 43 -46v-27q0 -46 -43 -46zM397 231h-21q-26 0 -44.5 19t-18.5 45v24q0 27 18.5 47
t44.5 20h21q28 0 45.5 -19.5t17.5 -47.5v-24q0 -27 -18 -46q-20 -18 -45 -18z" />
    <glyph glyph-name="oslash" unicode="&#xf8;" horiz-adv-x="569" 
d="M502 721l-29 -57q61 -71 61 -170v-236q0 -105 -72 -183t-177 -78q-69 0 -126 34l-2 -4q-13 -27 -40 -27h-31q-22 0 -36 20l-2 4q-7 7 -7 18q0 10 6 20l27 55q-39 61 -39 141v236q0 105 73 183.5t178 78.5q48 0 94 -20l9 18q12 28 43 28h26q18 0 31.5 -15t13.5 -33
q0 -7 -1 -13zM156 494v-209l169 339q-18 7 -40 7q-54 0 -91.5 -41t-37.5 -96zM413 258v236q0 19 -5 39l-193 -390q31 -22 70 -22q49 0 91 40q37 40 37 97z" />
    <glyph glyph-name="ugrave" unicode="&#xf9;" 
d="M304 903h-10q-31 0 -39 28l-74 201q-4 7 -4 15q0 19 19 32t40 13q28 0 40 -22l85 -203q4 -10 4 -18q0 -24 -18 -35t-43 -11zM263 0q-104 0 -177 77.5t-73 182.5l4 449q0 47 44 47h27q46 0 46 -47v-449q0 -54 37.5 -95t91.5 -41q49 0 91 39q37 42 37 97l4 449q0 47 44 47
h26q47 0 47 -47v-674q0 -14 -10 -24t-24 -10h-50q-14 0 -23.5 10t-9.5 24v5q-59 -40 -132 -40z" />
    <glyph glyph-name="uacute" unicode="&#xfa;" 
d="M249 903h-9q-25 0 -43 11t-18 35q0 10 4 19l85 202q10 22 40 22q21 0 40 -13t19 -32q0 -6 -4 -14l-74 -202q-8 -28 -40 -28zM263 0q-104 0 -177 77.5t-73 182.5l4 449q0 47 44 47h27q46 0 46 -47v-449q0 -54 37.5 -95t91.5 -41q49 0 91 39q37 42 37 97l4 449q0 47 44 47
h26q47 0 47 -47v-674q0 -14 -10 -24t-24 -10h-50q-14 0 -23.5 10t-9.5 24v5q-59 -40 -132 -40z" />
    <glyph glyph-name="ucircumflex" unicode="&#xfb;" 
d="M202 903h-9q-25 0 -43 11t-18 35q0 10 4 18q52 131 84 203q11 23 46 23q34 0 46 -23l57 -137l18 -42q2 -5 10 -24q3 -9 3 -18q0 -24 -18 -35t-42 -11h-10q-30 0 -41 28l-23 65l-23 -65q-9 -28 -41 -28zM263 0q-104 0 -177 77.5t-73 182.5l4 449q0 47 44 47h27
q46 0 46 -47v-449q0 -54 37.5 -95t91.5 -41q49 0 91 39q37 42 37 97l4 449q0 47 44 47h26q47 0 47 -47v-674q0 -14 -10 -24t-24 -10h-50q-14 0 -23.5 10t-9.5 24v5q-59 -40 -132 -40z" />
    <glyph glyph-name="udieresis" unicode="&#xfc;" 
d="M174 1001h-16q-27 0 -47 20t-20 47v18q0 28 19.5 47.5t47.5 19.5h16q28 0 47.5 -19.5t19.5 -47.5v-18q0 -27 -20 -47t-47 -20zM372 1001h-18q-26 0 -45.5 20.5t-19.5 46.5v18q0 28 19.5 47.5t45.5 19.5h18q28 0 47 -19.5t19 -47.5v-18q0 -27 -19.5 -47t-46.5 -20zM263 0
q-104 0 -177 77.5t-73 182.5l4 449q0 47 44 47h27q46 0 46 -47v-449q0 -54 37.5 -95t91.5 -41q49 0 91 39q37 42 37 97l4 449q0 47 44 47h26q47 0 47 -47v-674q0 -14 -10 -24t-24 -10h-50q-14 0 -23.5 10t-9.5 24v5q-59 -40 -132 -40z" />
    <glyph glyph-name="yacute" unicode="&#xfd;" horiz-adv-x="576" 
d="M274 903h-9q-25 0 -43 11t-18 35q0 10 4 19l85 202q10 22 40 22q21 0 40 -13t19 -32q0 -6 -4 -14l-74 -202q-8 -28 -40 -28zM486 737h29q19 0 31.5 -12t12.5 -31q0 -4 -2 -14l-302 -925q-46 -123 -175 -147l-5 -2q-17 0 -31 12q-14 16 -14 35v28q0 39 36 46q58 13 79 68
l78 247v8l-209 627q-1 6 -1 14q0 18 12 32t30 14h30q35 0 42 -31l159 -477l159 477q6 31 41 31zM278 206l1 2q-1 -1 -1 -2z" />
    <glyph glyph-name="ydieresis" unicode="&#xff;" horiz-adv-x="576" 
d="M199 1001h-16q-27 0 -47 20t-20 47v18q0 28 19.5 47.5t47.5 19.5h16q28 0 47.5 -19.5t19.5 -47.5v-18q0 -27 -20 -47t-47 -20zM397 1001h-18q-26 0 -45.5 20.5t-19.5 46.5v18q0 28 19.5 47.5t45.5 19.5h18q28 0 47 -19.5t19 -47.5v-18q0 -27 -19.5 -47t-46.5 -20z
M486 737h29q19 0 31.5 -12t12.5 -31q0 -4 -2 -14l-302 -925q-46 -123 -175 -147l-5 -2q-17 0 -31 12q-14 16 -14 35v28q0 39 36 46q58 13 79 68l78 247v8l-209 627q-1 6 -1 14q0 18 12 32t30 14h30q35 0 42 -31l159 -477l159 477q6 31 41 31zM278 206l1 2q-1 -1 -1 -2z" />
    <glyph glyph-name="Cacute" unicode="&#x106;" horiz-adv-x="770" 
d="M376 1316h-9q-25 0 -43.5 11t-18.5 36q0 10 4 19l86 206q12 22 41 22q22 0 41 -13.5t19 -32.5q0 -6 -4 -14l-75 -205q-8 -29 -41 -29zM387 0h-2q-157 0 -264 115.5t-107 272.5v389q0 157 107 272.5t264 115.5h2q156 0 262 -116t106 -272v-29q0 -44 -44 -44h-31
q-14 0 -31 11q-14 14 -14 33v29q0 107 -72.5 185.5t-177.5 78.5q-106 0 -178.5 -78.5t-72.5 -185.5v-389q0 -106 72.5 -185t178.5 -79q105 0 177.5 79t72.5 185v28q0 18 13 31.5t32 13.5h31q44 0 44 -45v-28q-2 -158 -107 -273t-261 -115z" />
    <glyph glyph-name="cacute" unicode="&#x107;" 
d="M249 903h-9q-25 0 -43 11t-18 35q0 10 4 19l85 202q10 22 40 22q21 0 40 -13t19 -32q0 -6 -4 -14l-74 -202q-8 -28 -40 -28zM263 -3q-105 0 -177.5 78t-72.5 183v236q0 105 73 183.5t178 78.5q104 0 176 -78.5t72 -183.5v-16q0 -53 -52 -53h-18q-15 0 -25 8l-4 2
q-22 14 -22 43v16q0 55 -37 97q-42 40 -91 40q-54 0 -91.5 -41t-37.5 -96v-236q0 -55 37.5 -96t91.5 -41q49 0 91 40q37 40 37 97v16q0 30 22 44l4 2q14 7 25 7h18q52 0 52 -53v-16q0 -105 -72 -183t-177 -78z" />
    <glyph glyph-name="Ccircumflex" unicode="&#x108;" horiz-adv-x="770" 
d="M328 1316h-9q-25 0 -43.5 11t-18.5 36q0 10 4 18q68 166 86 207q11 23 47 23q34 0 46 -23l58 -140l19 -42q3 -8 10 -25q3 -9 3 -18q0 -25 -18.5 -36t-42.5 -11h-10q-31 0 -42 29l-23 66l-24 -66q-9 -29 -42 -29zM387 0h-2q-157 0 -264 115.5t-107 272.5v389
q0 157 107 272.5t264 115.5h2q156 0 262 -116t106 -272v-29q0 -44 -44 -44h-31q-14 0 -31 11q-14 14 -14 33v29q0 107 -72.5 185.5t-177.5 78.5q-106 0 -178.5 -78.5t-72.5 -185.5v-389q0 -106 72.5 -185t178.5 -79q105 0 177.5 79t72.5 185v28q0 18 13 31.5t32 13.5h31
q44 0 44 -45v-28q-2 -158 -107 -273t-261 -115z" />
    <glyph glyph-name="ccircumflex" unicode="&#x109;" 
d="M202 903h-9q-25 0 -43 11t-18 35q0 10 4 18q52 131 84 203q11 23 46 23q34 0 46 -23l57 -137l18 -42q2 -5 10 -24q3 -9 3 -18q0 -24 -18 -35t-42 -11h-10q-30 0 -41 28l-23 65l-23 -65q-9 -28 -41 -28zM263 -3q-105 0 -177.5 78t-72.5 183v236q0 105 73 183.5t178 78.5
q104 0 176 -78.5t72 -183.5v-16q0 -53 -52 -53h-18q-15 0 -25 8l-4 2q-22 14 -22 43v16q0 55 -37 97q-42 40 -91 40q-54 0 -91.5 -41t-37.5 -96v-236q0 -55 37.5 -96t91.5 -41q49 0 91 40q37 40 37 97v16q0 30 22 44l4 2q14 7 25 7h18q52 0 52 -53v-16q0 -105 -72 -183
t-177 -78z" />
    <glyph glyph-name="Ccaron" unicode="&#x10c;" horiz-adv-x="770" 
d="M394 1321q-36 0 -47 24q-26 58 -86 205q-4 8 -4 19q0 24 19 35t43 11h9q33 0 41 -28l25 -66l23 66q11 28 42 28h10q24 0 42.5 -11t18.5 -35q0 -10 -3 -19l-87 -205q-12 -24 -46 -24zM387 0h-2q-157 0 -264 115.5t-107 272.5v389q0 157 107 272.5t264 115.5h2
q156 0 262 -116t106 -272v-29q0 -44 -44 -44h-31q-14 0 -31 11q-14 14 -14 33v29q0 107 -72.5 185.5t-177.5 78.5q-106 0 -178.5 -78.5t-72.5 -185.5v-389q0 -106 72.5 -185t178.5 -79q105 0 177.5 79t72.5 185v28q0 18 13 31.5t32 13.5h31q44 0 44 -45v-28
q-2 -158 -107 -273t-261 -115z" />
    <glyph glyph-name="ccaron" unicode="&#x10d;" 
d="M266 908q-35 0 -46 23q-36 81 -84 202q-4 8 -4 19q0 23 18.5 34t42.5 11h9q32 0 40 -28l24 -65l23 65q11 28 41 28h10q24 0 42 -11t18 -34q0 -10 -3 -19l-85 -202q-12 -23 -46 -23zM263 -3q-105 0 -177.5 78t-72.5 183v236q0 105 73 183.5t178 78.5q104 0 176 -78.5
t72 -183.5v-16q0 -53 -52 -53h-18q-15 0 -25 8l-4 2q-22 14 -22 43v16q0 55 -37 97q-42 40 -91 40q-54 0 -91.5 -41t-37.5 -96v-236q0 -55 37.5 -96t91.5 -41q49 0 91 40q37 40 37 97v16q0 30 22 44l4 2q14 7 25 7h18q52 0 52 -53v-16q0 -105 -72 -183t-177 -78z" />
    <glyph glyph-name="Ecaron" unicode="&#x11a;" horiz-adv-x="687" 
d="M349 1321q-35 0 -47 24q-46 105 -85 205q-4 8 -4 19q0 24 18.5 35t43.5 11h9q33 0 41 -28l24 -66l24 66q11 28 41 28h11q24 0 42.5 -11t18.5 -35q0 -10 -3 -19l-87 -205q-12 -24 -47 -24zM626 0h-567q-18 0 -31.5 14.5t-13.5 31.5v1073q0 20 14 34q17 12 31 12h567
q45 0 45 -46v-33q0 -45 -45 -45h-486l-2 -1l-2 -5v-365q0 -4 4 -4h426q45 0 45 -47v-34q0 -45 -43 -45h-428q-4 0 -4 -6v-402q0 -7 4 -7h486q45 0 45 -46v-33q0 -18 -13 -32t-32 -14z" />
    <glyph glyph-name="ecaron" unicode="&#x11b;" 
d="M266 908q-35 0 -46 23q-36 81 -84 202q-4 8 -4 19q0 23 18.5 34t42.5 11h9q32 0 40 -28l24 -65l23 65q11 28 41 28h10q24 0 42 -11t18 -34q0 -10 -3 -19l-85 -202q-12 -23 -46 -23zM478 346l-344 -1v-87q0 -55 37.5 -96t91.5 -41q49 0 91 40q37 40 37 97v16q0 30 22 44
l4 2q14 7 25 7h18q52 0 52 -53v-16q0 -105 -72 -183t-177 -78t-177.5 78t-72.5 183v236q0 105 73 183.5t178 78.5q104 0 176 -78.5t72 -183.5v-115q0 -13 -10 -23t-24 -10zM263 631q-54 0 -91.5 -41t-37.5 -96v-30l257 1v29q0 55 -37 97q-42 40 -91 40z" />
    <glyph glyph-name="Gcircumflex" unicode="&#x11c;" horiz-adv-x="770" 
d="M328 1316h-9q-25 0 -43.5 11t-18.5 36q0 10 4 18q68 166 86 207q11 23 47 23q34 0 46 -23l58 -140l19 -42q3 -8 10 -25q3 -9 3 -18q0 -25 -18.5 -36t-42.5 -11h-10q-31 0 -42 29l-23 66l-24 -66q-9 -29 -42 -29zM649 715q-14 14 -14 33v29q0 107 -72.5 185.5t-177.5 78.5
q-106 0 -178.5 -78.5t-72.5 -185.5v-389q0 -106 72.5 -185t178.5 -79q90 0 160 64t86 155v197h-257q-45 0 -45 47v30q0 49 45 49h336q17 0 30.5 -15.5t13.5 -33.5v-571q0 -17 -13.5 -31.5t-30.5 -14.5h-32q-18 0 -32 14.5t-14 31.5v53q-105 -99 -245 -99h-2
q-157 0 -264 115.5t-107 272.5v389q0 157 107 272.5t264 115.5h2q156 0 262 -116t106 -272v-29q0 -44 -44 -44h-31q-14 0 -31 11z" />
    <glyph glyph-name="gcircumflex" unicode="&#x11d;" horiz-adv-x="561" 
d="M219 903h-9q-25 0 -43 11t-18 35q0 10 4 18q52 131 84 203q11 23 46 23q34 0 46 -23l57 -137l18 -42q2 -5 10 -24q3 -9 3 -18q0 -24 -18 -35t-42 -11h-10q-30 0 -41 28l-23 65l-23 -65q-9 -28 -41 -28zM293 754h208q44 0 44 -47v-28q0 -44 -44 -44h-27q38 -65 38 -141
v-115q0 -105 -72 -182.5t-177 -77.5q-45 0 -81 13q-13 -19 -13 -51l1 -13q44 19 98 19q104 0 175.5 -78t71.5 -183v-4q0 -105 -71.5 -182.5t-176.5 -77.5t-177.5 77.5t-72.5 182.5v4q0 95 54 162q-22 45 -23 94v5q0 69 34 114q-69 70 -69 178v115q0 105 73 183.5t178 78.5
q13 0 29 -2zM391 379v115q0 55 -37 97q-42 40 -91 40q-54 0 -91.5 -41t-37.5 -96v-115q0 -55 37.5 -96t91.5 -41q48 0 91 40q37 42 37 97zM267 -37q-55 0 -92 -40.5t-37 -96.5v-4q0 -55 37 -95.5t92 -40.5q49 0 91 39q37 43 37 97v4q0 54 -37 97q-42 40 -91 40z" />
    <glyph glyph-name="Itilde" unicode="&#x128;" horiz-adv-x="142" 
d="M139 1353q-69 0 -108 83l-7 13q-8 20 -19 31q-10 6 -17 6q-13 0 -19.5 -14.5t-6.5 -28.5q0 -6 5 -21l5 -9l1 -5q2 -10 2 -12q0 -16 -9 -22.5t-26 -9.5l-8 -1h-13q-18 0 -28.5 17.5t-13 34t-2.5 33.5q0 53 31 97t82 44q36 0 59 -20t43 -56l13 -23q19 -36 36 -36
q13 0 19 15t6 30q0 11 -5 19l-4 12q-1 5 -1 13q0 26 24 32h4q9 3 14 3h13q23 0 33 -28.5t10 -56.5q0 -53 -31 -96.5t-82 -43.5zM85 0h-31q-45 0 -45 46v1073q0 46 45 46h31q46 0 46 -46v-1073q0 -46 -46 -46z" />
    <glyph glyph-name="itilde" unicode="&#x129;" horiz-adv-x="156" 
d="M145 937q-67 0 -106 82l-7 13q-7 17 -18 30q-10 6 -17 6q-13 0 -19.5 -14t-6.5 -28q0 -6 5 -21l5 -9l1 -5q2 -8 2 -11q0 -16 -9 -22.5t-25 -9.5l-8 -1h-13q-17 0 -27.5 17t-13 33.5t-2.5 33.5q0 52 30.5 95t80.5 43q35 0 57.5 -19.5t42.5 -54.5l13 -23q19 -35 35 -35
q13 0 19 14.5t6 29.5q0 11 -5 19l-4 11q-1 5 -1 13q0 26 24 32h3q9 3 14 3h13q23 0 32.5 -28.5t9.5 -55.5q0 -52 -30.5 -95t-80.5 -43zM98 0h-27q-45 0 -45 45v648q0 13 12 30q16 14 33 14h27q18 0 32 -14q12 -15 12 -30v-648q0 -45 -44 -45z" />
    <glyph glyph-name="dotlessi" unicode="&#x131;" horiz-adv-x="169" 
d="M98 0h-27q-45 0 -45 45v648q0 13 12 30q16 14 33 14h27q18 0 32 -14q12 -15 12 -30v-648q0 -45 -44 -45z" />
    <glyph glyph-name="Nacute" unicode="&#x143;" horiz-adv-x="770" 
d="M376 1316h-9q-25 0 -43.5 11t-18.5 36q0 10 4 19l86 206q12 22 41 22q22 0 41 -13.5t19 -32.5q0 -6 -4 -14l-75 -205q-8 -29 -41 -29zM681 1167h30q44 0 44 -48v-1073q0 -46 -44 -46h-87q-29 0 -41 28l-449 955v-937q0 -46 -44 -46h-31q-45 0 -45 46v1073q0 46 45 46h88
q25 0 38 -26l450 -958v938q0 19 13.5 33.5t32.5 14.5z" />
    <glyph glyph-name="nacute" unicode="&#x144;" 
d="M249 903h-9q-25 0 -43 11t-18 35q0 10 4 19l85 202q10 22 40 22q21 0 40 -13t19 -32q0 -6 -4 -14l-74 -202q-8 -28 -40 -28zM86 0h-27q-46 0 -46 45v675q0 14 10 24.5t24 10.5h49q13 0 23.5 -10.5t10.5 -24.5v-4q59 40 133 40q104 -2 176.5 -79.5t72.5 -182.5l-4 -449
q0 -45 -45 -45h-26q-46 0 -46 45v449q0 55 -37 96t-91 41q-50 0 -92 -40q-37 -42 -37 -97l-4 -449q0 -45 -44 -45z" />
    <glyph glyph-name="Ncaron" unicode="&#x147;" horiz-adv-x="770" 
d="M394 1321q-36 0 -47 24q-26 58 -86 205q-4 8 -4 19q0 24 19 35t43 11h9q33 0 41 -28l25 -66l23 66q11 28 42 28h10q24 0 42.5 -11t18.5 -35q0 -10 -3 -19l-87 -205q-12 -24 -46 -24zM681 1167h30q44 0 44 -48v-1073q0 -46 -44 -46h-87q-29 0 -41 28l-449 955v-937
q0 -46 -44 -46h-31q-45 0 -45 46v1073q0 46 45 46h88q25 0 38 -26l450 -958v938q0 19 13.5 33.5t32.5 14.5z" />
    <glyph glyph-name="ncaron" unicode="&#x148;" 
d="M266 908q-35 0 -46 23q-36 81 -84 202q-4 8 -4 19q0 23 18.5 34t42.5 11h9q32 0 40 -28l24 -65l23 65q11 28 41 28h10q24 0 42 -11t18 -34q0 -10 -3 -19l-85 -202q-12 -23 -46 -23zM86 0h-27q-46 0 -46 45v675q0 14 10 24.5t24 10.5h49q13 0 23.5 -10.5t10.5 -24.5v-4
q59 40 133 40q104 -2 176.5 -79.5t72.5 -182.5l-4 -449q0 -45 -45 -45h-26q-46 0 -46 45v449q0 55 -37 96t-91 41q-50 0 -92 -40q-37 -42 -37 -97l-4 -449q0 -45 -44 -45z" />
    <glyph glyph-name="OE" unicode="&#x152;" horiz-adv-x="1373" 
d="M1270 1035h-487l-2 -2q-3 -3 -3 -4v-363q0 -6 5 -6h426q45 0 45 -47v-34q0 -44 -44 -44h-427q-5 0 -5 -7v-402q0 -6 5 -6h487q44 0 44 -47v-33q-1 -18 -13.5 -32t-30.5 -14h-568q-17 0 -31 14.5t-14 31.5v63q-108 -103 -249 -103h-2q-157 0 -264 115.5t-107 272.5v389
q0 157 107 272.5t264 115.5h2q144 0 249 -103v52q0 19 14 33q17 12 31 12h568q44 0 44 -45v-34q0 -45 -44 -45zM657 1048l-1 -1v-2l1 1v2zM656 388v389q0 107 -72.5 185.5t-177.5 78.5q-106 0 -178.5 -78.5t-72.5 -185.5v-389q0 -106 72.5 -185t178.5 -79q105 0 177.5 79
t72.5 185z" />
    <glyph glyph-name="oe" unicode="&#x153;" horiz-adv-x="951" 
d="M879 346l-345 -1v-87q0 -55 37.5 -96t91.5 -41q51 0 91 40q37 40 37 97v16q0 30 22 43l3 3q19 7 27 7h18q51 0 51 -53v-16q0 -105 -72 -183t-177 -78q-109 0 -189 92q-35 -42 -85 -67t-104 -25q-105 0 -177.5 78t-72.5 183v236q0 105 73 183.5t178 78.5q53 0 103 -25.5
t85 -67.5q80 93 190 93q105 0 176.5 -78t71.5 -184v-115q0 -13 -10 -23t-23 -10zM413 258v236q0 55 -37 97q-42 40 -91 40q-54 0 -91.5 -41t-37.5 -96v-236q0 -55 37.5 -96t91.5 -41q49 0 91 40q37 40 37 97zM663 631q-54 0 -91.5 -41t-37.5 -96v-30l257 1v29q0 55 -37 98
q-41 39 -91 39z" />
    <glyph glyph-name="Racute" unicode="&#x154;" horiz-adv-x="759" 
d="M371 1316h-10q-25 0 -43.5 11t-18.5 36q0 10 4 19l87 206q10 22 41 22q22 0 41 -13.5t19 -32.5q0 -6 -4 -14l-76 -205q-8 -29 -40 -29zM745 878q0 -89 -50.5 -165t-132.5 -107q86 -89 128 -213t42 -259v-88q0 -46 -47 -46h-30q-27 0 -35.5 10.5t-8.5 42.5l1 7v74
q0 103 -30 201t-89 169t-134 86h-219l-4 -1v-543q0 -46 -46 -46h-31q-45 0 -45 46v1073q0 46 45 46h403q119 0 201 -84t82 -203zM140 713h322q68 0 115 48.5t47 116.5q0 67 -47.5 115t-114.5 48h-317l-3 -4h-5q-1 -1 -1 -4v-311q0 -9 4 -9z" />
    <glyph glyph-name="racute" unicode="&#x155;" horiz-adv-x="374" 
d="M168 903h-9q-25 0 -43 11t-18 35q0 10 4 19l85 202q10 22 40 22q21 0 40 -13t19 -32q0 -6 -4 -14l-74 -202q-8 -28 -40 -28zM86 0h-27q-46 0 -46 45v675q0 14 10 24.5t24 10.5h49q13 0 23.5 -10.5t10.5 -24.5v-4q59 40 133 40q96 0 96 -44v-54q0 -17 -10.5 -27t-26.5 -10
q-10 0 -15 2q-22 8 -44 8q-50 0 -92 -40q-37 -42 -37 -97l-4 -449q0 -45 -44 -45z" />
    <glyph glyph-name="Rcaron" unicode="&#x158;" horiz-adv-x="759" 
d="M388 1321q-36 0 -47 24q-46 105 -85 205q-4 8 -4 19q0 24 18.5 35t43.5 11h9q31 0 41 -28l24 -66l23 66q11 28 42 28h10q25 0 43 -11t18 -35q0 -10 -3 -19l-86 -205q-12 -24 -47 -24zM745 878q0 -89 -50.5 -165t-132.5 -107q86 -89 128 -213t42 -259v-88q0 -46 -47 -46
h-30q-27 0 -35.5 10.5t-8.5 42.5l1 7v74q0 103 -30 201t-89 169t-134 86h-219l-4 -1v-543q0 -46 -46 -46h-31q-45 0 -45 46v1073q0 46 45 46h403q119 0 201 -84t82 -203zM140 713h322q68 0 115 48.5t47 116.5q0 67 -47.5 115t-114.5 48h-317l-3 -4h-5q-1 -1 -1 -4v-311
q0 -9 4 -9z" />
    <glyph glyph-name="rcaron" unicode="&#x159;" horiz-adv-x="374" 
d="M185 908q-35 0 -46 23q-36 81 -84 202q-4 8 -4 19q0 23 18.5 34t42.5 11h9q32 0 40 -28l24 -65l23 65q11 28 41 28h10q24 0 42 -11t18 -34q0 -10 -3 -19l-85 -202q-12 -23 -46 -23zM86 0h-27q-46 0 -46 45v675q0 14 10 24.5t24 10.5h49q13 0 23.5 -10.5t10.5 -24.5v-4
q59 40 133 40q96 0 96 -44v-54q0 -17 -10.5 -27t-26.5 -10q-10 0 -15 2q-22 8 -44 8q-50 0 -92 -40q-37 -42 -37 -97l-4 -449q0 -45 -44 -45z" />
    <glyph glyph-name="Sacute" unicode="&#x15a;" horiz-adv-x="760" 
d="M371 1316h-9q-25 0 -43.5 11t-18.5 36q0 10 4 19l86 206q12 22 41 22q22 0 41 -13.5t19 -32.5q0 -6 -4 -14l-75 -205q-8 -29 -41 -29zM318 670v-1l166 -52q262 -80 262 -308q0 -141 -98.5 -230t-254.5 -89q-153 0 -250.5 84.5t-102.5 221.5v28q0 17 14 31t32 14h35
q48 0 48 -45v-25q0 -82 61.5 -132.5t162.5 -50.5q100 0 161 50.5t61 132.5q0 72 -37 116.5t-124 74.5l-207 65v2q-118 43 -175.5 116t-57.5 182q0 141 98.5 230t254.5 89q153 0 253 -85.5t100 -220.5v-28q0 -17 -14.5 -31t-31.5 -14h-37q-46 0 -46 45v25q0 82 -62 132.5
t-162 50.5t-162 -50.5t-62 -132.5q0 -75 38.5 -119.5t136.5 -75.5z" />
    <glyph glyph-name="sacute" unicode="&#x15b;" horiz-adv-x="510" 
d="M240 903h-9q-25 0 -43 11t-18 35q0 10 4 19l85 202q10 22 40 22q21 0 40 -13t19 -32q0 -6 -4 -14l-74 -202q-8 -28 -40 -28zM262 -4q-100 0 -165 57t-68 148v17q0 20 15 34.5t35 14.5h20q50 0 50 -49v-15q0 -40 30.5 -64t82.5 -24q51 0 81 24t30 64q0 39 -17.5 59.5
t-63.5 33.5l-116 37q-163 55 -163 204q0 94 65.5 153.5t167.5 59.5q101 0 167 -57.5t66 -147.5v-18q0 -26 -20 -37q-14 -12 -30 -12h-20q-50 0 -50 49v16q0 39 -31 63t-82 24t-81.5 -24t-30.5 -63t19.5 -60.5t68.5 -35.5l101 -32q172 -52 172 -206q0 -94 -65.5 -153.5
t-167.5 -59.5z" />
    <glyph glyph-name="Scircumflex" unicode="&#x15c;" horiz-adv-x="760" 
d="M323 1316h-9q-25 0 -43.5 11t-18.5 36q0 10 4 18q68 166 86 207q11 23 46 23t47 -23l58 -140l19 -42q3 -8 10 -25q3 -9 3 -18q0 -25 -18.5 -36t-42.5 -11h-10q-31 0 -42 29l-24 66l-23 -66q-9 -29 -42 -29zM318 670v-1l166 -52q262 -80 262 -308q0 -141 -98.5 -230
t-254.5 -89q-153 0 -250.5 84.5t-102.5 221.5v28q0 17 14 31t32 14h35q48 0 48 -45v-25q0 -82 61.5 -132.5t162.5 -50.5q100 0 161 50.5t61 132.5q0 72 -37 116.5t-124 74.5l-207 65v2q-118 43 -175.5 116t-57.5 182q0 141 98.5 230t254.5 89q153 0 253 -85.5t100 -220.5
v-28q0 -17 -14.5 -31t-31.5 -14h-37q-46 0 -46 45v25q0 82 -62 132.5t-162 50.5t-162 -50.5t-62 -132.5q0 -75 38.5 -119.5t136.5 -75.5z" />
    <glyph glyph-name="scircumflex" unicode="&#x15d;" horiz-adv-x="510" 
d="M193 903h-9q-25 0 -43 11t-18 35q0 10 4 18q52 131 84 203q11 23 46 23q34 0 46 -23l57 -137l18 -42q2 -5 10 -24q3 -9 3 -18q0 -24 -18 -35t-42 -11h-10q-30 0 -41 28l-23 65l-23 -65q-9 -28 -41 -28zM262 -4q-100 0 -165 57t-68 148v17q0 20 15 34.5t35 14.5h20
q50 0 50 -49v-15q0 -40 30.5 -64t82.5 -24q51 0 81 24t30 64q0 39 -17.5 59.5t-63.5 33.5l-116 37q-163 55 -163 204q0 94 65.5 153.5t167.5 59.5q101 0 167 -57.5t66 -147.5v-18q0 -26 -20 -37q-14 -12 -30 -12h-20q-50 0 -50 49v16q0 39 -31 63t-82 24t-81.5 -24
t-30.5 -63t19.5 -60.5t68.5 -35.5l101 -32q172 -52 172 -206q0 -94 -65.5 -153.5t-167.5 -59.5z" />
    <glyph glyph-name="Scedilla" unicode="&#x15e;" horiz-adv-x="801" 
d="M767 309q0 -119 -74 -203t-195 -108q34 -42 34 -96q0 -55 -36 -99t-95 -44q-55 0 -93 41.5t-38 92.5q0 26 15 38.5t38 12.5h4q20 0 33.5 -12.5t17.5 -32.5l6 -18q6 -14 17 -14q9 0 15.5 10.5t6.5 24.5q0 24 -17 34l-34 35q-9 9 -15 23q-131 14 -211.5 95.5t-84.5 206.5
v28q0 17 14 31t32 14h35q48 0 48 -45v-25q0 -82 61.5 -132.5t162.5 -50.5q100 0 161 50.5t61 132.5q0 72 -37 116.5t-124 74.5l-207 65v2q-118 43 -175.5 116t-57.5 182q0 141 98.5 230t254.5 89q153 0 253 -85.5t100 -220.5v-28q0 -17 -14.5 -31t-31.5 -14h-37
q-46 0 -46 45v25q0 82 -62 132.5t-162 50.5t-162 -50.5t-62 -132.5q0 -75 38.5 -119.5t136.5 -75.5v-1l166 -52q262 -80 262 -308z" />
    <glyph glyph-name="scedilla" unicode="&#x15f;" horiz-adv-x="552" 
d="M276 -237q-53 0 -91 41.5t-38 90.5q0 25 15 38t38 13h4q20 0 33 -12.5t17 -32.5l6 -17q5 -14 16 -14q9 0 15.5 10.5t6.5 23.5q0 23 -17 34l-34 33q-10 13 -18 30q-78 15 -126.5 69t-51.5 131v17q0 20 15 34.5t35 14.5h20q50 0 50 -49v-15q0 -40 30.5 -64t82.5 -24
q51 0 81 24t30 64q0 39 -17.5 59.5t-63.5 33.5l-116 37q-163 55 -163 204q0 94 65.5 153.5t167.5 59.5q101 0 167 -57.5t66 -147.5v-18q0 -26 -20 -37q-14 -12 -30 -12h-20q-50 0 -50 49v16q0 39 -31 63t-82 24t-81.5 -24t-30.5 -63t19.5 -60.5t68.5 -35.5l101 -32
q172 -52 172 -206q0 -73 -41 -127t-112 -75q41 -43 41 -103q0 -53 -35.5 -97t-93.5 -44z" />
    <glyph glyph-name="Scaron" unicode="&#x160;" horiz-adv-x="760" 
d="M388 1321q-36 0 -46 24q-26 58 -86 205q-4 8 -4 19q0 24 19 35t43 11h9q33 0 41 -28l24 -66l24 66q11 28 42 28h10q24 0 42.5 -11t18.5 -35q0 -10 -3 -19l-87 -205q-12 -24 -47 -24zM318 670v-1l166 -52q262 -80 262 -308q0 -141 -98.5 -230t-254.5 -89
q-153 0 -250.5 84.5t-102.5 221.5v28q0 17 14 31t32 14h35q48 0 48 -45v-25q0 -82 61.5 -132.5t162.5 -50.5q100 0 161 50.5t61 132.5q0 72 -37 116.5t-124 74.5l-207 65v2q-118 43 -175.5 116t-57.5 182q0 141 98.5 230t254.5 89q153 0 253 -85.5t100 -220.5v-28
q0 -17 -14.5 -31t-31.5 -14h-37q-46 0 -46 45v25q0 82 -62 132.5t-162 50.5t-162 -50.5t-62 -132.5q0 -75 38.5 -119.5t136.5 -75.5z" />
    <glyph glyph-name="scaron" unicode="&#x161;" horiz-adv-x="510" 
d="M257 908q-35 0 -46 23q-36 81 -84 202q-4 8 -4 19q0 23 18.5 34t42.5 11h9q32 0 40 -28l24 -65l23 65q11 28 41 28h10q24 0 42 -11t18 -34q0 -10 -3 -19l-85 -202q-12 -23 -46 -23zM262 -4q-100 0 -165 57t-68 148v17q0 20 15 34.5t35 14.5h20q50 0 50 -49v-15
q0 -40 30.5 -64t82.5 -24q51 0 81 24t30 64q0 39 -17.5 59.5t-63.5 33.5l-116 37q-163 55 -163 204q0 94 65.5 153.5t167.5 59.5q101 0 167 -57.5t66 -147.5v-18q0 -26 -20 -37q-14 -12 -30 -12h-20q-50 0 -50 49v16q0 39 -31 63t-82 24t-81.5 -24t-30.5 -63t19.5 -60.5
t68.5 -35.5l101 -32q172 -52 172 -206q0 -94 -65.5 -153.5t-167.5 -59.5z" />
    <glyph glyph-name="Utilde" unicode="&#x168;" horiz-adv-x="770" 
d="M471 1353q-69 0 -108 83l-8 13q-8 19 -18 31q-10 6 -17 6q-13 0 -20 -14.5t-7 -28.5q0 -6 5 -21l6 -9l1 -5q2 -10 2 -12q0 -26 -35 -32l-8 -1h-13q-18 0 -28.5 17.5t-13 34t-2.5 33.5q0 53 31 97t82 44q36 0 58.5 -19.5t43.5 -56.5l13 -23q19 -36 36 -36q13 0 19 15t6 30
q0 11 -5 19l-4 12q-1 5 -1 13q0 26 24 32h3q9 3 15 3h13q23 0 32.5 -29t9.5 -56q0 -53 -30.5 -96.5t-81.5 -43.5zM387 0h-2q-157 0 -264 115.5t-107 272.5v731q0 46 45 46h31q44 0 44 -46v-731q0 -106 72.5 -185t178.5 -79q105 0 177.5 79t72.5 185v731q0 18 13 32t32 14h31
q44 0 44 -46v-731q0 -156 -106 -272t-262 -116z" />
    <glyph glyph-name="utilde" unicode="&#x169;" 
d="M341 937q-67 0 -106 82l-7 13q-7 17 -18 30q-10 6 -17 6q-13 0 -19.5 -14t-6.5 -28q0 -6 5 -21l5 -9l1 -5q2 -8 2 -11q0 -16 -9 -22.5t-25 -9.5l-8 -1h-13q-17 0 -27.5 17t-13 33.5t-2.5 33.5q0 52 30.5 95t80.5 43q35 0 57.5 -19.5t42.5 -54.5l13 -23q19 -35 35 -35
q13 0 19 14.5t6 29.5q0 11 -5 19l-4 11q-1 5 -1 13q0 26 24 32h3q9 3 14 3h13q23 0 32.5 -28.5t9.5 -55.5q0 -52 -30.5 -95t-80.5 -43zM263 0q-104 0 -177 77.5t-73 182.5l4 449q0 47 44 47h27q46 0 46 -47v-449q0 -54 37.5 -95t91.5 -41q49 0 91 39q37 42 37 97l4 449
q0 47 44 47h26q47 0 47 -47v-674q0 -14 -10 -24t-24 -10h-50q-14 0 -23.5 10t-9.5 24v5q-59 -40 -132 -40z" />
    <glyph glyph-name="Ubreve" unicode="&#x16c;" horiz-adv-x="770" 
d="M387 0h-2q-157 0 -264 115.5t-107 272.5v731q0 46 45 46h31q44 0 44 -46v-731q0 -106 72.5 -185t178.5 -79q105 0 177.5 79t72.5 185v731q0 18 13 32t32 14h31q44 0 44 -46v-731q0 -156 -106 -272t-262 -116z" />
    <glyph glyph-name="ubreve" unicode="&#x16d;" 
d="M263 0q-104 0 -177 77.5t-73 182.5l4 449q0 47 44 47h27q46 0 46 -47v-449q0 -54 37.5 -95t91.5 -41q49 0 91 39q37 42 37 97l4 449q0 47 44 47h26q47 0 47 -47v-674q0 -14 -10 -24t-24 -10h-50q-14 0 -23.5 10t-9.5 24v5q-59 -40 -132 -40z" />
    <glyph glyph-name="Uring" unicode="&#x16e;" horiz-adv-x="770" 
d="M396 1336q-55 0 -91 39t-36 93t36.5 93.5t90.5 39.5t90.5 -39.5t36.5 -93.5q0 -55 -36 -93.5t-91 -38.5zM396 1432q13 0 23.5 11t10.5 25q0 15 -10 25q-12 10 -24 10q-15 0 -22 -10q-10 -10 -10 -25t10 -25q8 -11 22 -11zM387 0h-2q-157 0 -264 115.5t-107 272.5v731
q0 46 45 46h31q44 0 44 -46v-731q0 -106 72.5 -185t178.5 -79q105 0 177.5 79t72.5 185v731q0 18 13 32t32 14h31q44 0 44 -46v-731q0 -156 -106 -272t-262 -116z" />
    <glyph glyph-name="uring" unicode="&#x16f;" 
d="M268 923q-53 0 -88.5 38t-35.5 91t36 92t88 39q53 0 89 -39t36 -92t-35.5 -91t-89.5 -38zM268 1017q13 0 23.5 10.5t10.5 24.5q0 15 -10 25q-12 10 -24 10q-14 0 -21 -10q-10 -10 -10 -25q0 -14 10 -24q8 -11 21 -11zM263 0q-104 0 -177 77.5t-73 182.5l4 449q0 47 44 47
h27q46 0 46 -47v-449q0 -54 37.5 -95t91.5 -41q49 0 91 39q37 42 37 97l4 449q0 47 44 47h26q47 0 47 -47v-674q0 -14 -10 -24t-24 -10h-50q-14 0 -23.5 10t-9.5 24v5q-59 -40 -132 -40z" />
    <glyph glyph-name="Wcircumflex" unicode="&#x174;" horiz-adv-x="1124" 
d="M515 1316h-9q-26 0 -44.5 11t-18.5 36q0 10 4 18q68 166 86 207q11 23 47 23q33 0 47 -23l58 -140l18 -42q3 -7 10 -25q3 -9 3 -18q0 -25 -18 -36t-43 -11h-10q-31 0 -42 29l-23 66l-24 -66q-9 -29 -41 -29zM324 0h-85q-33 0 -41 39l-184 1091q0 35 31 35h43q33 0 41 -37
l157 -922l195 923q8 36 42 36h76q34 0 42 -36l197 -921l155 920q8 37 41 37h44q30 0 30 -35l-184 -1091q-8 -39 -41 -39h-85q-31 0 -41 35l-195 923l-197 -923q-9 -35 -41 -35z" />
    <glyph glyph-name="wcircumflex" unicode="&#x175;" horiz-adv-x="870" 
d="M382 903h-9q-25 0 -43 11t-18 35q0 10 4 18q52 131 84 203q11 23 46 23q34 0 46 -23l57 -137l18 -42q2 -5 10 -24q3 -9 3 -18q0 -24 -18 -35t-42 -11h-10q-30 0 -41 28l-23 65l-23 -65q-9 -28 -41 -28zM784 737h27q19 0 30.5 -13.5t11.5 -32.5q0 -8 -1 -12l-150 -644
q-6 -35 -39 -35h-77q-29 0 -42 34l-111 485l-113 -484q-10 -35 -42 -35h-75q-28 0 -41 34l-148 644q-1 5 -1 13q0 18 12 32t30 14h28q34 0 40 -35l119 -506l118 506q6 35 42 35h61q35 0 42 -35l119 -508l119 508q6 35 41 35z" />
    <glyph glyph-name="Ycircumflex" unicode="&#x176;" horiz-adv-x="745" 
d="M315 1316h-9q-25 0 -43.5 11t-18.5 36q0 10 4 18q46 119 85 207q12 23 47 23t47 -23l58 -140l18 -42l11 -25q3 -9 3 -18q0 -25 -18.5 -36t-42.5 -11h-11q-30 0 -41 29l-24 66l-23 -66q-9 -29 -42 -29zM387 0h-31q-45 0 -45 46v294l-293 778q-4 5 -4 13q0 34 33 34h54
q24 0 40 -28l231 -613l231 613q16 28 43 28h52q32 0 32 -34v-5l-298 -780v-301q-8 -45 -45 -45z" />
    <glyph glyph-name="ycircumflex" unicode="&#x177;" horiz-adv-x="576" 
d="M227 903h-9q-25 0 -43 11t-18 35q0 10 4 18q52 131 84 203q11 23 46 23q34 0 46 -23l57 -137l18 -42q2 -5 10 -24q3 -9 3 -18q0 -24 -18 -35t-42 -11h-10q-30 0 -41 28l-23 65l-23 -65q-9 -28 -41 -28zM486 737h29q19 0 31.5 -12t12.5 -31q0 -4 -2 -14l-302 -925
q-46 -123 -175 -147l-5 -2q-17 0 -31 12q-14 16 -14 35v28q0 39 36 46q58 13 79 68l78 247v8l-209 627q-1 6 -1 14q0 18 12 32t30 14h30q35 0 42 -31l159 -477l159 477q6 31 41 31zM278 206l1 2q-1 -1 -1 -2z" />
    <glyph glyph-name="Ydieresis" unicode="&#x178;" horiz-adv-x="745" 
d="M288 1416h-17q-28 0 -48 20.5t-20 47.5v18q0 28 20 48t48 20h17q28 0 48 -20t20 -48v-18q0 -27 -20 -47.5t-48 -20.5zM489 1416h-18q-27 0 -46.5 20.5t-19.5 47.5v18q0 28 19.5 48t46.5 20h18q28 0 47.5 -19.5t19.5 -48.5v-18q0 -27 -19.5 -47.5t-47.5 -20.5zM387 0h-31
q-45 0 -45 46v294l-293 778q-4 5 -4 13q0 34 33 34h54q24 0 40 -28l231 -613l231 613q16 28 43 28h52q32 0 32 -34v-5l-298 -780v-301q-8 -45 -45 -45z" />
    <glyph glyph-name="Zacute" unicode="&#x179;" horiz-adv-x="766" 
d="M374 1316h-9q-25 0 -43.5 11t-18.5 36q0 10 4 19l86 206q12 22 41 22q22 0 41 -13.5t19 -32.5q0 -6 -4 -14l-75 -205q-8 -29 -41 -29zM743 1005l-596 -880h558q19 0 32.5 -13.5t13.5 -32.5v-33q0 -46 -46 -46h-643q-46 0 -46 46v92q0 14 9 25l595 878h-562q-44 0 -44 45
v33q0 46 44 46h645q45 0 45 -46v-92q0 -1 -0.5 -3t-1.5 -5.5t-1 -5.5z" />
    <glyph glyph-name="zacute" unicode="&#x17a;" horiz-adv-x="511" 
d="M240 903h-9q-25 0 -43 11t-18 35q0 10 4 19l85 202q10 22 40 22q21 0 40 -13t19 -32q0 -6 -4 -14l-74 -202q-8 -28 -40 -28zM456 0h-402q-17 0 -29 15t-12 32v87q0 13 8 28l355 453h-290q-41 0 -41 47v29q0 46 41 46h369q17 0 29 -14.5t12 -31.5v-87q0 -17 -10 -30
l-356 -454h326q40 0 40 -45v-28q0 -47 -40 -47z" />
    <glyph glyph-name="Zcaron" unicode="&#x17d;" horiz-adv-x="766" 
d="M392 1321q-36 0 -47 24q-26 58 -86 205q-4 8 -4 19q0 24 19 35t43 11h9q33 0 41 -28l25 -66l23 66q11 28 42 28h10q24 0 42.5 -11t18.5 -35q0 -10 -3 -19l-87 -205q-12 -24 -46 -24zM743 1005l-596 -880h558q19 0 32.5 -13.5t13.5 -32.5v-33q0 -46 -46 -46h-643
q-46 0 -46 46v92q0 14 9 25l595 878h-562q-44 0 -44 45v33q0 46 44 46h645q45 0 45 -46v-92q0 -1 -0.5 -3t-1.5 -5.5t-1 -5.5z" />
    <glyph glyph-name="zcaron" unicode="&#x17e;" horiz-adv-x="511" 
d="M257 908q-35 0 -46 23q-36 81 -84 202q-4 8 -4 19q0 23 18.5 34t42.5 11h9q32 0 40 -28l24 -65l23 65q11 28 41 28h10q24 0 42 -11t18 -34q0 -10 -3 -19l-85 -202q-12 -23 -46 -23zM456 0h-402q-17 0 -29 15t-12 32v87q0 13 8 28l355 453h-290q-41 0 -41 47v29
q0 46 41 46h369q17 0 29 -14.5t12 -31.5v-87q0 -17 -10 -30l-356 -454h326q40 0 40 -45v-28q0 -47 -40 -47z" />
    <glyph glyph-name="circumflex" unicode="&#x2c6;" horiz-adv-x="539" 
d="M178 903h-9q-25 0 -43 11t-18 35q0 10 4 18q52 131 84 203q11 23 46 23q34 0 46 -23l57 -137l18 -42q2 -5 10 -24q3 -9 3 -18q0 -24 -18 -35t-42 -11h-10q-30 0 -41 28l-23 65l-23 -65q-9 -28 -41 -28z" />
    <glyph glyph-name="caron" unicode="&#x2c7;" horiz-adv-x="539" 
d="M242 908q-35 0 -46 23q-36 81 -84 202q-4 8 -4 19q0 23 18.5 34t42.5 11h9q32 0 40 -28l24 -65l23 65q11 28 41 28h10q24 0 42 -11t18 -34q0 -10 -3 -19l-85 -202q-12 -23 -46 -23z" />
    <glyph glyph-name="ring" unicode="&#x2da;" horiz-adv-x="387" 
d="M180 923q-53 0 -88.5 38t-35.5 91t36 92t88 39q53 0 89 -39t36 -92t-35.5 -91t-89.5 -38zM180 1017q13 0 23.5 10.5t10.5 24.5q0 15 -10 25q-12 10 -24 10q-14 0 -21 -10q-10 -10 -10 -25q0 -14 10 -24q8 -11 21 -11z" />
    <glyph glyph-name="tilde" unicode="&#x2dc;" horiz-adv-x="282" 
d="M291 937q-67 0 -106 82l-7 13q-7 17 -18 30q-10 6 -17 6q-13 0 -19.5 -14t-6.5 -28q0 -6 5 -21l5 -9l1 -5q2 -8 2 -11q0 -16 -9 -22.5t-25 -9.5l-8 -1h-13q-17 0 -27.5 17t-13 33.5t-2.5 33.5q0 52 30.5 95t80.5 43q35 0 57.5 -19.5t42.5 -54.5l13 -23q19 -35 35 -35
q13 0 19 14.5t6 29.5q0 11 -5 19l-4 11q-1 5 -1 13q0 26 24 32h3q9 3 14 3h13q23 0 32.5 -28.5t9.5 -55.5q0 -52 -30.5 -95t-80.5 -43z" />
    <glyph glyph-name="Wgrave" unicode="&#x1e80;" horiz-adv-x="1124" 
d="M619 1316h-10q-32 0 -40 29l-75 204q-4 7 -4 15q0 19 19 32.5t41 13.5q28 0 40 -22l87 -207q4 -10 4 -18q0 -25 -18.5 -36t-43.5 -11zM324 0h-85q-33 0 -41 39l-184 1091q0 35 31 35h43q33 0 41 -37l157 -922l195 923q8 36 42 36h76q34 0 42 -36l197 -921l155 920
q8 37 41 37h44q30 0 30 -35l-184 -1091q-8 -39 -41 -39h-85q-31 0 -41 35l-195 923l-197 -923q-9 -35 -41 -35z" />
    <glyph glyph-name="wgrave" unicode="&#x1e81;" horiz-adv-x="870" 
d="M484 903h-10q-31 0 -39 28l-74 201q-4 7 -4 15q0 19 19 32t40 13q28 0 40 -22l85 -203q4 -10 4 -18q0 -24 -18 -35t-43 -11zM784 737h27q19 0 30.5 -13.5t11.5 -32.5q0 -8 -1 -12l-150 -644q-6 -35 -39 -35h-77q-29 0 -42 34l-111 485l-113 -484q-10 -35 -42 -35h-75
q-28 0 -41 34l-148 644q-1 5 -1 13q0 18 12 32t30 14h28q34 0 40 -35l119 -506l118 506q6 35 42 35h61q35 0 42 -35l119 -508l119 508q6 35 41 35z" />
    <glyph glyph-name="Wacute" unicode="&#x1e82;" horiz-adv-x="1124" 
d="M562 1316h-9q-25 0 -43.5 11t-18.5 36q0 10 4 19l87 206q10 22 40 22q22 0 41.5 -13.5t19.5 -32.5q0 -4 -5 -14l-75 -205q-8 -29 -41 -29zM324 0h-85q-33 0 -41 39l-184 1091q0 35 31 35h43q33 0 41 -37l157 -922l195 923q8 36 42 36h76q34 0 42 -36l197 -921l155 920
q8 37 41 37h44q30 0 30 -35l-184 -1091q-8 -39 -41 -39h-85q-31 0 -41 35l-195 923l-197 -923q-9 -35 -41 -35z" />
    <glyph glyph-name="wacute" unicode="&#x1e83;" horiz-adv-x="870" 
d="M429 903h-9q-25 0 -43 11t-18 35q0 10 4 19l85 202q10 22 40 22q21 0 40 -13t19 -32q0 -6 -4 -14l-74 -202q-8 -28 -40 -28zM784 737h27q19 0 30.5 -13.5t11.5 -32.5q0 -8 -1 -12l-150 -644q-6 -35 -39 -35h-77q-29 0 -42 34l-111 485l-113 -484q-10 -35 -42 -35h-75
q-28 0 -41 34l-148 644q-1 5 -1 13q0 18 12 32t30 14h28q34 0 40 -35l119 -506l118 506q6 35 42 35h61q35 0 42 -35l119 -508l119 508q6 35 41 35z" />
    <glyph glyph-name="Wdieresis" unicode="&#x1e84;" horiz-adv-x="1124" 
d="M487 1416h-16q-28 0 -48 20.5t-20 47.5v18q0 28 19.5 48t48.5 20h16q29 0 48.5 -20t19.5 -48v-18q0 -27 -20 -47.5t-48 -20.5zM689 1416h-19q-26 0 -46 20.5t-20 47.5v18q0 28 19.5 48t46.5 20h19q28 0 47.5 -20t19.5 -48v-18q0 -27 -20 -47.5t-47 -20.5zM324 0h-85
q-33 0 -41 39l-184 1091q0 35 31 35h43q33 0 41 -37l157 -922l195 923q8 36 42 36h76q34 0 42 -36l197 -921l155 920q8 37 41 37h44q30 0 30 -35l-184 -1091q-8 -39 -41 -39h-85q-31 0 -41 35l-195 923l-197 -923q-9 -35 -41 -35z" />
    <glyph glyph-name="wdieresis" unicode="&#x1e85;" horiz-adv-x="870" 
d="M354 1001h-16q-27 0 -47 20t-20 47v18q0 28 19.5 47.5t47.5 19.5h16q28 0 47.5 -19.5t19.5 -47.5v-18q0 -27 -20 -47t-47 -20zM552 1001h-18q-26 0 -45.5 20.5t-19.5 46.5v18q0 28 19.5 47.5t45.5 19.5h18q28 0 47 -19.5t19 -47.5v-18q0 -27 -19.5 -47t-46.5 -20z
M784 737h27q19 0 30.5 -13.5t11.5 -32.5q0 -8 -1 -12l-150 -644q-6 -35 -39 -35h-77q-29 0 -42 34l-111 485l-113 -484q-10 -35 -42 -35h-75q-28 0 -41 34l-148 644q-1 5 -1 13q0 18 12 32t30 14h28q34 0 40 -35l119 -506l118 506q6 35 42 35h61q35 0 42 -35l119 -508
l119 508q6 35 41 35z" />
    <glyph glyph-name="endash" unicode="&#x2013;" horiz-adv-x="874" 
d="M723 297h-570q-18 0 -33 15q-12 17 -12 32v28q0 19 13.5 33.5t31.5 14.5h570q43 0 43 -48v-28q0 -47 -43 -47z" />
    <glyph glyph-name="emdash" unicode="&#x2014;" horiz-adv-x="1393" 
d="M1238 297h-1085q-18 0 -33 15q-12 17 -12 32v28q0 19 13.5 33.5t31.5 14.5h1085q18 0 31.5 -14.5t13.5 -33.5v-28q0 -17 -12 -32q-15 -15 -33 -15z" />
    <glyph glyph-name="uni2015" unicode="&#x2015;" horiz-adv-x="1393" 
d="M1238 297h-1085q-18 0 -33 15q-12 17 -12 32v28q0 19 13.5 33.5t31.5 14.5h1085q18 0 31.5 -14.5t13.5 -33.5v-28q0 -17 -12 -32q-15 -15 -33 -15z" />
    <glyph glyph-name="underscoredbl" unicode="&#x2017;" horiz-adv-x="874" 
d="M723 393h-571q-44 0 -44 46v28q0 47 44 47h571q43 0 43 -47v-28q0 -46 -43 -46zM723 203h-571q-44 0 -44 46v29q0 46 44 46h571q43 0 43 -46v-29q0 -46 -43 -46z" />
    <glyph glyph-name="quoteleft" unicode="&#x2018;" horiz-adv-x="350" 
d="M139 903h-42q-18 0 -30.5 13.5t-12.5 32.5q0 10 4 19l70 151q14 26 39 26h32q18 0 31 -14t13 -32q0 -7 -4 -17l-60 -151q-9 -28 -40 -28z" />
    <glyph glyph-name="quoteright" unicode="&#x2019;" horiz-adv-x="350" 
d="M127 903h-30q-18 0 -30.5 13.5t-12.5 32.5q0 10 4 18l59 150q10 28 41 28h41q18 0 31 -14t13 -32q0 -8 -4 -18l-71 -152q-13 -26 -41 -26z" />
    <glyph glyph-name="quotesinglbase" unicode="&#x201a;" horiz-adv-x="350" 
d="M127 -132h-30q-24 0 -37 22q-6 12 -6 24q0 10 4 17l59 152q12 27 41 27h41q19 0 31.5 -13t12.5 -31q0 -8 -4 -20l-71 -151q-12 -27 -41 -27z" />
    <glyph glyph-name="quotereversed" unicode="&#x201b;" horiz-adv-x="313" 
d="M133 903q-28 0 -39 29l-38 104q-2 10 -2 21v23q0 26 18.5 45.5t44.5 19.5h20q27 0 46 -19.5t19 -45.5v-23q0 -23 -15 -41l15 -42q4 -14 4 -18q0 -28 -31 -41l-24 -8q-8 -4 -18 -4z" />
    <glyph glyph-name="quotedblleft" unicode="&#x201c;" horiz-adv-x="522" 
d="M139 903h-42q-18 0 -30.5 13.5t-12.5 32.5q0 10 4 19l70 151q14 26 39 26h32q18 0 31 -14t13 -32q0 -7 -4 -17l-60 -151q-9 -28 -40 -28zM310 903h-42q-22 0 -37 20q-7 11 -7 26q0 9 3 19l71 150q12 27 42 27h29q17 0 31 -13.5t14 -30.5q0 -9 -5 -19l-58 -153
q-15 -26 -41 -26z" />
    <glyph glyph-name="quotedblright" unicode="&#x201d;" horiz-adv-x="522" 
d="M127 903h-30q-18 0 -30.5 13.5t-12.5 32.5q0 10 4 18l59 150q10 28 41 28h41q18 0 31 -14t13 -32q0 -8 -4 -18l-71 -152q-13 -26 -41 -26zM299 903h-31q-22 0 -37 20q-7 11 -7 26q0 9 3 18l61 152q15 26 39 26h42q17 0 31 -13.5t14 -30.5q0 -11 -6 -20l-70 -153
q-16 -25 -39 -25z" />
    <glyph glyph-name="quotedblbase" unicode="&#x201e;" horiz-adv-x="522" 
d="M127 -132h-30q-24 0 -37 22q-6 12 -6 24q0 10 4 17l59 152q12 27 41 27h41q19 0 31.5 -13t12.5 -31q0 -8 -4 -20l-71 -151q-12 -27 -41 -27zM299 -132h-31q-18 0 -31 14t-13 32q0 10 3 17l61 154q16 25 39 25h42q17 0 31 -13.5t14 -29.5q0 -13 -6 -22l-70 -151
q-14 -26 -39 -26z" />
    <glyph glyph-name="dagger" unicode="&#x2020;" horiz-adv-x="550" 
d="M287 -307h-26q-44 0 -44 46v714h-112q-14 0 -31 12q-14 16 -14 34v29q0 18 14 34q17 12 31 12h112v384q0 45 44 45h26q47 0 47 -45v-384h113q43 0 43 -46v-29q0 -46 -43 -46h-113v-714q0 -46 -47 -46z" />
    <glyph glyph-name="bullet" unicode="&#x2022;" horiz-adv-x="469" 
d="M234 442q-53 0 -89.5 39t-36.5 92t36.5 92.5t89.5 39.5q54 0 90 -39t36 -93t-36.5 -92.5t-89.5 -38.5z" />
    <glyph glyph-name="ellipsis" unicode="&#x2026;" horiz-adv-x="799" 
d="M191 0h-16q-27 0 -47 20.5t-20 47.5v18q0 29 20 47q17 20 47 20h16q29 0 46 -20q21 -18 21 -47v-18q0 -27 -20 -47.5t-47 -20.5zM410 0h-16q-27 0 -47 20.5t-20 47.5v18q0 29 21 47q16 20 46 20h16q29 0 47 -20q20 -18 20 -47v-18q0 -27 -20 -47.5t-47 -20.5zM625 0h-17
q-27 0 -46.5 20.5t-19.5 47.5v18q0 28 19 47.5t47 19.5h17q28 0 46.5 -19.5t18.5 -47.5v-18q0 -28 -18.5 -48t-46.5 -20z" />
    <glyph glyph-name="minute" unicode="&#x2032;" horiz-adv-x="225" 
d="M125 903h-28q-43 0 -43 45v152q0 45 43 45h28q45 0 45 -45v-152q0 -45 -45 -45z" />
    <glyph glyph-name="second" unicode="&#x2033;" horiz-adv-x="397" 
d="M125 903h-28q-43 0 -43 45v152q0 45 43 45h28q45 0 45 -45v-152q0 -45 -45 -45zM299 903h-27q-47 0 -47 45v152q0 45 47 45h27q43 0 43 -45v-152q0 -45 -43 -45z" />
    <glyph glyph-name="guilsinglleft" unicode="&#x2039;" horiz-adv-x="454" 
d="M345 631v-76q0 -19 -13 -32l-154 -165l156 -166q11 -14 11 -32v-77q0 -30 -31 -30q-13 0 -22 10l-227 242q-11 15 -11 30v45q0 18 11 31l227 241q9 11 23 11l8 -1q22 -7 22 -31z" />
    <glyph glyph-name="guilsinglright" unicode="&#x203a;" horiz-adv-x="455" 
d="M162 653l227 -239q12 -14 12 -32v-46q0 -18 -13 -31l-226 -240q-6 -10 -23 -10q-8 0 -11 1q-20 9 -20 28v78q0 11 12 30l157 168l-157 167q-12 21 -12 30v76q0 14 9 23t22 9q14 0 23 -12z" />
    <glyph glyph-name="fraction" unicode="&#x2044;" horiz-adv-x="642" 
d="M96 0h-29q-19 0 -31.5 13t-12.5 33q0 10 4 19l478 1052q7 28 39 28h31q17 0 31 -13t14 -31q0 -8 -6 -20l-477 -1054q-10 -27 -41 -27z" />
    <glyph glyph-name="Euro" unicode="&#x20ac;" horiz-adv-x="1127" 
d="M1002 346h36q18 0 31 -14t13 -33q0 -11 -6 -22q-66 -124 -179.5 -199.5t-250.5 -75.5q-164 0 -288.5 101t-179.5 261h-81q-43 0 -43 44v31q0 46 43 46h52q-5 62 -5 88v6h-47q-43 0 -43 47v29q0 17 13 30.5t30 13.5h59q18 88 61.5 168.5t106 143t146.5 99.5t176 37
q137 0 250.5 -75.5t179.5 -200.5q6 -10 6 -22q0 -18 -13 -32t-31 -14h-36q-24 0 -37 22q-53 89 -137 144t-182 55q-137 0 -235.5 -93t-133.5 -232h205q18 0 30.5 -13t12.5 -31v-29q0 -47 -43 -47h-219v-6q0 -55 8 -88h211q43 0 43 -46v-31q0 -44 -43 -44h-176
q50 -106 140 -173t200 -67q98 0 182 55t137 145q13 22 37 22z" />
    <glyph glyph-name="trademark" unicode="&#x2122;" horiz-adv-x="972" 
d="M261 597h-15q-45 0 -45 46v395h-102q-17 0 -33 13q-12 17 -12 33v14q0 15 12 32q15 15 33 15h309q18 0 31.5 -14.5t13.5 -32.5v-14q0 -19 -13 -32.5t-32 -13.5h-102v-395q0 -46 -45 -46zM518 595h-13q-45 0 -45 47v456q0 47 45 47h41q35 0 44 -32l98 -321l98 321
q10 32 43 32h43q46 0 46 -47v-456q0 -19 -14 -32q-14 -15 -32 -15h-13q-20 0 -32 15q-14 13 -14 32v202l-65 -215q-9 -34 -45 -34h-29q-37 0 -43 35l-68 215v-203q0 -47 -45 -47z" />
    <glyph glyph-name="minus" unicode="&#x2212;" horiz-adv-x="775" 
d="M667 360h-561q-43 0 -43 47v28q0 47 43 47h561q43 0 43 -47v-28q0 -47 -43 -47z" />
    <glyph glyph-name="notequal" unicode="&#x2260;" horiz-adv-x="775" 
d="M198 156q-17 0 -32 15l-18 19q-14 14 -14 32q0 16 12 33l12 12h-52q-43 0 -43 47v28q0 46 43 46h167l64 67h-231q-43 0 -43 44v29q0 46 43 46h345l93 99q14 13 31 13t30 -13l22 -23q13 -16 13 -31q0 -13 -13 -31l-13 -14h51q16 0 33 -12q12 -17 12 -34v-29q0 -44 -45 -44
h-164l-65 -67h229q45 0 45 -46v-28q0 -19 -13 -33t-32 -14h-342l-93 -98q-16 -13 -32 -13z" />
    <glyph glyph-name="lessequal" unicode="&#x2264;" horiz-adv-x="775" 
d="M710 865v-52q0 -30 -26 -42l-474 -199l483 -202q17 -9 17 -30v-62q0 -32 -26 -32q-6 0 -16 4l-577 242q-28 11 -28 41v78q0 31 28 42l577 242q10 4 15 4q27 0 27 -34zM106 237h561q43 0 43 -48v-26q0 -47 -43 -47h-561q-43 0 -43 47v26q0 48 43 48z" />
    <glyph glyph-name="greaterequal" unicode="&#x2265;" horiz-adv-x="775" 
d="M104 895l580 -243q26 -10 26 -41v-78q0 -29 -26 -41l-580 -242q-8 -4 -14 -4q-27 0 -27 32v62q0 20 19 30l482 201l-473 200q-28 11 -28 42v52q0 33 28 33q1 0 13 -3zM106 237h561q43 0 43 -48v-26q0 -47 -43 -47h-561q-43 0 -43 47v26q0 48 43 48z" />
    <glyph glyph-name="uniF8FF" unicode="&#xf8ff;" horiz-adv-x="1008" 
d="M30 1142h948v-1016h-948v1016zM172 366h109v189h373v98h-373v266h373v97h-483v-646zM725 730v-263h-371v-101h483v650h-112v-182h-371v-104h371zM563 241q8 0 14 4q2 0 5 1h2q7 0 7 5v25q-5 0 -7 4l-3 3l-7 1h-8l-5 4l-4 1q-1 2 -2 3.5t-1 2.5q0 7 7 7h5q5 -3 6 -4
q4 -3 7 -3q1 0 3 -1l2 -1l7 15q0 1 -2 1.5t-5.5 1.5t-6.5 2q-12 4 -14 4q-4 0 -14 -4q-5 -3 -8 -3l-4 -6q-3 -3 -3 -11q0 -2 0.5 -4t0.5 -3q0 -2 2 -3l2.5 -2.5t1.5 -2.5l5 -2q1 0 2.5 -0.5t2.5 -0.5q4 0 8 -4h4l3 -2l5 -3l1 -3q0 -5 -2 -5q-4 -2 -7 -2q-2 0 -14 5
q-3 0 -14 7l-4 -15q6 -8 15 -8q1 0 3.5 -1t4.5 -1q3 -2 9 -2zM270 241q18 0 28 10q9 9 12 27q0 14 -9 20q0 4 -3 6q-1 1 -3 3.5t-4 2.5q-5 5 -21 5q-12 0 -19 -5q-7 -2 -15 -12q-5 -12 -5 -20q0 -11 5 -18q8 -14 13 -15q7 -4 21 -4zM731 241q13 0 17 4q7 2 14 9l-12 12
q-3 -5 -10 -5q-2 -3 -9 -3q-6 0 -9 3l-2 2q-1 0 -5 6q-2 0 -2 11q0 6 2 9q0 1 3 3.5t4 3.5q3 4 9 4q7 0 9 -4q7 -1 10 -7l10 13q0 1 -1 2t-2 2.5t-2 3.5l-7 1l-8 4h-9q-18 0 -24 -11q-12 -5 -12 -26q0 -12 3 -18q9 -13 15 -15q5 -4 18 -4zM228 300v13h-56v-70h21v26h31v14
h-31v17h35zM368 271l-33 42h-16v-70h18v41l31 -41h19v70h-19v-42zM394 313v-13h23v-57h17v57h21v13h-61zM529 243l-30 70h-20l-32 -70h20l6 11h29l5 -11h22zM596 313v-13h20v-57h20v57h22v13h-62zM683 243v70h-18v-70h18zM843 243l-31 70h-20l-32 -70h20l6 11h33l2 -11h22z
M270 256q-5 0 -14 7q-5 8 -5 15q0 6 2 11l3 4l5 3q2 4 9 4q5 0 11 -4q4 -1 7 -7l2 -5v-11q0 -1 -1 -3l-1 -2q-6 -7 -7 -7q-7 -5 -11 -5zM477 269l12 26l8 -26h-20zM790 269l11 26l9 -26h-20zM64 64l-5 -14l-4 -20h-5l-4 1l-11 44q2 2 4 2h7l4 -30q2 0 2 3q0 5 3 10
q1 3 2 5.5t1.5 4t0.5 2.5v5h9l6 -15l3 -15q2 2 2 4l2 11l3 13q0 2 4 2l6 -2q-6 -9 -6 -18q0 -1 -4 -13l-2 -11v-3h-10v3l-2 5l-3 12zM129 47l-4 -17h-8q0 1 -3 1v7l-7 31l-3 6q3 2 5 2h5v-7q3 -3 3 -8l4 -15l8 30h8l2 -2l5 -15l1 -13l9 28q0 2 4 2l5 -2v-5l-2 -8
q-1 -2 -2 -5t-1 -4l-6 -23h-5l-3 1l-7 16v8q0 1 -3 3q-4 -2 -4 -3q0 -5 -1 -8zM202 64l-8 -33l-5 -1l-3 1l-2 7q0 7 -5 17l-1 15l-2 7h8l3 -15l4 -15l3 4l4 26h11l4 -15q1 -15 7 -15v15l2 15h6l5 -2l-2 -5q0 -6 -2 -8q0 -2 -0.5 -5t-0.5 -4l-7 -22l-1 -1h-7l-6 17l-3 13z
M301 50h-17v-19h-7v44l1 2h28v-8h-22v-12h17v-7zM343 30q-14 0 -17 12q-3 9 -3 11q0 9 3 12q0 5 6 5l5 7h8q13 0 20 -15q3 -10 0 -15q-3 -8 -7 -12q-5 -5 -15 -5zM412 30l-18 30v-30h-9v47h9l18 -30v30h6v-46l-1 -1h-5zM474 69h-14v-39h-9v39h-13v8h36v-8zM495 42l-2 -11
l-6 -1h-3q0 1 -2 1l2 6l5 12l6 15q1 1 2.5 4.5t3.5 6.5q0 2 1 2h5l19 -46q-2 0 -2 -1h-2l-7 1l-2 11h-18zM559 30q-3 0 -6 0.5t-4 0.5q-2 1 -4 4t-3 3l-1 4v5h8q7 -9 10 -9q2 0 5 2q2 2 2 4v3q-1 2 -9 4q-11 0 -11 4q-6 7 -4 12q5 8 11 10h8q9 0 10 -7q3 0 3 -6v-2h-8v2
q0 6 -7 6h-2q-6 -4 -6 -6l10 -4q2 -1 6.5 -3.5t6.5 -3.5q0 -1 1 -3t1 -3q0 -8 -4 -10q-1 -6 -6 -6q-2 -1 -7 -1zM628 69h-14v-39h-8v39h-14v8h36v-8zM647 77h7v-47h-7v47zM696 30q-12 0 -21 17q-2 0 -2 6l2 9q1 8 14 15h6q9 0 12 -7q3 0 3 -3l1 -3l-4 -2h-2l-3 2q-4 6 -7 6
l-10 -5q-3 -4 -3 -8l1 -7q0 -3 2 -5q0 -7 8 -7q5 0 9 9h5q4 0 4 -2l-1 -3q-5 -12 -14 -12zM740 42l-3 -11l-6 -1h-1l-2 1l2 6l3 12q4 8 5 15l7 11q0 2 3 2h7l17 -46q-2 0 -2 -1h-4l-4 1l-5 11h-17zM836 30q-4 0 -12 3q-1 2 -5 9q-7 11 0 25q3 3 5 3q1 1 2 2.5t2 2.5t1 2h8
q6 0 8 -2q4 0 4 -5q5 0 5 -3v-3q-2 0 -5 -2h-4v2q-2 5 -8 5q-8 0 -8 -5q-3 -3 -3 -11q0 -6 3 -11q0 -4 8 -4q6 0 8 9h9v-7l-4 -3q-4 -7 -14 -7zM894 30q-12 0 -16 7q-7 9 -7 16q0 1 5 14q9 9 11 10q4 0 11 -2.5t8 -2.5q8 -2 8 -17q0 -12 -5 -18q-3 -7 -15 -7zM942 64v-33
l-4 -1h-4v47h14l3 -15l2 -11v-4l7 13q2 9 2 15v2h16v-47h-10v35l-6 -15v-12l-2 -7v-1h-7l-2 1l-3 16zM345 38q12 0 12 9v13q0 2 -2.5 4t-2.5 3q-6 3 -7 3l-10 -5q0 -3 -2 -3v-9q0 -1 4 -11q4 -4 8 -4zM894 38q4 0 5 2q5 2 5 13q0 12 -5 14l-1 1q-1 1 -2 1q0 1 -2 1
q-9 0 -9 -6q0 -1 -1 -5t-1 -6q0 -6 2 -11q0 -4 9 -4zM504 64l-3 -2l-2 -12h10q-2 1 -2 7l-1 5zM750 62v2l-3 -2l-3 -12h11l-3 7zM246 40h9v-9h-9v9zM788 40h9v-9h-9v9z" />
    <glyph glyph-name="G.ss01" horiz-adv-x="811" 
d="M408 0h-2q-157 0 -264 115.5t-107 272.5v389q0 157 107 272.5t264 115.5h2q156 0 262 -116t106 -272v-29q0 -44 -44 -44h-31q-15 0 -31 11q-14 14 -14 33v29q0 107 -72.5 185.5t-177.5 78.5q-106 0 -178.5 -78.5t-72.5 -185.5v-389q0 -106 72.5 -185t178.5 -79
q104 0 176 79t74 185l-3 152h-257q-46 0 -46 47v30q0 49 46 49h336q17 0 30.5 -15.5t13.5 -33.5v-229q-2 -158 -107 -273t-261 -115z" />
    <glyph glyph-name="_FSHallmark" horiz-adv-x="1414" 
d="M63 1133h1291v-152h-1291v152zM1075 258q-62 0 -105 14q-79 21 -130 80t-51 139l150 -3q0 -6 9 -26q3 -19 22 -38.5t38 -25.5q26 -16 74 -16q54 0 84 18q27 16 27 42q0 46 -122 71q-100 28 -188 70q-78 38 -78 127q0 70 44.5 112t120.5 68q93 12 105 12q62 0 145 -30
q55 -20 88 -69.5t33 -108.5h-154q0 34 -41 63q-4 1 -16.5 7.5t-20.5 7.5q-5 0 -18 3.5t-19 3.5q-36 0 -72 -22q-30 -17 -30 -47q0 -50 29 -63q3 -1 16.5 -7t25 -9.5t23.5 -5.5l58 -16l47 -11q6 -1 22 -5.5t24 -4.5q29 -6 36 -11l32 -15q31 -20 50 -42q18 -39 19 -70
q2 -29 -16 -76q-62 -116 -261 -116zM544 466h-312v-208h-169v643h543v-145h-374v-147h312v-143zM669 261q-28 0 -51 25q-27 23 -27 51q0 29 24 53q21 21 54 21q38 0 62 -23q26 -23 26 -51q0 -30 -26 -56q-29 -20 -62 -20zM60 179h1292v-152h-1292v152z" />
    <glyph glyph-name="_Fontastica" horiz-adv-x="1085" 
d="M760 456h-540v-269h-155l-5 6v934h700v-138h-540v-388h540v-145zM865 1127h160v-940h-700v146h540v382h-540v149h540v263zM212 33q-13 0 -29 7q-11 3 -19.5 17.5t-8.5 28.5q0 22 17.5 37t39.5 15q26 0 46 -28q8 -8 8 -24q0 -23 -15.5 -38t-38.5 -15zM623 33q-27 0 -48 16
l11 20q17 -15 37 -15q12 0 12 10l-1 2q-2 1 -2 3l-5 4q-2 0 -11 3q-3 1 -9.5 2t-9.5 3q-15 8 -15 27q0 30 41 30q22 0 41 -11l-11 -22q-13 12 -40 12l-1 -1l-2 -7q0 -1 1 -2t1 -2l4 -6q3 0 6.5 -1t4.5 -1q12 0 24.5 -10t12.5 -22q0 -15 -12.5 -23.5t-28.5 -8.5zM859 33
q-16 0 -27 7q-12 5 -20 18.5t-8 27.5q0 10 9 25.5t19 19.5q14 7 27 7q7 0 23 -4q9 -5 18 -14l-16 -18q-3 3 -11.5 8.5t-12.5 5.5q-14 0 -23 -14q-4 -5 -4 -16q0 -20 12 -25q8 -6 15 -6q4 0 13.5 5t10.5 8l16 -15q-12 -20 -41 -20zM148 72h-47v-37h-26v101h75v-20h-49v-24h47
v-20zM350 35l-46 60v-60h-26v101h25l45 -61v61h26v-101h-24zM470 114h-28v-79h-27v79h-30v22h85v-22zM539 54h-45l-6 -19h-27l42 101h28l42 -101h-28zM755 114h-31v-79h-26v79h-30v22h87v-22zM766 136h26v-101h-26v101zM977 54h-42l-9 -19h-26l44 101h28l42 -101h-29z
M212 54q11 0 19.5 9.5t8.5 22.5q0 10 -9 20t-19 10q-6 0 -16 -6q-13 -7 -13 -24q0 -14 8 -23t21 -9zM502 73h29l-15 36zM943 73h26l-14 36z" />
    <glyph glyph-name="_www.fontastica.com" horiz-adv-x="1953" 
d="M66 293h-34l-2 1v209h158v-31h-122v-87h122v-32h-122v-60zM247 293h-158v32h122v86h-122v33h122v59h36v-210zM1250 310q-46 0 -81 28l18 36q11 -10 30.5 -18.5t32.5 -8.5q4 0 16 4q7 3 7 11t-5 10q-9 6 -29 12q-28 8 -31 10q-11 5 -20 15q-7 10 -7 28q0 27 20.5 40.5
t48.5 13.5q39 0 70 -20l-17 -36q-34 18 -57 18q-18 0 -18 -12t33 -22q24 -5 31 -10q16 -9 20 -16q8 -11 8 -29q0 -27 -20.5 -40.5t-49.5 -13.5zM543 309q-39 0 -66.5 26t-27.5 65t27 64.5t67 25.5t67 -25.5t27 -64.5q0 -40 -26.5 -65.5t-67.5 -25.5zM1656 309
q-38 0 -64.5 26.5t-26.5 64.5q0 39 27 64.5t66 25.5q44 0 70 -30l-26 -32q-16 23 -43 23q-21 0 -34.5 -14.5t-13.5 -35.5q0 -16 6 -26q16 -25 42 -25q23 0 43 20l27 -28q-33 -33 -73 -33zM354 313h-45v174h130v-36h-85v-39h78v-37h-78v-62zM703 313h-43v174h40l80 -105
l-1 105h43v-174h-40l-79 104v-104zM938 313h-45v137h-52v37h150v-37h-53v-137zM1019 313h-47l75 174h47l73 -174h-48l-12 30h-76zM1426 313h-46v137h-52v37h150v-37h-52v-137zM1542 313h-45v174h45v-174zM1775 313h-47l75 174h47l73 -174h-49l-11 30h-76zM544 348
q20 0 33.5 16t13.5 36q0 7 -7 26q-9 25 -40 25q-21 0 -34.5 -14.5t-13.5 -36.5q0 -21 13.5 -36.5t34.5 -15.5zM1070 441l-25 -63h48zM1825 441l-24 -63h48z" />
    </font>
</defs>
</svg>
